{
copyright = "(c) Copyright Pooja Saxena, 2014.";
date = "2014-09-19 12:41:34 +0000";
designer = "Pooja Saxena";
designerURL = "http://www.poojasaxena.in/";
familyName = "Cambay Devanagari";
featurePrefixes = (
{
automatic = 1;
code = "languagesystem DFLT dflt;\012languagesystem dev2 dflt;\012";
name = Languagesystems;
}
);
features = (
{
automatic = 1;
code = "feature half;\012feature cjct;\012feature akhn;\012feature rkrf;\012";
name = aalt;
},
{
automatic = 1;
code = "sub ka-deva nukta-deva by qa-deva;\012sub kha-deva nukta-deva by khha-deva;\012sub ga-deva nukta-deva by ghha-deva;\012sub ja-deva nukta-deva by za-deva;\012sub dda-deva nukta-deva by dddha-deva;\012sub ddha-deva nukta-deva by rha-deva;\012sub na-deva nukta-deva by nnna-deva;\012sub pha-deva nukta-deva by fa-deva;\012sub ya-deva nukta-deva by yya-deva;\012sub ra-deva nukta-deva by rra-deva;\012";
name = nukt;
},
{
automatic = 1;

glyphs = (
{
glyphname = "ka-deva";
lastChange = "2014-09-17 07:52:25 +0530";
layers = (
{
anchors = (
{
name = bottom;
position = "{317, 5}";
},
{
name = top;
position = "{317, 447}";
}
);
background = {
paths = (
{
closed = 1;
nodes = (
"569 291 OFFCURVE",
"509 345 OFFCURVE",
"422 345 CURVE SMOOTH",
"350 345 OFFCURVE",
"317 308 OFFCURVE",
"290 290 CURVE",
"304 205 LINE",
"320 217 OFFCURVE",
"372 262 OFFCURVE",
"418 262 CURVE SMOOTH",
"463 262 OFFCURVE",
"482 236 OFFCURVE",
"482 200 CURVE SMOOTH",
"482 154 OFFCURVE",
"457 134 OFFCURVE",
"428 107 CURVE",
"489 46 LINE",
"536 85 OFFCURVE",
"569 125 OFFCURVE",
"569 199 CURVE SMOOTH"
);
},
{
closed = 1;
nodes = (
"-7 466 LINE",
"-7 396 LINE",
"615 396 LINE",
"615 466 LINE"
);
},
{
closed = 1;
nodes = (
"276 0 LINE",
"361 0 LINE",
"361 466 LINE",
"276 466 LINE"
);
},
{
closed = 1;
nodes = (
"121 245 OFFCURVE",
"160 265 OFFCURVE",
"206 265 CURVE SMOOTH",
"258 265 OFFCURVE",
"284 240 OFFCURVE",
"300 223 CURVE",
"316 304 LINE",
"289 320 OFFCURVE",
"256 345 OFFCURVE",
"192 345 CURVE SMOOTH",
"109 345 OFFCURVE",
"37 295 OFFCURVE",
"37 197 CURVE SMOOTH",
"37 103 OFFCURVE",
"109 50 OFFCURVE",
"192 50 CURVE SMOOTH",
"254 50 OFFCURVE",
"289 72 OFFCURVE",
"316 90 CURVE",
"300 170 LINE",
"284 158 OFFCURVE",
"258 129 OFFCURVE",
"206 129 CURVE SMOOTH",
"160 129 OFFCURVE",
"121 149 OFFCURVE",
"121 197 CURVE SMOOTH"
);
}
);
};
layerId = "CFA4B904-E3F1-48B6-A7F6-47DC1FF2A3E1";
name = Bold;
paths = (
{
closed = 1;
nodes = (
"561 291 OFFCURVE",
"501 340 OFFCURVE",
"419 340 CURVE SMOOTH",
"347 340 OFFCURVE",
"314 303 OFFCURVE",
"287 285 CURVE",
"301 205 LINE",
"317 217 OFFCURVE",
"369 262 OFFCURVE",
"415 262 CURVE SMOOTH",
"460 262 OFFCURVE",
"479 236 OFFCURVE",
"479 200 CURVE SMOOTH",
"479 154 OFFCURVE",
"446 127 OFFCURVE",
"425 107 CURVE",
"482 50 LINE",
"522 83 OFFCURVE",
"561 129 OFFCURVE",
"561 199 CURVE SMOOTH"
);
},
{
closed = 1;
nodes = (
"-24 466 LINE",
"-24 396 LINE",
"629 396 LINE",
"629 466 LINE"
);
},
{
closed = 1;
nodes = (
"276 0 LINE",
"358 0 LINE",
"358 466 LINE",
"276 466 LINE"
);
},
{
closed = 1;
nodes = (
"121 245 OFFCURVE",
"160 265 OFFCURVE",
"206 265 CURVE SMOOTH",
"258 265 OFFCURVE",
"284 240 OFFCURVE",
"300 223 CURVE",
"316 299 LINE",
"289 315 OFFCURVE",
"256 340 OFFCURVE",
"192 340 CURVE SMOOTH",
"109 340 OFFCURVE",
"42 290 OFFCURVE",
"42 197 CURVE SMOOTH",
"42 108 OFFCURVE",
"109 55 OFFCURVE",
"192 55 CURVE SMOOTH",
"254 55 OFFCURVE",
"289 77 OFFCURVE",
"316 95 CURVE",
"300 170 LINE",
"284 158 OFFCURVE",
"258 129 OFFCURVE",
"206 129 CURVE SMOOTH",
"160 129 OFFCURVE",
"121 149 OFFCURVE",
"121 197 CURVE SMOOTH"
);
}
);
width = 605;
}
);
unicode = 0915;
},
{
glyphname = "kha-deva";
lastChange = "2014-09-17 07:53:24 +0530";
layers = (
{
anchors = (
{
name = bottom;
position = "{514, 5}";
},
{
name = top;
position = "{514, 447}";
}
);
background = {
paths = (
{
closed = 1;
nodes = (
"469 0 LINE",
"522 0 LINE",
"522 456 LINE",
"469 456 LINE"
);
},
{
closed = 1;
nodes = (
"-27 456 LINE",
"-27 408 LINE",
"620 408 LINE",
"620 456 LINE"
);
},
{
closed = 1;
nodes = (
"88 427 OFFCURVE",
"159 403 OFFCURVE",
"159 306 CURVE SMOOTH",
"159 209 OFFCURVE",
"45 206 OFFCURVE",
"45 206 CURVE SMOOTH",
"45 206 OFFCURVE",
"67 157 OFFCURVE",
"67 157 CURVE",
"106 157 OFFCURVE",
"213 191 OFFCURVE",
"213 304 CURVE SMOOTH",
"213 412 OFFCURVE",
"140 443 OFFCURVE",
"140 443 CURVE",
"88 427 LINE"
);
},
{
closed = 1;
nodes = (
"15 212 OFFCURVE",
"210 -17 OFFCURVE",
"210 -17 CURVE SMOOTH",
"210 -17 OFFCURVE",
"254 18 OFFCURVE",
"254 18 CURVE",
"55 246 LINE",
"15 212 LINE"
);
},
{
closed = 1;
nodes = (
"241 121 OFFCURVE",
"301 70 OFFCURVE",
"384 70 CURVE SMOOTH",
"446 70 OFFCURVE",
"479 97 OFFCURVE",
"506 115 CURVE",
"492 166 LINE",
"476 154 OFFCURVE",
"450 121 OFFCURVE",
"393 121 CURVE SMOOTH",
"334 121 OFFCURVE",
"297 148 OFFCURVE",
"297 202 CURVE SMOOTH",
"297 255 OFFCURVE",
"334 283 OFFCURVE",
"388 283 CURVE SMOOTH",
"440 283 OFFCURVE",
"476 250 OFFCURVE",
"492 238 CURVE",
"506 289 LINE",
"479 307 OFFCURVE",
"436 334 OFFCURVE",
"384 334 CURVE SMOOTH",
"301 334 OFFCURVE",
"241 283 OFFCURVE",
"241 202 CURVE SMOOTH"
);
}
);
};
guideLines = (
{
angle = 90;
position = "{496, 204}";
}
);
layerId = "CFA4B904-E3F1-48B6-A7F6-47DC1FF2A3E1";
name = Bold;
paths = (
{
closed = 1;
nodes = (
"71 423 OFFCURVE",
"157 403 OFFCURVE",
"157 306 CURVE SMOOTH",
"157 217 OFFCURVE",
"48 216 OFFCURVE",
"48 216 CURVE SMOOTH",
"48 216 OFFCURVE",
"78 148 OFFCURVE",
"78 148 CURVE",
"136 148 OFFCURVE",
"235 195 OFFCURVE",
"235 304 CURVE SMOOTH",
"235 410 OFFCURVE",
"147 448 OFFCURVE",
"147 448 CURVE",
"71 423 LINE"
);
},
{
closed = 1;
nodes = (
"202 -25 LINE",
"202 -25 OFFCURVE",
"264 26 OFFCURVE",
"264 26 CURVE",
"64 254 LINE",
"6 205 LINE"
);
},
{
closed = 1;
nodes = (
"-24 466 LINE",
"-24 396 LINE",
"291 396 LINE",
"291 466 LINE"
);
},
{
closed = 1;
nodes = (
"197 466 LINE",
"197 396 LINE",
"646 396 LINE",
"646 466 LINE"
);
},
{
closed = 1;
nodes = (
"335 245 OFFCURVE",
"364 265 OFFCURVE",
"410 265 CURVE SMOOTH",
"472 265 OFFCURVE",
"498 220 OFFCURVE",
"514 203 CURVE",
"530 284 LINE",
"512 307 OFFCURVE",
"466 345 OFFCURVE",
"402 345 CURVE SMOOTH",
"319 345 OFFCURVE",
"251 295 OFFCURVE",
"251 197 CURVE SMOOTH",
"251 103 OFFCURVE",
"323 53 OFFCURVE",
"406 53 CURVE SMOOTH",
"478 53 OFFCURVE",
"503 82 OFFCURVE",
"530 100 CURVE",
"514 180 LINE",
"498 163 OFFCURVE",
"472 129 OFFCURVE",
"420 129 CURVE SMOOTH",
"374 129 OFFCURVE",
"335 149 OFFCURVE",
"335 197 CURVE SMOOTH"
);
},
{
closed = 1;
nodes = (
"472 0 LINE",
"557 0 LINE",
"557 466 LINE",
"472 466 LINE"
);
}
);
width = 622;
}
);
unicode = 0916;
},
{
glyphname = "ga-deva";
lastChange = "2014-09-17 07:54:27 +0530";
layers = (
{
anchors = (
{
name = bottom;
position = "{350, 5}";
},
{
name = top;
position = "{350, 447}";
}
);
background = {
paths = (
{
closed = 1;
nodes = (
"324 0 LINE",
"380 0 LINE",
"380 456 LINE",
"324 456 LINE"
);
},
{
closed = 1;
nodes = (
"103 151 LINE",
"158 151 LINE",
"158 456 LINE",
"103 456 LINE"
);
},
{
closed = 1;
nodes = (
"-17 456 LINE",
"-17 408 LINE",
"478 408 LINE",
"478 456 LINE"
);
},
{
closed = 1;
nodes = (
"45 215 LINE",
"45 181 LINE",
"120 90 LINE",
"120 90 OFFCURVE",
"158 90 OFFCURVE",
"158 90 CURVE",
"158 215 LINE"
);
}
);
};
layerId = "CFA4B904-E3F1-48B6-A7F6-47DC1FF2A3E1";
name = Bold;
paths = (
{
closed = 1;
nodes = (
"-24 466 LINE",
"-24 396 LINE",
"482 396 LINE",
"482 466 LINE"
);
},
{
closed = 1;
nodes = (
"308 0 LINE",
"393 0 LINE",
"393 466 LINE",
"308 466 LINE"
);
},
{
closed = 1;
nodes = (
"28 240 LINE",
"28 198 LINE",
"118 75 LINE",
"118 75 OFFCURVE",
"175 75 OFFCURVE",
"175 75 CURVE",
"175 240 LINE"
);
},
{
closed = 1;
nodes = (
"90 180 LINE",
"175 180 LINE",
"175 466 LINE",
"90 466 LINE"
);
}
);
width = 458;
}
);
unicode = 0917;
},
{
glyphname = "gha-deva";
lastChange = "2014-09-17 07:55:23 +0530";
layers = (
{
anchors = (
{
name = bottom;
position = "{379, 5}";
},
{
name = top;
position = "{379, 447}";
}
);
background = {
paths = (
{
closed = 1;
nodes = (
"220 277 LINE",
"220 277 OFFCURVE",
"121 281 OFFCURVE",
"121 354 CURVE SMOOTH",
"121 426 OFFCURVE",
"200 456 OFFCURVE",
"200 456 CURVE SMOOTH",
"94 456 LINE SMOOTH",
"94 456 OFFCURVE",
"34 422 OFFCURVE",
"34 354 CURVE SMOOTH",
"34 279 OFFCURVE",
"97 249 OFFCURVE",
"113 237 CURVE"
);
},
{
closed = 1;
nodes = (
"114 305 OFFCURVE",
"58 255 OFFCURVE",
"58 191 CURVE SMOOTH",
"58 109 OFFCURVE",
"128 58 OFFCURVE",
"224 58 CURVE SMOOTH",
"309 58 OFFCURVE",
"364 104 OFFCURVE",
"364 105 CURVE",
"364 201 LINE",
"364 201 OFFCURVE",
"311 139 OFFCURVE",
"221 139 CURVE SMOOTH",
"183 139 OFFCURVE",
"146 154 OFFCURVE",
"146 184 CURVE SMOOTH",
"146 210 OFFCURVE",
"181 229 OFFCURVE",
"248 237 CURVE",
"228 313 LINE"
);
},
{
closed = 1;
nodes = (
"-27 466 LINE",
"-27 396 LINE",
"504 396 LINE",
"504 466 LINE"
);
},
{
closed = 1;
nodes = (
"337 0 LINE",
"422 0 LINE",
"422 466 LINE",
"337 466 LINE"
);
}
);
};
layerId = "CFA4B904-E3F1-48B6-A7F6-47DC1FF2A3E1";
name = Bold;
paths = (
{
closed = 1;
nodes = (
"220 277 LINE",
"220 277 OFFCURVE",
"121 284 OFFCURVE",
"121 354 CURVE SMOOTH",
"121 426 OFFCURVE",
"200 456 OFFCURVE",
"200 456 CURVE SMOOTH",
"97 456 LINE SMOOTH",
"97 456 OFFCURVE",
"37 422 OFFCURVE",
"37 354 CURVE SMOOTH",
"37 279 OFFCURVE",
"100 249 OFFCURVE",
"116 237 CURVE"
);
},
{
closed = 1;
nodes = (
"114 294 OFFCURVE",
"61 255 OFFCURVE",
"61 191 CURVE SMOOTH",
"61 109 OFFCURVE",
"128 61 OFFCURVE",
"224 61 CURVE SMOOTH",
"309 61 OFFCURVE",
"364 107 OFFCURVE",
"364 108 CURVE",
"364 201 LINE",
"364 201 OFFCURVE",
"311 139 OFFCURVE",
"221 139 CURVE SMOOTH",
"183 139 OFFCURVE",
"146 154 OFFCURVE",
"146 184 CURVE SMOOTH",
"146 210 OFFCURVE",
"181 229 OFFCURVE",
"248 237 CURVE",
"228 310 LINE"
);
},
{
closed = 1;
nodes = (
"-24 466 LINE",
"-24 396 LINE",
"511 396 LINE",
"511 466 LINE"
);
},
{
closed = 1;
nodes = (
"337 0 LINE",
"422 0 LINE",
"422 466 LINE",
"337 466 LINE"
);
}
);
width = 487;
}
);
unicode = 0918;
},
{
glyphname = "nga-deva";
lastChange = "2014-09-19 12:34:04 +0530";
layers = (
{
anchors = (
{
name = bottom;
position = "{237, -35}";
},
{
name = top;
position = "{323, 447}";
}
);
background = {
paths = (
{
closed = 1;
nodes = (
"435 207 LINE",
"435 266 LINE",
"374 266 LINE",
"374 207 LINE"
);
},
{
closed = 1;
nodes = (
"-23 456 LINE",
"-23 408 LINE",
"501 408 LINE",
"501 456 LINE"
);
},
{
closed = 1;
nodes = (
"281 171 OFFCURVE",
"310 153 OFFCURVE",
"310 116 CURVE SMOOTH",
"310 73 OFFCURVE",
"269 52 OFFCURVE",
"225 52 CURVE SMOOTH",
"166 52 OFFCURVE",
"117 81 OFFCURVE",
"69 128 CURVE",
"35 91 LINE",
"87 38 OFFCURVE",
"150 0 OFFCURVE",
"226 0 CURVE SMOOTH",
"307 0 OFFCURVE",
"364 46 OFFCURVE",
"364 120 CURVE SMOOTH",
"364 181 OFFCURVE",
"311 220 OFFCURVE",
"239 216 CURVE SMOOTH",
"187 213 OFFCURVE",
"134 212 OFFCURVE",
"134 256 CURVE SMOOTH",
"134 284 OFFCURVE",
"157 294 OFFCURVE",
"207 294 CURVE SMOOTH",
"269 294 OFFCURVE",
"286 289 OFFCURVE",
"321 285 CURVE",
"331 292 LINE",
"331 456 LINE",
"275 456 LINE",
"275 343 LINE",
"254 345 OFFCURVE",
"242 346 OFFCURVE",
"209 346 CURVE SMOOTH",
"132 346 OFFCURVE",
"81 322 OFFCURVE",
"81 259 CURVE SMOOTH",
"81 162 OFFCURVE",
"183 161 OFFCURVE",
"221 165 CURVE SMOOTH"
);
}
);
};
components = (
{
name = "nukta-deva";
transform = "{1, 0, 0, 1, 468, 307}";
}
);
layerId = "CFA4B904-E3F1-48B6-A7F6-47DC1FF2A3E1";
name = Bold;
paths = (
{
closed = 1;
nodes = (
"300 154 OFFCURVE",
"312 133 OFFCURVE",
"312 116 CURVE SMOOTH",
"312 93 OFFCURVE",
"288 75 OFFCURVE",
"244 75 CURVE SMOOTH",
"180 75 OFFCURVE",
"138 94 OFFCURVE",
"90 141 CURVE",
"38 85 LINE",
"88 36 OFFCURVE",
"149 -3 OFFCURVE",
"237 -3 CURVE SMOOTH",
"333 -3 OFFCURVE",
"393 46 OFFCURVE",
"393 120 CURVE SMOOTH",
"393 189 OFFCURVE",
"340 230 OFFCURVE",
"247 225 CURVE SMOOTH",
"196 222 OFFCURVE",
"160 226 OFFCURVE",
"160 254 CURVE SMOOTH",
"160 272 OFFCURVE",
"176 279 OFFCURVE",
"226 279 CURVE SMOOTH",
"288 279 OFFCURVE",
"315 272 OFFCURVE",
"350 268 CURVE",
"360 275 LINE",
"360 456 LINE",
"284 456 LINE",
"284 348 LINE",
"263 350 OFFCURVE",
"251 351 OFFCURVE",
"218 351 CURVE SMOOTH",
"141 351 OFFCURVE",
"80 322 OFFCURVE",
"80 250 CURVE SMOOTH",
"80 172 OFFCURVE",
"152 144 OFFCURVE",
"240 150 CURVE SMOOTH"
);
},
{
closed = 1;
nodes = (
"-24 466 LINE",
"-24 396 LINE",
"527 396 LINE",
"527 466 LINE"
);
}
);
width = 503;
}
);
unicode = 0919;
},
{
glyphname = "ca-deva";
lastChange = "2014-09-17 07:57:06 +0530";
layers = (
{
anchors = (
{
name = bottom;
position = "{384, 5}";
},
{
name = top;
position = "{384, 447}";
}
);
background = {
paths = (
{
closed = 1;
nodes = (
"125 271 OFFCURVE",
"93 255 OFFCURVE",
"93 197 CURVE SMOOTH",
"93 109 OFFCURVE",
"163 58 OFFCURVE",
"248 58 CURVE SMOOTH",
"344 58 OFFCURVE",
"379 101 OFFCURVE",
"379 102 CURVE",
"379 201 LINE",
"379 201 OFFCURVE",
"346 139 OFFCURVE",
"256 139 CURVE SMOOTH",
"218 139 OFFCURVE",
"181 154 OFFCURVE",
"181 197 CURVE SMOOTH",
"181 230 OFFCURVE",
"195 261 OFFCURVE",
"262 269 CURVE",
"153 279 LINE"
);
},
{
closed = 1;
nodes = (
"-12 466 LINE",
"-12 396 LINE",
"509 396 LINE",
"509 466 LINE"
);
},
{
closed = 1;
nodes = (
"342 0 LINE",
"427 0 LINE",
"427 466 LINE",
"342 466 LINE"
);
},
{
closed = 1;
nodes = (
"22 306 LINE",
"22 234 LINE",
"279 234 LINE",
"279 306 LINE"
);
}
);
};
layerId = "CFA4B904-E3F1-48B6-A7F6-47DC1FF2A3E1";
name = Bold;
paths = (
{
closed = 1;
nodes = (
"128 271 OFFCURVE",
"96 255 OFFCURVE",
"96 197 CURVE SMOOTH",
"96 112 OFFCURVE",
"163 61 OFFCURVE",
"248 61 CURVE SMOOTH",
"344 61 OFFCURVE",
"379 104 OFFCURVE",
"379 105 CURVE",
"379 201 LINE",
"379 201 OFFCURVE",
"346 139 OFFCURVE",
"256 139 CURVE SMOOTH",
"218 139 OFFCURVE",
"181 154 OFFCURVE",
"181 197 CURVE SMOOTH",
"181 230 OFFCURVE",
"195 261 OFFCURVE",
"262 269 CURVE",
"156 279 LINE"
);
},
{
closed = 1;
nodes = (
"-24 466 LINE",
"-24 396 LINE",
"516 396 LINE",
"516 466 LINE"
);
},
{
closed = 1;
nodes = (
"342 0 LINE",
"427 0 LINE",
"427 466 LINE",
"342 466 LINE"
);
},
{
closed = 1;
nodes = (
"22 306 LINE",
"22 234 LINE",
"279 234 LINE",
"279 306 LINE"
);
}
);
width = 492;
}
);
unicode = 091A;
},
{
glyphname = "cha-deva";
lastChange = "2014-09-17 07:58:18 +0530";
layers = (
{
anchors = (
{
name = bottom;
position = "{271, -45}";
},
{
name = top;
position = "{423, 447}";
}
);
background = {
paths = (
{
closed = 1;
nodes = (
"575 408 LINE",
"575 456 LINE",
"-7 456 LINE",
"-7 408 LINE"
);
},
{
closed = 1;
nodes = (
"467 121 OFFCURVE",
"392 58 OFFCURVE",
"271 58 CURVE SMOOTH",
"203 58 OFFCURVE",
"135 85 OFFCURVE",
"135 154 CURVE SMOOTH",
"135 187 OFFCURVE",
"160 230 OFFCURVE",
"258 226 CURVE",
"263 226 LINE",
"263 275 LINE",
"254 275 LINE SMOOTH",
"150 274 OFFCURVE",
"143 323 OFFCURVE",
"143 344 CURVE SMOOTH",
"143 378 OFFCURVE",
"160 400 OFFCURVE",
"206 408 CURVE",
"254 456 LINE",
"219 456 OFFCURVE",
"165 444 OFFCURVE",
"134 424 CURVE SMOOTH",
"101 403 OFFCURVE",
"89 373 OFFCURVE",
"89 344 CURVE SMOOTH",
"89 305 OFFCURVE",
"107 275 OFFCURVE",
"152 252 CURVE",
"111 232 OFFCURVE",
"81 204 OFFCURVE",
"81 153 CURVE SMOOTH",
"81 64 OFFCURVE",
"158 6 OFFCURVE",
"271 6 CURVE SMOOTH",
"375 6 OFFCURVE",
"518 57 OFFCURVE",
"518 220 CURVE SMOOTH",
"518 298 OFFCURVE",
"474 349 OFFCURVE",
"417 349 CURVE SMOOTH",
"360 349 OFFCURVE",
"323 298 OFFCURVE",
"323 228 CURVE SMOOTH",
"323 137 OFFCURVE",
"375 84 OFFCURVE",
"377 69 CURVE",
"377 69 OFFCURVE",
"437 94 OFFCURVE",
"427 94 CURVE SMOOTH",
"427 94 OFFCURVE",
"374 140 OFFCURVE",
"374 228 CURVE SMOOTH",
"374 266 OFFCURVE",
"391 294 OFFCURVE",
"417 294 CURVE SMOOTH",
"439 294 OFFCURVE",
"467 273 OFFCURVE",
"467 216 CURVE SMOOTH"
);
},
{
closed = 1;
nodes = (
"398 333 LINE",
"448 333 LINE",
"448 456 LINE",
"398 456 LINE"
);
}
);
};
layerId = "CFA4B904-E3F1-48B6-A7F6-47DC1FF2A3E1";
name = Bold;
paths = (
{
closed = 1;
nodes = (
"592 396 LINE",
"592 466 LINE",
"-24 466 LINE",
"-24 396 LINE"
);
},
{
closed = 1;
nodes = (
"460 121 OFFCURVE",
"392 64 OFFCURVE",
"271 64 CURVE SMOOTH",
"196 64 OFFCURVE",
"145 99 OFFCURVE",
"145 147 CURVE SMOOTH",
"145 191 OFFCURVE",
"180 223 OFFCURVE",
"258 219 CURVE",
"263 219 LINE",
"263 282 LINE",
"254 282 LINE SMOOTH",
"160 282 OFFCURVE",
"153 323 OFFCURVE",
"153 344 CURVE SMOOTH",
"153 378 OFFCURVE",
"170 400 OFFCURVE",
"216 408 CURVE",
"254 456 LINE",
"219 456 OFFCURVE",
"145 444 OFFCURVE",
"114 424 CURVE SMOOTH",
"81 403 OFFCURVE",
"69 373 OFFCURVE",
"69 344 CURVE SMOOTH",
"69 295 OFFCURVE",
"109 260 OFFCURVE",
"134 252 CURVE",
"110 242 OFFCURVE",
"61 204 OFFCURVE",
"61 138 CURVE SMOOTH",
"61 44 OFFCURVE",
"158 -14 OFFCURVE",
"271 -14 CURVE SMOOTH",
"405 -14 OFFCURVE",
"538 57 OFFCURVE",
"538 199 CURVE SMOOTH",
"538 298 OFFCURVE",
"480 349 OFFCURVE",
"417 349 CURVE SMOOTH",
"360 349 OFFCURVE",
"303 298 OFFCURVE",
"303 211 CURVE SMOOTH",
"303 137 OFFCURVE",
"342 78 OFFCURVE",
"351 63 CURVE",
"351 63 OFFCURVE",
"427 94 OFFCURVE",
"427 94 CURVE SMOOTH",
"427 94 OFFCURVE",
"381 140 OFFCURVE",
"381 208 CURVE SMOOTH",
"381 246 OFFCURVE",
"393 274 OFFCURVE",
"419 274 CURVE SMOOTH",
"441 274 OFFCURVE",
"460 253 OFFCURVE",
"460 207 CURVE SMOOTH"
);
},
{
closed = 1;
nodes = (
"383 333 LINE",
"463 333 LINE",
"463 466 LINE",
"383 466 LINE"
);
}
);
width = 568;
}
);
unicode = 091B;
},
{
glyphname = "ja-deva";
lastChange = "2014-09-17 07:59:56 +0530";
layers = (
{
anchors = (
{
name = bottom;
position = "{459, 5}";
},
{
name = top;
position = "{459, 447}";
}
);
background = {
paths = (
{
closed = 1;
nodes = (
"-17 466 LINE",
"-17 396 LINE",
"575 396 LINE",
"575 466 LINE"
);
},
{
closed = 1;
nodes = (
"407 0 LINE",
"492 0 LINE",
"492 466 LINE",
"407 466 LINE"
);
},
{
closed = 1;
nodes = (
"238 294 LINE",
"234 223 LINE",
"442 223 LINE",
"442 294 LINE"
);
},
{
closed = 1;
nodes = (
"352 186 OFFCURVE",
"344 231 OFFCURVE",
"296 265 CURVE SMOOTH",
"285 273 OFFCURVE",
"261 286 OFFCURVE",
"248 294 CURVE",
"205 294 LINE",
"205 226 LINE",
"256 226 OFFCURVE",
"269 197 OFFCURVE",
"269 164 CURVE SMOOTH",
"269 130 OFFCURVE",
"247 107 OFFCURVE",
"211 107 CURVE SMOOTH",
"159 107 OFFCURVE",
"125 153 OFFCURVE",
"90 254 CURVE",
"17 225 LINE",
"54 104 OFFCURVE",
"112 25 OFFCURVE",
"211 25 CURVE SMOOTH",
"288 25 OFFCURVE",
"352 67 OFFCURVE",
"352 156 CURVE SMOOTH"
);
}
);
};
layerId = "CFA4B904-E3F1-48B6-A7F6-47DC1FF2A3E1";
name = Bold;
paths = (
{
closed = 1;
nodes = (
"-24 466 LINE",
"-24 396 LINE",
"591 396 LINE",
"591 466 LINE"
);
},
{
closed = 1;
nodes = (
"417 0 LINE",
"502 0 LINE",
"502 466 LINE",
"417 466 LINE"
);
},
{
closed = 1;
nodes = (
"238 292 LINE",
"234 223 LINE",
"452 223 LINE",
"452 292 LINE"
);
},
{
closed = 1;
nodes = (
"349 186 OFFCURVE",
"340 231 OFFCURVE",
"292 265 CURVE SMOOTH",
"281 273 OFFCURVE",
"261 284 OFFCURVE",
"248 292 CURVE",
"205 292 LINE",
"205 226 LINE",
"256 226 OFFCURVE",
"269 197 OFFCURVE",
"269 164 CURVE SMOOTH",
"269 130 OFFCURVE",
"247 107 OFFCURVE",
"211 107 CURVE SMOOTH",
"159 107 OFFCURVE",
"125 153 OFFCURVE",
"90 254 CURVE",
"20 226 LINE",
"57 105 OFFCURVE",
"116 28 OFFCURVE",
"211 28 CURVE SMOOTH",
"288 28 OFFCURVE",
"349 74 OFFCURVE",
"349 156 CURVE SMOOTH"
);
}
);
width = 567;
}
);
unicode = 091C;
},
{
glyphname = "jha-deva";
lastChange = "2014-09-17 08:01:09 +0530";
layers = (
{
anchors = (
{
name = bottom;
position = "{477, 5}";
},
{
name = top;
position = "{477, 447}";
}
);
background = {
paths = (
{
closed = 1;
nodes = (
"-14 456 LINE",
"-14 408 LINE",
"595 408 LINE",
"595 456 LINE"
);
},
{
closed = 1;
nodes = (
"484 237 OFFCURVE",
"461 184 OFFCURVE",
"378 184 CURVE SMOOTH",
"353 184 OFFCURVE",
"298 203 OFFCURVE",
"263 211 CURVE",
"251 168 LINE",
"287 159 OFFCURVE",
"339 136 OFFCURVE",
"389 136 CURVE SMOOTH",
"453 136 OFFCURVE",
"484 186 OFFCURVE",
"484 186 CURVE",
"484 237 LINE"
);
},
{
closed = 1;
nodes = (
"441 0 LINE",
"497 0 LINE",
"497 456 LINE",
"441 456 LINE"
);
},
{
closed = 1;
nodes = (
"111 53 LINE",
"111 53 OFFCURVE",
"206 -97 OFFCURVE",
"206 -97 CURVE SMOOTH",
"206 -97 OFFCURVE",
"254 -75 OFFCURVE",
"254 -75 CURVE",
"162 59 LINE"
);
},
{
closed = 1;
nodes = (
"59 189 OFFCURVE",
"108 163 OFFCURVE",
"157 163 CURVE SMOOTH",
"184 163 OFFCURVE",
"210 169 OFFCURVE",
"230 169 CURVE SMOOTH",
"272 169 OFFCURVE",
"289 146 OFFCURVE",
"289 116 CURVE SMOOTH",
"289 77 OFFCURVE",
"245 59 OFFCURVE",
"210 59 CURVE SMOOTH",
"190 59 OFFCURVE",
"175 59 OFFCURVE",
"158 65 CURVE",
"105 134 LINE",
"78 136 OFFCURVE",
"53 121 OFFCURVE",
"53 96 CURVE SMOOTH",
"53 36 OFFCURVE",
"147 9 OFFCURVE",
"204 9 CURVE SMOOTH",
"284 9 OFFCURVE",
"343 50 OFFCURVE",
"343 115 CURVE SMOOTH",
"343 185 OFFCURVE",
"299 222 OFFCURVE",
"232 222 CURVE SMOOTH",
"211 222 OFFCURVE",
"188 216 OFFCURVE",
"167 216 CURVE SMOOTH",
"134 216 OFFCURVE",
"112 223 OFFCURVE",
"112 256 CURVE SMOOTH",
"112 284 OFFCURVE",
"136 294 OFFCURVE",
"186 294 CURVE SMOOTH",
"248 294 OFFCURVE",
"265 289 OFFCURVE",
"300 285 CURVE",
"310 292 LINE",
"310 456 LINE",
"254 456 LINE",
"254 341 LINE",
"228 344 OFFCURVE",
"220 345 OFFCURVE",
"187 345 CURVE SMOOTH",
"114 345 OFFCURVE",
"59 323 OFFCURVE",
"59 260 CURVE SMOOTH"
);
}
);
};
layerId = "CFA4B904-E3F1-48B6-A7F6-47DC1FF2A3E1";
name = Bold;
paths = (
{
closed = 1;
nodes = (
"262 152 OFFCURVE",
"274 133 OFFCURVE",
"274 116 CURVE SMOOTH",
"274 93 OFFCURVE",
"252 70 OFFCURVE",
"188 70 CURVE SMOOTH",
"168 70 OFFCURVE",
"160 72 OFFCURVE",
"148 76 CURVE",
"99 138 LINE",
"73 138 OFFCURVE",
"37 128 OFFCURVE",
"37 86 CURVE",
"37 39 OFFCURVE",
"111 -3 OFFCURVE",
"199 -3 CURVE SMOOTH",
"295 -3 OFFCURVE",
"355 46 OFFCURVE",
"355 120 CURVE SMOOTH",
"355 189 OFFCURVE",
"301 227 OFFCURVE",
"214 223 CURVE SMOOTH",
"163 221 OFFCURVE",
"127 226 OFFCURVE",
"127 254 CURVE SMOOTH",
"127 272 OFFCURVE",
"143 279 OFFCURVE",
"193 279 CURVE SMOOTH",
"258 279 OFFCURVE",
"280 272 OFFCURVE",
"315 268 CURVE",
"325 275 LINE",
"325 456 LINE",
"249 456 LINE",
"249 348 LINE",
"228 350 OFFCURVE",
"218 351 OFFCURVE",
"185 351 CURVE SMOOTH",
"108 351 OFFCURVE",
"47 322 OFFCURVE",
"47 250 CURVE SMOOTH",
"47 172 OFFCURVE",
"114 142 OFFCURVE",
"202 148 CURVE SMOOTH"
);
},
{
closed = 1;
nodes = (
"-24 466 LINE",
"-24 396 LINE",
"411 396 LINE",
"411 466 LINE"
);
},
{
closed = 1;
nodes = (
"91 47 LINE",
"198 -119 LINE",
"268 -74 LINE",
"150 59 LINE"
);
},
{
closed = 1;
nodes = (
"366 466 LINE",
"366 396 LINE",
"609 396 LINE",
"609 466 LINE"
);
},
{
closed = 1;
nodes = (
"435 0 LINE",
"520 0 LINE",
"520 466 LINE",
"435 466 LINE"
);
},
{
closed = 1;
nodes = (
"484 236 OFFCURVE",
"451 193 OFFCURVE",
"378 193 CURVE SMOOTH",
"353 193 OFFCURVE",
"298 212 OFFCURVE",
"263 220 CURVE",
"251 155 LINE",
"287 146 OFFCURVE",
"339 123 OFFCURVE",
"389 123 CURVE SMOOTH",
"443 123 OFFCURVE",
"484 159 OFFCURVE",
"484 159 CURVE",
"484 236 LINE"
);
}
);
width = 585;
}
);
unicode = 091D;
},
{
glyphname = "nya-deva";
lastChange = "2014-09-17 08:02:40 +0530";
layers = (
{
anchors = (
{
name = bottom;
position = "{469, 5}";
},
{
name = top;
position = "{469, 447}";
}
);
background = {
paths = (
{
closed = 1;
nodes = (
"264 237 OFFCURVE",
"280 216 OFFCURVE",
"280 190 CURVE SMOOTH",
"280 154 OFFCURVE",
"261 136 OFFCURVE",
"227 136 CURVE SMOOTH",
"165 136 OFFCURVE",
"135 178 OFFCURVE",
"95 279 CURVE",
"18 248 LINE",
"70 106 OFFCURVE",
"130 48 OFFCURVE",
"229 48 CURVE SMOOTH",
"308 48 OFFCURVE",
"356 98 OFFCURVE",
"366 170 CURVE SMOOTH",
"367 174 OFFCURVE",
"369 177 OFFCURVE",
"369 181 CURVE SMOOTH",
"369 271 OFFCURVE",
"312 321 OFFCURVE",
"236 321 CURVE SMOOTH",
"199 321 OFFCURVE",
"172 310 OFFCURVE",
"149 295 CURVE",
"149 295 OFFCURVE",
"185 220 OFFCURVE",
"185 220 CURVE SMOOTH",
"185 220 OFFCURVE",
"208 237 OFFCURVE",
"232 237 CURVE SMOOTH"
);
},
{
closed = 1;
nodes = (
"462 228 OFFCURVE",
"427 210 OFFCURVE",
"397 210 CURVE SMOOTH",
"372 210 OFFCURVE",
"355 217 OFFCURVE",
"329 230 CURVE",
"325 152 LINE",
"351 144 OFFCURVE",
"370 138 OFFCURVE",
"397 138 CURVE SMOOTH",
"420 138 OFFCURVE",
"462 151 OFFCURVE",
"478 164 CURVE",
"478 241 LINE"
);
},
{
closed = 1;
nodes = (
"-7 466 LINE",
"-7 396 LINE",
"599 396 LINE",
"599 466 LINE"
);
},
{
closed = 1;
nodes = (
"427 0 LINE",
"512 0 LINE",
"512 466 LINE",
"427 466 LINE"
);
}
);
};
layerId = "CFA4B904-E3F1-48B6-A7F6-47DC1FF2A3E1";
name = Bold;
paths = (
{
closed = 1;
nodes = (
"263 241 OFFCURVE",
"284 222 OFFCURVE",
"284 190 CURVE SMOOTH",
"284 154 OFFCURVE",
"265 131 OFFCURVE",
"227 131 CURVE SMOOTH",
"165 131 OFFCURVE",
"135 178 OFFCURVE",
"95 279 CURVE",
"22 249 LINE",
"74 107 OFFCURVE",
"134 48 OFFCURVE",
"226 48 CURVE SMOOTH",
"301 48 OFFCURVE",
"356 98 OFFCURVE",
"366 170 CURVE SMOOTH",
"367 174 OFFCURVE",
"369 177 OFFCURVE",
"369 181 CURVE SMOOTH",
"369 271 OFFCURVE",
"312 321 OFFCURVE",
"236 321 CURVE SMOOTH",
"199 321 OFFCURVE",
"172 310 OFFCURVE",
"149 295 CURVE",
"149 295 OFFCURVE",
"184 224 OFFCURVE",
"184 224 CURVE SMOOTH",
"184 224 OFFCURVE",
"207 241 OFFCURVE",
"231 241 CURVE SMOOTH"
);
},
{
closed = 1;
nodes = (
"462 228 OFFCURVE",
"427 210 OFFCURVE",
"397 210 CURVE SMOOTH",
"372 210 OFFCURVE",
"355 217 OFFCURVE",
"329 230 CURVE",
"325 152 LINE",
"351 144 OFFCURVE",
"370 138 OFFCURVE",
"397 138 CURVE SMOOTH",
"420 138 OFFCURVE",
"462 151 OFFCURVE",
"478 164 CURVE",
"478 241 LINE"
);
},
{
closed = 1;
nodes = (
"-24 466 LINE",
"-24 396 LINE",
"601 396 LINE",
"601 466 LINE"
);
},
{
closed = 1;
nodes = (
"427 0 LINE",
"512 0 LINE",
"512 466 LINE",
"427 466 LINE"
);
}
);
width = 577;
}
);
unicode = 091E;
},
{
glyphname = "tta-deva";
lastChange = "2014-09-17 08:11:53 +0530";
layers = (
{
anchors = (
{
name = bottom;
position = "{218, -35}";
},
{
name = top;
position = "{293, 447}";
}
);
background = {
paths = (
{
closed = 1;
nodes = (
"309 102 OFFCURVE",
"269 81 OFFCURVE",
"219 81 CURVE SMOOTH",
"159 81 OFFCURVE",
"123 114 OFFCURVE",
"123 163 CURVE SMOOTH",
"123 210 OFFCURVE",
"155 242 OFFCURVE",
"223 242 CURVE SMOOTH",
"260 242 OFFCURVE",
"285 237 OFFCURVE",
"321 233 CURVE",
"330 240 LINE",
"330 456 LINE",
"254 456 LINE",
"254 322 LINE",
"254 322 OFFCURVE",
"229 322 OFFCURVE",
"215 322 CURVE SMOOTH",
"100 322 OFFCURVE",
"39 259 OFFCURVE",
"39 167 CURVE SMOOTH",
"39 65 OFFCURVE",
"113 -2 OFFCURVE",
"218 -2 CURVE SMOOTH",
"291 -2 OFFCURVE",
"346 27 OFFCURVE",
"370 44 CURVE",
"335 118 LINE"
);
},
{
closed = 1;
nodes = (
"-8 466 LINE",
"-8 396 LINE",
"424 396 LINE",
"424 466 LINE"
);
}
);
};
layerId = "CFA4B904-E3F1-48B6-A7F6-47DC1FF2A3E1";
name = Bold;
paths = (
{
closed = 1;
nodes = (
"309 99 OFFCURVE",
"269 78 OFFCURVE",
"219 78 CURVE SMOOTH",
"159 78 OFFCURVE",
"121 111 OFFCURVE",
"121 163 CURVE SMOOTH",
"121 213 OFFCURVE",
"155 244 OFFCURVE",
"223 244 CURVE SMOOTH",
"260 244 OFFCURVE",
"285 239 OFFCURVE",
"321 235 CURVE",
"330 242 LINE",
"330 456 LINE",
"254 456 LINE",
"254 322 LINE",
"254 322 OFFCURVE",
"229 322 OFFCURVE",
"215 322 CURVE SMOOTH",
"100 322 OFFCURVE",
"39 259 OFFCURVE",
"39 167 CURVE SMOOTH",
"39 65 OFFCURVE",
"113 -2 OFFCURVE",
"218 -2 CURVE SMOOTH",
"291 -2 OFFCURVE",
"346 27 OFFCURVE",
"370 44 CURVE",
"335 115 LINE"
);
},
{
closed = 1;
nodes = (
"-24 466 LINE",
"-24 396 LINE",
"421 396 LINE",
"421 466 LINE"
);
}
);
width = 397;
}
);
unicode = 091F;
},
{
glyphname = "ttha-deva";
lastChange = "2014-09-17 08:12:21 +0530";
layers = (
{
anchors = (
{
name = bottom;
position = "{223, -35}";
},
{
name = top;
position = "{293, 447}";
}
);
background = {
paths = (
{
closed = 1;
nodes = (
"-27 466 LINE",
"-27 396 LINE",
"449 396 LINE",
"449 466 LINE"
);
},
{
closed = 1;
nodes = (
"398 238 OFFCURVE",
"330 297 OFFCURVE",
"280 326 CURVE",
"217 262 LINE",
"253 256 OFFCURVE",
"313 215 OFFCURVE",
"313 154 CURVE SMOOTH",
"313 107 OFFCURVE",
"275 77 OFFCURVE",
"200 77 CURVE SMOOTH",
"135 77 OFFCURVE",
"102 119 OFFCURVE",
"102 169 CURVE SMOOTH",
"102 215 OFFCURVE",
"140 246 OFFCURVE",
"205 246 CURVE SMOOTH",
"303 246 LINE",
"312 244 LINE",
"312 466 LINE",
"233 466 LINE",
"233 320 LINE",
"197 320 LINE SMOOTH",
"88 320 OFFCURVE",
"20 257 OFFCURVE",
"20 167 CURVE SMOOTH",
"20 70 OFFCURVE",
"95 0 OFFCURVE",
"202 0 CURVE SMOOTH",
"337 0 OFFCURVE",
"398 80 OFFCURVE",
"398 156 CURVE SMOOTH"
);
}
);
};
layerId = "CFA4B904-E3F1-48B6-A7F6-47DC1FF2A3E1";
name = Bold;
paths = (
{
closed = 1;
nodes = (
"-24 466 LINE",
"-24 396 LINE",
"482 396 LINE",
"482 466 LINE"
);
},
{
closed = 1;
nodes = (
"419 238 OFFCURVE",
"351 297 OFFCURVE",
"301 326 CURVE",
"240 262 LINE",
"276 256 OFFCURVE",
"336 218 OFFCURVE",
"336 154 CURVE SMOOTH",
"336 105 OFFCURVE",
"296 75 OFFCURVE",
"221 75 CURVE SMOOTH",
"156 75 OFFCURVE",
"121 117 OFFCURVE",
"121 169 CURVE SMOOTH",
"121 217 OFFCURVE",
"161 248 OFFCURVE",
"226 248 CURVE SMOOTH",
"322 248 LINE",
"331 246 LINE",
"331 466 LINE",
"254 466 LINE",
"254 320 LINE",
"218 320 LINE SMOOTH",
"109 320 OFFCURVE",
"41 257 OFFCURVE",
"41 167 CURVE SMOOTH",
"41 70 OFFCURVE",
"116 0 OFFCURVE",
"223 0 CURVE SMOOTH",
"358 0 OFFCURVE",
"419 80 OFFCURVE",
"419 156 CURVE SMOOTH"
);
}
);
width = 458;
}
);
unicode = 0920;
},
{
glyphname = "dda-deva";
lastChange = "2014-09-17 08:12:33 +0530";
layers = (
{
anchors = (
{
name = bottom;
position = "{233, -35}";
},
{
name = top;
position = "{318, 447}";
}
);
background = {
paths = (
{
closed = 1;
nodes = (
"-12 456 LINE",
"-12 408 LINE",
"445 408 LINE",
"445 456 LINE"
);
},
{
closed = 1;
nodes = (
"296 171 OFFCURVE",
"325 153 OFFCURVE",
"325 116 CURVE SMOOTH",
"325 73 OFFCURVE",
"284 52 OFFCURVE",
"240 52 CURVE SMOOTH",
"181 52 OFFCURVE",
"132 81 OFFCURVE",
"84 128 CURVE",
"50 91 LINE",
"102 38 OFFCURVE",
"165 0 OFFCURVE",
"241 0 CURVE SMOOTH",
"322 0 OFFCURVE",
"379 46 OFFCURVE",
"379 120 CURVE SMOOTH",
"379 181 OFFCURVE",
"326 220 OFFCURVE",
"254 216 CURVE SMOOTH",
"202 213 OFFCURVE",
"149 212 OFFCURVE",
"149 256 CURVE SMOOTH",
"149 284 OFFCURVE",
"172 294 OFFCURVE",
"222 294 CURVE SMOOTH",
"284 294 OFFCURVE",
"301 289 OFFCURVE",
"336 285 CURVE",
"346 292 LINE",
"346 456 LINE",
"290 456 LINE",
"290 343 LINE",
"269 345 OFFCURVE",
"257 346 OFFCURVE",
"224 346 CURVE SMOOTH",
"147 346 OFFCURVE",
"96 322 OFFCURVE",
"96 259 CURVE SMOOTH",
"96 162 OFFCURVE",
"198 161 OFFCURVE",
"236 165 CURVE SMOOTH"
);
}
);
};
layerId = "CFA4B904-E3F1-48B6-A7F6-47DC1FF2A3E1";
name = Bold;
paths = (
{
closed = 1;
nodes = (
"296 154 OFFCURVE",
"308 133 OFFCURVE",
"308 116 CURVE SMOOTH",
"308 93 OFFCURVE",
"284 75 OFFCURVE",
"240 75 CURVE SMOOTH",
"176 75 OFFCURVE",
"134 94 OFFCURVE",
"86 141 CURVE",
"34 85 LINE",
"84 36 OFFCURVE",
"145 -3 OFFCURVE",
"233 -3 CURVE SMOOTH",
"329 -3 OFFCURVE",
"389 46 OFFCURVE",
"389 120 CURVE SMOOTH",
"389 189 OFFCURVE",
"336 230 OFFCURVE",
"243 225 CURVE SMOOTH",
"192 222 OFFCURVE",
"156 226 OFFCURVE",
"156 254 CURVE SMOOTH",
"156 272 OFFCURVE",
"172 279 OFFCURVE",
"222 279 CURVE SMOOTH",
"284 279 OFFCURVE",
"311 272 OFFCURVE",
"346 268 CURVE",
"356 275 LINE",
"356 456 LINE",
"280 456 LINE",
"280 348 LINE",
"259 350 OFFCURVE",
"247 351 OFFCURVE",
"214 351 CURVE SMOOTH",
"137 351 OFFCURVE",
"76 322 OFFCURVE",
"76 250 CURVE SMOOTH",
"76 172 OFFCURVE",
"148 144 OFFCURVE",
"236 150 CURVE SMOOTH"
);
},
{
closed = 1;
nodes = (
"-24 466 LINE",
"-24 396 LINE",
"457 396 LINE",
"457 466 LINE"
);
}
);
width = 433;
}
);
unicode = 0921;
},
{
glyphname = "ddha-deva";
lastChange = "2014-09-17 09:47:11 +0530";
layers = (
{
anchors = (
{
name = bottom;
position = "{220, -35}";
},
{
name = top;
position = "{294, 447}";
}
);
background = {
paths = (
{
closed = 1;
nodes = (
"-34 466 LINE",
"-34 396 LINE",
"420 396 LINE",
"420 466 LINE"
);
},
{
closed = 1;
nodes = (
"359 165 OFFCURVE",
"321 205 OFFCURVE",
"259 205 CURVE SMOOTH",
"210 205 OFFCURVE",
"163 172 OFFCURVE",
"163 111 CURVE SMOOTH",
"163 57 OFFCURVE",
"186 31 OFFCURVE",
"196 18 CURVE",
"196 18 OFFCURVE",
"289 31 OFFCURVE",
"289 31 CURVE SMOOTH",
"289 31 OFFCURVE",
"234 50 OFFCURVE",
"234 96 CURVE SMOOTH",
"234 116 OFFCURVE",
"239 133 OFFCURVE",
"259 133 CURVE SMOOTH",
"273 133 OFFCURVE",
"284 124 OFFCURVE",
"284 106 CURVE SMOOTH",
"284 87 OFFCURVE",
"264 70 OFFCURVE",
"209 69 CURVE SMOOTH",
"139 67 OFFCURVE",
"108 116 OFFCURVE",
"108 161 CURVE SMOOTH",
"108 211 OFFCURVE",
"142 247 OFFCURVE",
"198 247 CURVE SMOOTH",
"235 247 OFFCURVE",
"270 242 OFFCURVE",
"306 238 CURVE",
"315 245 LINE",
"315 466 LINE",
"239 466 LINE",
"239 326 LINE",
"213 328 OFFCURVE",
"207 328 OFFCURVE",
"193 328 CURVE SMOOTH",
"84 328 OFFCURVE",
"24 254 OFFCURVE",
"24 167 CURVE SMOOTH",
"24 67 OFFCURVE",
"100 -5 OFFCURVE",
"205 -5 CURVE SMOOTH",
"276 -5 OFFCURVE",
"359 25 OFFCURVE",
"359 114 CURVE SMOOTH"
);
}
);
};
layerId = "CFA4B904-E3F1-48B6-A7F6-47DC1FF2A3E1";
name = Bold;
paths = (
{
closed = 1;
nodes = (
"-24 466 LINE",
"-24 396 LINE",
"442 396 LINE",
"442 466 LINE"
);
},
{
closed = 1;
nodes = (
"374 165 OFFCURVE",
"336 205 OFFCURVE",
"274 205 CURVE SMOOTH",
"225 205 OFFCURVE",
"178 172 OFFCURVE",
"178 111 CURVE SMOOTH",
"178 57 OFFCURVE",
"201 31 OFFCURVE",
"211 18 CURVE",
"211 18 OFFCURVE",
"304 31 OFFCURVE",
"304 31 CURVE SMOOTH",
"304 31 OFFCURVE",
"249 50 OFFCURVE",
"249 96 CURVE SMOOTH",
"249 116 OFFCURVE",
"254 133 OFFCURVE",
"274 133 CURVE SMOOTH",
"288 133 OFFCURVE",
"299 124 OFFCURVE",
"299 106 CURVE SMOOTH",
"299 87 OFFCURVE",
"279 67 OFFCURVE",
"224 66 CURVE SMOOTH",
"154 64 OFFCURVE",
"120 112 OFFCURVE",
"120 161 CURVE SMOOTH",
"120 215 OFFCURVE",
"157 250 OFFCURVE",
"213 250 CURVE SMOOTH",
"250 250 OFFCURVE",
"285 245 OFFCURVE",
"321 241 CURVE",
"330 248 LINE",
"330 466 LINE",
"254 466 LINE",
"254 326 LINE",
"228 328 OFFCURVE",
"222 328 OFFCURVE",
"208 328 CURVE SMOOTH",
"99 328 OFFCURVE",
"39 254 OFFCURVE",
"39 167 CURVE SMOOTH",
"39 67 OFFCURVE",
"115 -5 OFFCURVE",
"220 -5 CURVE SMOOTH",
"291 -5 OFFCURVE",
"374 25 OFFCURVE",
"374 114 CURVE SMOOTH"
);
}
);
width = 418;
}
);
unicode = 0922;
},
{
glyphname = "nna-deva";
lastChange = "2014-09-17 09:48:08 +0530";
layers = (
{
anchors = (
{
name = bottom;
position = "{468, 5}";
},
{
name = top;
position = "{468, 447}";
}
);
background = {
paths = (
{
closed = 1;
nodes = (
"423 0 LINE",
"479 0 LINE",
"479 456 LINE",
"423 456 LINE"
);
},
{
closed = 1;
nodes = (
"-21 456 LINE",
"-21 408 LINE",
"577 408 LINE",
"577 456 LINE"
);
},
{
closed = 1;
nodes = (
"271 80 OFFCURVE",
"320 128 OFFCURVE",
"320 224 CURVE SMOOTH",
"320 436 LINE",
"264 436 LINE",
"264 228 LINE SMOOTH",
"264 164 OFFCURVE",
"244 133 OFFCURVE",
"193 133 CURVE SMOOTH",
"142 133 OFFCURVE",
"122 164 OFFCURVE",
"122 228 CURVE SMOOTH",
"122 436 LINE",
"66 436 LINE",
"66 224 LINE SMOOTH",
"66 127 OFFCURVE",
"111 80 OFFCURVE",
"194 80 CURVE SMOOTH"
);
},
{
closed = 1;
nodes = (
"346 216 OFFCURVE",
"292 169 OFFCURVE",
"208 169 CURVE SMOOTH",
"154 169 OFFCURVE",
"137 204 OFFCURVE",
"137 260 CURVE SMOOTH",
"137 456 LINE",
"52 456 LINE",
"52 234 LINE SMOOTH",
"52 154 OFFCURVE",
"110 93 OFFCURVE",
"210 93 CURVE SMOOTH",
"283 93 OFFCURVE",
"346 133 OFFCURVE",
"346 133 CURVE",
"346 216 LINE"
);
},
{
closed = 1;
nodes = (
"291 0 LINE",
"376 0 LINE",
"376 466 LINE",
"291 466 LINE"
);
},
{
closed = 1;
nodes = (
"-30 466 LINE",
"-30 396 LINE",
"474 396 LINE",
"474 466 LINE"
);
}
);
};
layerId = "CFA4B904-E3F1-48B6-A7F6-47DC1FF2A3E1";
name = Bold;
paths = (
{
closed = 1;
nodes = (
"426 0 LINE",
"511 0 LINE",
"511 466 LINE",
"426 466 LINE"
);
},
{
closed = 1;
nodes = (
"-24 466 LINE",
"-24 396 LINE",
"600 396 LINE",
"600 466 LINE"
);
},
{
closed = 1;
nodes = (
"288 78 OFFCURVE",
"340 131 OFFCURVE",
"340 227 CURVE SMOOTH",
"340 436 LINE",
"251 436 LINE",
"251 260 LINE SMOOTH",
"251 196 OFFCURVE",
"249 161 OFFCURVE",
"200 161 CURVE SMOOTH",
"151 161 OFFCURVE",
"149 196 OFFCURVE",
"149 260 CURVE SMOOTH",
"149 436 LINE",
"60 436 LINE",
"60 227 LINE SMOOTH",
"60 130 OFFCURVE",
"108 78 OFFCURVE",
"201 78 CURVE SMOOTH"
);
}
);
width = 576;
}
);
unicode = 0923;
},
{
glyphname = "ta-deva";
lastChange = "2014-09-17 07:26:12 +0530";
layers = (
{
anchors = (
{
name = bottom;
position = "{330, 5}";
},
{
name = top;
position = "{340, 447}";
}
);
background = {
paths = (
{
closed = 1;
nodes = (
"328 305 OFFCURVE",
"275 305 OFFCURVE",
"191 305 CURVE SMOOTH",
"93 305 OFFCURVE",
"38 272 OFFCURVE",
"38 185 CURVE SMOOTH",
"38 118 OFFCURVE",
"81 43 OFFCURVE",
"117 -17 CURVE",
"187 24 LINE",
"159 73 OFFCURVE",
"125 132 OFFCURVE",
"125 177 CURVE SMOOTH",
"125 215 OFFCURVE",
"146 227 OFFCURVE",
"216 227 CURVE SMOOTH",
"328 227 LINE",
"328 305 LINE"
);
}
);
};
guideLines = (
{
angle = 90;
position = "{340, 92}";
}
);
layerId = "CFA4B904-E3F1-48B6-A7F6-47DC1FF2A3E1";
name = Bold;
paths = (
{
closed = 1;
nodes = (
"-24 466 LINE",
"-24 396 LINE",
"462 396 LINE",
"462 466 LINE"
);
},
{
closed = 1;
nodes = (
"288 0 LINE",
"373 0 LINE",
"373 466 LINE",
"288 466 LINE"
);
},
{
closed = 1;
nodes = (
"358 305 OFFCURVE",
"275 305 OFFCURVE",
"191 305 CURVE SMOOTH",
"93 305 OFFCURVE",
"38 272 OFFCURVE",
"38 185 CURVE SMOOTH",
"38 118 OFFCURVE",
"85 38 OFFCURVE",
"121 -22 CURVE",
"191 19 LINE",
"163 68 OFFCURVE",
"123 132 OFFCURVE",
"123 177 CURVE SMOOTH",
"123 215 OFFCURVE",
"146 227 OFFCURVE",
"216 227 CURVE SMOOTH",
"358 227 LINE",
"358 305 LINE"
);
}
);
width = 438;
}
);
unicode = 0924;
},
{
glyphname = "tha-deva";
lastChange = "2014-09-16 10:13:42 +0530";
layers = (
{
anchors = (
{
name = bottom;
position = "{383, 5}";
},
{
name = top;
position = "{383, 447}";
}
);
background = {
paths = (
{
closed = 1;
nodes = (
"340 0 LINE",
"396 0 LINE",
"396 456 LINE",
"340 456 LINE"
);
},
{
closed = 1;
nodes = (
"270 456 LINE",
"270 408 LINE",
"494 408 LINE",
"494 456 LINE"
);
},
{
closed = 1;
nodes = (
"234 402 OFFCURVE",
"203 467 OFFCURVE",
"131 467 CURVE SMOOTH",
"86 467 OFFCURVE",
"36 436 OFFCURVE",
"36 379 CURVE SMOOTH",
"36 340 OFFCURVE",
"59 302 OFFCURVE",
"108 279 CURVE",
"137 321 LINE",
"113 335 OFFCURVE",
"90 351 OFFCURVE",
"90 379 CURVE SMOOTH",
"90 399 OFFCURVE",
"110 414 OFFCURVE",
"129 414 CURVE SMOOTH",
"164 414 OFFCURVE",
"182 380 OFFCURVE",
"182 342 CURVE SMOOTH",
"182 269 OFFCURVE",
"89 230 OFFCURVE",
"57 213 CURVE",
"46 182 LINE",
"73 136 OFFCURVE",
"134 84 OFFCURVE",
"225 84 CURVE SMOOTH",
"297 84 OFFCURVE",
"350 124 OFFCURVE",
"350 127 CURVE",
"350 197 LINE",
"324 160 OFFCURVE",
"271 138 OFFCURVE",
"220 138 CURVE SMOOTH",
"179 138 OFFCURVE",
"138 153 OFFCURVE",
"113 183 CURVE",
"151 211 OFFCURVE",
"234 253 OFFCURVE",
"234 342 CURVE SMOOTH"
);
}
);
};
layerId = "CFA4B904-E3F1-48B6-A7F6-47DC1FF2A3E1";
name = Bold;
paths = (
{
closed = 1;
nodes = (
"164 405 OFFCURVE",
"177 377 OFFCURVE",
"177 350 CURVE SMOOTH",
"177 280 OFFCURVE",
"105 247 OFFCURVE",
"49 217 CURVE",
"36 182 LINE",
"63 136 OFFCURVE",
"138 74 OFFCURVE",
"229 74 CURVE SMOOTH",
"301 74 OFFCURVE",
"354 116 OFFCURVE",
"354 116 CURVE",
"354 224 LINE",
"328 179 OFFCURVE",
"275 156 OFFCURVE",
"224 156 CURVE SMOOTH",
"192 156 OFFCURVE",
"166 167 OFFCURVE",
"147 181 CURVE",
"209 228 OFFCURVE",
"257 269 OFFCURVE",
"257 346 CURVE SMOOTH",
"257 410 OFFCURVE",
"217 478 OFFCURVE",
"138 478 CURVE",
"71 478 OFFCURVE",
"30 434 OFFCURVE",
"30 379 CURVE",
"30 327 OFFCURVE",
"63 301 OFFCURVE",
"94 284 CURVE",
"134 341 LINE",
"121 350 OFFCURVE",
"106 361 OFFCURVE",
"106 379 CURVE",
"106 392 OFFCURVE",
"113 405 OFFCURVE",
"136 405 CURVE"
);
},
{
closed = 1;
nodes = (
"295 466 LINE",
"295 396 LINE",
"515 396 LINE",
"515 466 LINE"
);
},
{
closed = 1;
nodes = (
"341 0 LINE",
"426 0 LINE",
"426 466 LINE",
"341 466 LINE"
);
}
);
width = 491;
}
);
unicode = 0925;
},
{
glyphname = "da-deva";
lastChange = "2014-09-17 09:51:08 +0530";
layers = (
{
anchors = (
{
name = bottom;
position = "{339, -23}";
},
{
name = top;
position = "{296, 447}";
}
);
background = {
paths = (
{
closed = 1;
nodes = (
"282 104 LINE",
"257 91 OFFCURVE",
"235 78 OFFCURVE",
"201 78 CURVE SMOOTH",
"139 78 OFFCURVE",
"104 114 OFFCURVE",
"104 163 CURVE SMOOTH",
"104 210 OFFCURVE",
"139 242 OFFCURVE",
"207 242 CURVE SMOOTH",
"244 242 OFFCURVE",
"269 237 OFFCURVE",
"305 233 CURVE",
"314 240 LINE",
"314 456 LINE",
"238 456 LINE",
"238 322 LINE",
"238 322 OFFCURVE",
"213 322 OFFCURVE",
"199 322 CURVE SMOOTH",
"84 322 OFFCURVE",
"20 259 OFFCURVE",
"20 167 CURVE SMOOTH",
"20 65 OFFCURVE",
"97 -2 OFFCURVE",
"200 -2 CURVE SMOOTH",
"252 -2 OFFCURVE",
"287 17 OFFCURVE",
"316 32 CURVE"
);
},
{
closed = 1;
nodes = (
"-24 466 LINE",
"-24 396 LINE",
"438 396 LINE",
"438 466 LINE"
);
},
{
closed = 1;
nodes = (
"263 44 OFFCURVE",
"278 30 OFFCURVE",
"291 31 CURVE SMOOTH",
"311 32 OFFCURVE",
"351 58 OFFCURVE",
"351 100 CURVE SMOOTH",
"351 132 OFFCURVE",
"331 163 OFFCURVE",
"287 163 CURVE SMOOTH",
"242 163 OFFCURVE",
"216 130 OFFCURVE",
"216 130 CURVE",
"254 49 LINE"
);
},
{
closed = 1;
nodes = (
"250 56 LINE",
"250 56 OFFCURVE",
"324 -82 OFFCURVE",
"324 -82 CURVE SMOOTH",
"324 -82 OFFCURVE",
"395 -43 OFFCURVE",
"395 -43 CURVE",
"313 88 LINE"
);
}
);
};
layerId = "CFA4B904-E3F1-48B6-A7F6-47DC1FF2A3E1";
name = Bold;
paths = (
{
closed = 1;
nodes = (
"301 102 LINE",
"276 89 OFFCURVE",
"254 76 OFFCURVE",
"220 76 CURVE SMOOTH",
"158 76 OFFCURVE",
"121 111 OFFCURVE",
"121 163 CURVE SMOOTH",
"121 213 OFFCURVE",
"158 244 OFFCURVE",
"226 244 CURVE SMOOTH",
"263 244 OFFCURVE",
"288 239 OFFCURVE",
"324 235 CURVE",
"333 242 LINE",
"333 456 LINE",
"257 456 LINE",
"257 322 LINE",
"257 322 OFFCURVE",
"232 322 OFFCURVE",
"218 322 CURVE SMOOTH",
"103 322 OFFCURVE",
"39 259 OFFCURVE",
"39 167 CURVE SMOOTH",
"39 65 OFFCURVE",
"116 -2 OFFCURVE",
"219 -2 CURVE SMOOTH",
"271 -2 OFFCURVE",
"306 17 OFFCURVE",
"335 32 CURVE"
);
},
{
closed = 1;
nodes = (
"-24 466 LINE",
"-24 396 LINE",
"454 396 LINE",
"454 466 LINE"
);
},
{
closed = 1;
nodes = (
"282 44 OFFCURVE",
"297 30 OFFCURVE",
"310 31 CURVE SMOOTH",
"330 32 OFFCURVE",
"370 58 OFFCURVE",
"370 100 CURVE SMOOTH",
"370 132 OFFCURVE",
"350 163 OFFCURVE",
"306 163 CURVE SMOOTH",
"261 163 OFFCURVE",
"235 130 OFFCURVE",
"235 130 CURVE",
"273 49 LINE"
);
},
{
closed = 1;
nodes = (
"269 56 LINE",
"269 56 OFFCURVE",
"343 -82 OFFCURVE",
"343 -82 CURVE SMOOTH",
"343 -82 OFFCURVE",
"412 -44 OFFCURVE",
"412 -44 CURVE",
"330 87 LINE"
);
}
);
width = 430;
}
);
unicode = 0926;
},
{
glyphname = "dha-deva";
lastChange = "2014-09-17 09:51:44 +0530";
layers = (
{
anchors = (
{
name = bottom;
position = "{387, 5}";
},
{
name = top;
position = "{387, 447}";
}
);
background = {
paths = (
{
closed = 1;
nodes = (
"73 486 OFFCURVE",
"32 426 OFFCURVE",
"32 362 CURVE",
"32 279 OFFCURVE",
"105 239 OFFCURVE",
"121 227 CURVE",
"228 267 LINE",
"228 267 OFFCURVE",
"119 291 OFFCURVE",
"119 371 CURVE",
"119 396 OFFCURVE",
"127 417 OFFCURVE",
"154 417 CURVE",
"167 417 OFFCURVE",
"176 409 OFFCURVE",
"176 397 CURVE",
"176 385 OFFCURVE",
"170 375 OFFCURVE",
"157 363 CURVE",
"212 316 LINE",
"233 338 OFFCURVE",
"253 361 OFFCURVE",
"253 396 CURVE",
"253 441 OFFCURVE",
"220 486 OFFCURVE",
"152 486 CURVE"
);
},
{
closed = 1;
nodes = (
"125 284 OFFCURVE",
"66 240 OFFCURVE",
"66 176 CURVE SMOOTH",
"66 94 OFFCURVE",
"136 48 OFFCURVE",
"232 48 CURVE SMOOTH",
"317 48 OFFCURVE",
"372 94 OFFCURVE",
"372 95 CURVE",
"372 191 LINE",
"372 191 OFFCURVE",
"319 129 OFFCURVE",
"229 129 CURVE SMOOTH",
"191 129 OFFCURVE",
"154 139 OFFCURVE",
"154 169 CURVE SMOOTH",
"154 195 OFFCURVE",
"199 204 OFFCURVE",
"266 212 CURVE",
"249 292 LINE"
);
},
{
closed = 1;
nodes = (
"282 466 LINE",
"282 396 LINE",
"512 396 LINE",
"512 466 LINE"
);
},
{
closed = 1;
nodes = (
"345 0 LINE",
"430 0 LINE",
"430 466 LINE",
"345 466 LINE"
);
}
);
};
layerId = "CFA4B904-E3F1-48B6-A7F6-47DC1FF2A3E1";
name = Bold;
paths = (
{
closed = 1;
nodes = (
"73 486 OFFCURVE",
"35 426 OFFCURVE",
"35 369 CURVE",
"35 283 OFFCURVE",
"108 239 OFFCURVE",
"124 227 CURVE",
"219 267 LINE",
"219 267 OFFCURVE",
"119 291 OFFCURVE",
"119 371 CURVE",
"119 396 OFFCURVE",
"127 417 OFFCURVE",
"154 417 CURVE",
"167 417 OFFCURVE",
"176 409 OFFCURVE",
"176 397 CURVE",
"176 385 OFFCURVE",
"170 375 OFFCURVE",
"157 363 CURVE",
"210 318 LINE",
"231 340 OFFCURVE",
"250 364 OFFCURVE",
"250 396 CURVE",
"250 441 OFFCURVE",
"220 486 OFFCURVE",
"152 486 CURVE"
);
},
{
closed = 1;
nodes = (
"127 277 OFFCURVE",
"68 236 OFFCURVE",
"68 176 CURVE SMOOTH",
"68 97 OFFCURVE",
"136 50 OFFCURVE",
"232 50 CURVE SMOOTH",
"317 50 OFFCURVE",
"372 88 OFFCURVE",
"372 89 CURVE",
"372 183 LINE",
"372 183 OFFCURVE",
"329 129 OFFCURVE",
"229 129 CURVE SMOOTH",
"191 129 OFFCURVE",
"154 139 OFFCURVE",
"154 169 CURVE SMOOTH",
"154 195 OFFCURVE",
"199 204 OFFCURVE",
"266 212 CURVE",
"251 285 LINE"
);
},
{
closed = 1;
nodes = (
"282 466 LINE",
"282 396 LINE",
"519 396 LINE",
"519 466 LINE"
);
},
{
closed = 1;
nodes = (
"345 0 LINE",
"430 0 LINE",
"430 466 LINE",
"345 466 LINE"
);
}
);
width = 495;
}
);
unicode = 0927;
},
{
glyphname = "na-deva";
lastChange = "2014-09-17 10:12:03 +0530";
layers = (
{
anchors = (
{
name = bottom;
position = "{324, 5}";
},
{
name = top;
position = "{324, 447}";
}
);
background = {
paths = (
{
closed = 1;
nodes = (
"277 0 LINE",
"333 0 LINE",
"333 456 LINE",
"277 456 LINE"
);
},
{
closed = 1;
nodes = (
"-24 456 LINE",
"-24 408 LINE",
"431 408 LINE",
"431 456 LINE"
);
},
{
closed = 1;
nodes = (
"34 256 LINE",
"34 224 LINE",
"85 117 LINE",
"85 117 OFFCURVE",
"125 117 OFFCURVE",
"125 117 CURVE",
"125 256 LINE"
);
},
{
closed = 1;
nodes = (
"91 256 LINE",
"91 208 LINE",
"311 208 LINE",
"311 256 LINE"
);
}
);
};
layerId = "CFA4B904-E3F1-48B6-A7F6-47DC1FF2A3E1";
name = Bold;
paths = (
{
closed = 1;
nodes = (
"281 0 LINE",
"366 0 LINE",
"366 466 LINE",
"281 466 LINE"
);
},
{
closed = 1;
nodes = (
"-24 466 LINE",
"-24 396 LINE",
"455 396 LINE",
"455 466 LINE"
);
},
{
closed = 1;
nodes = (
"44 270 LINE",
"34 228 LINE",
"95 95 LINE",
"95 95 OFFCURVE",
"152 95 OFFCURVE",
"152 95 CURVE",
"152 270 LINE"
);
},
{
closed = 1;
nodes = (
"91 270 LINE",
"91 192 LINE",
"316 192 LINE",
"316 270 LINE"
);
}
);
width = 431;
}
);
unicode = 0928;
},
{
glyphname = "nnna-deva";
lastChange = "2014-09-19 12:34:04 +0530";
layers = (
{
anchors = (
{
name = bottom;
position = "{324, 5}";
},
{
name = top;
position = "{324, 447}";
}
);
background = {
paths = (
{
closed = 1;
nodes = (
"278 0 LINE",
"363 0 LINE",
"363 466 LINE",
"278 466 LINE"
);
},
{
closed = 1;
nodes = (
"-27 466 LINE",
"-27 396 LINE",
"432 396 LINE",
"432 466 LINE"
);
},
{
closed = 1;
nodes = (
"31 275 LINE",
"31 233 LINE",
"92 105 LINE",
"92 105 OFFCURVE",
"149 105 OFFCURVE",
"149 105 CURVE",
"149 275 LINE"
);
},
{
closed = 1;
nodes = (
"88 275 LINE",
"88 197 LINE",
"313 197 LINE",
"313 275 LINE"
);
}
);
};
components = (
{
name = "nukta-deva";
transform = "{1, 0, 0, 1, 207, 84}";
}
);
layerId = "CFA4B904-E3F1-48B6-A7F6-47DC1FF2A3E1";
name = Bold;
paths = (
{
closed = 1;
nodes = (
"281 0 LINE",
"366 0 LINE",
"366 466 LINE",
"281 466 LINE"
);
},
{
closed = 1;
nodes = (
"-24 466 LINE",
"-24 396 LINE",
"455 396 LINE",
"455 466 LINE"
);
},
{
closed = 1;
nodes = (
"44 280 LINE",
"34 238 LINE",
"95 105 LINE",
"95 105 OFFCURVE",
"152 105 OFFCURVE",
"152 105 CURVE",
"152 280 LINE"
);
},
{
closed = 1;
nodes = (
"91 280 LINE",
"91 202 LINE",
"316 202 LINE",
"316 280 LINE"
);
}
);
width = 431;
}
);
unicode = 0929;
},
{
glyphname = "pa-deva";
lastChange = "2014-09-17 09:52:13 +0530";
layers = (
{
anchors = (
{
name = bottom;
position = "{341, 5}";
},
{
name = top;
position = "{341, 447}";
}
);
background = {
paths = (
{
closed = 1;
nodes = (
"304 0 LINE",
"360 0 LINE",
"360 456 LINE",
"304 456 LINE"
);
},
{
closed = 1;
nodes = (
"-27 456 LINE",
"-27 408 LINE",
"458 408 LINE",
"458 456 LINE"
);
},
{
closed = 1;
nodes = (
"340 190 OFFCURVE",
"276 153 OFFCURVE",
"202 153 CURVE SMOOTH",
"148 153 OFFCURVE",
"111 188 OFFCURVE",
"111 244 CURVE SMOOTH",
"111 456 LINE",
"55 456 LINE",
"55 244 LINE SMOOTH",
"55 164 OFFCURVE",
"104 103 OFFCURVE",
"204 103 CURVE SMOOTH",
"267 103 OFFCURVE",
"340 133 OFFCURVE",
"340 133 CURVE",
"340 190 LINE"
);
}
);
};
layerId = "CFA4B904-E3F1-48B6-A7F6-47DC1FF2A3E1";
name = Bold;
paths = (
{
closed = 1;
nodes = (
"354 222 OFFCURVE",
"310 169 OFFCURVE",
"216 169 CURVE SMOOTH",
"162 169 OFFCURVE",
"145 202 OFFCURVE",
"145 260 CURVE SMOOTH",
"145 456 LINE",
"60 456 LINE",
"60 238 LINE SMOOTH",
"60 157 OFFCURVE",
"118 91 OFFCURVE",
"218 91 CURVE SMOOTH",
"291 91 OFFCURVE",
"354 131 OFFCURVE",
"354 131 CURVE",
"354 222 LINE"
);
},
{
closed = 1;
nodes = (
"299 0 LINE",
"384 0 LINE",
"384 466 LINE",
"299 466 LINE"
);
},
{
closed = 1;
nodes = (
"-24 466 LINE",
"-24 396 LINE",
"474 396 LINE",
"474 466 LINE"
);
}
);
width = 450;
}
);
unicode = 092A;
},
{
glyphname = "pha-deva";
lastChange = "2014-09-17 09:52:44 +0530";
layers = (
{
anchors = (
{
name = bottom;
position = "{340, 5}";
},
{
name = top;
position = "{340, 447}";
}
);
background = {
paths = (
{
closed = 1;
nodes = (
"349 216 OFFCURVE",
"295 169 OFFCURVE",
"211 169 CURVE SMOOTH",
"157 169 OFFCURVE",
"140 204 OFFCURVE",
"140 260 CURVE SMOOTH",
"140 456 LINE",
"55 456 LINE",
"55 234 LINE SMOOTH",
"55 154 OFFCURVE",
"113 93 OFFCURVE",
"213 93 CURVE SMOOTH",
"286 93 OFFCURVE",
"349 133 OFFCURVE",
"349 133 CURVE",
"349 216 LINE"
);
},
{
closed = 1;
nodes = (
"294 0 LINE",
"379 0 LINE",
"379 466 LINE",
"294 466 LINE"
);
},
{
closed = 1;
nodes = (
"-27 466 LINE",
"-27 396 LINE",
"657 396 LINE",
"657 466 LINE"
);
},
{
closed = 1;
nodes = (
"603 291 OFFCURVE",
"549 345 OFFCURVE",
"462 345 CURVE SMOOTH",
"390 345 OFFCURVE",
"357 308 OFFCURVE",
"330 290 CURVE",
"344 206 LINE",
"360 218 OFFCURVE",
"402 267 OFFCURVE",
"458 267 CURVE SMOOTH",
"503 267 OFFCURVE",
"522 236 OFFCURVE",
"522 200 CURVE SMOOTH",
"522 154 OFFCURVE",
"497 134 OFFCURVE",
"468 107 CURVE",
"528 50 LINE",
"572 88 OFFCURVE",
"603 128 OFFCURVE",
"603 199 CURVE SMOOTH"
);
}
);
};
layerId = "CFA4B904-E3F1-48B6-A7F6-47DC1FF2A3E1";
name = Bold;
paths = (
{
closed = 1;
nodes = (
"354 216 OFFCURVE",
"300 169 OFFCURVE",
"216 169 CURVE SMOOTH",
"162 169 OFFCURVE",
"145 204 OFFCURVE",
"145 260 CURVE SMOOTH",
"145 456 LINE",
"60 456 LINE",
"60 234 LINE SMOOTH",
"60 154 OFFCURVE",
"118 93 OFFCURVE",
"218 93 CURVE SMOOTH",
"291 93 OFFCURVE",
"354 133 OFFCURVE",
"354 133 CURVE",
"354 216 LINE"
);
},
{
closed = 1;
nodes = (
"299 0 LINE",
"381 0 LINE",
"381 466 LINE",
"299 466 LINE"
);
},
{
closed = 1;
nodes = (
"-24 466 LINE",
"-24 396 LINE",
"674 396 LINE",
"674 466 LINE"
);
},
{
closed = 1;
nodes = (
"606 296 OFFCURVE",
"546 345 OFFCURVE",
"464 345 CURVE SMOOTH",
"392 345 OFFCURVE",
"359 308 OFFCURVE",
"332 290 CURVE",
"346 210 LINE",
"362 222 OFFCURVE",
"414 267 OFFCURVE",
"460 267 CURVE SMOOTH",
"505 267 OFFCURVE",
"524 241 OFFCURVE",
"524 205 CURVE SMOOTH",
"524 159 OFFCURVE",
"491 132 OFFCURVE",
"470 112 CURVE",
"527 55 LINE",
"567 88 OFFCURVE",
"606 134 OFFCURVE",
"606 204 CURVE SMOOTH"
);
}
);
width = 653;
}
);
unicode = 092B;
},
{
glyphname = "ba-deva";
lastChange = "2014-09-17 09:54:51 +0530";
layers = (
{
anchors = (
{
name = bottom;
position = "{327, 5}";
},
{
name = top;
position = "{327, 447}";
}
);
background = {
paths = (
{
closed = 1;
nodes = (
"-27 466 LINE",
"-27 396 LINE",
"442 396 LINE",
"442 466 LINE"
);
},
{
closed = 1;
nodes = (
"98 245 OFFCURVE",
"140 268 OFFCURVE",
"186 268 CURVE SMOOTH",
"238 268 OFFCURVE",
"264 240 OFFCURVE",
"280 223 CURVE",
"296 304 LINE",
"269 320 OFFCURVE",
"236 345 OFFCURVE",
"172 345 CURVE SMOOTH",
"89 345 OFFCURVE",
"17 295 OFFCURVE",
"17 197 CURVE SMOOTH",
"17 103 OFFCURVE",
"89 50 OFFCURVE",
"172 50 CURVE SMOOTH",
"234 50 OFFCURVE",
"269 72 OFFCURVE",
"296 90 CURVE",
"280 170 LINE",
"264 158 OFFCURVE",
"238 125 OFFCURVE",
"186 125 CURVE SMOOTH",
"140 125 OFFCURVE",
"98 149 OFFCURVE",
"98 197 CURVE SMOOTH"
);
},
{
closed = 1;
nodes = (
"268 0 LINE",
"353 0 LINE",
"353 466 LINE",
"268 466 LINE"
);
},
{
closed = 1;
nodes = (
"255 90 LINE",
"297 130 LINE",
"128 306 LINE",
"79 270 LINE"
);
}
);
};
layerId = "CFA4B904-E3F1-48B6-A7F6-47DC1FF2A3E1";
name = Bold;
paths = (
{
closed = 1;
nodes = (
"-24 466 LINE",
"-24 396 LINE",
"459 396 LINE",
"459 466 LINE"
);
},
{
closed = 1;
nodes = (
"115 245 OFFCURVE",
"157 268 OFFCURVE",
"203 268 CURVE SMOOTH",
"255 268 OFFCURVE",
"281 241 OFFCURVE",
"297 228 CURVE",
"313 301 LINE",
"286 317 OFFCURVE",
"253 342 OFFCURVE",
"189 342 CURVE SMOOTH",
"106 342 OFFCURVE",
"37 292 OFFCURVE",
"37 197 CURVE SMOOTH",
"37 106 OFFCURVE",
"106 53 OFFCURVE",
"189 53 CURVE SMOOTH",
"251 53 OFFCURVE",
"286 75 OFFCURVE",
"313 93 CURVE",
"297 170 LINE",
"281 158 OFFCURVE",
"255 125 OFFCURVE",
"203 125 CURVE SMOOTH",
"157 125 OFFCURVE",
"115 149 OFFCURVE",
"115 197 CURVE SMOOTH"
);
},
{
closed = 1;
nodes = (
"285 0 LINE",
"370 0 LINE",
"370 466 LINE",
"285 466 LINE"
);
},
{
closed = 1;
nodes = (
"272 90 LINE",
"314 130 LINE",
"145 306 LINE",
"96 270 LINE"
);
}
);
width = 435;
}
);
unicode = 092C;
},
{
glyphname = "bha-deva";
lastChange = "2014-09-17 09:55:31 +0530";
layers = (
{
anchors = (
{
name = bottom;
position = "{425, 5}";
},
{
name = top;
position = "{425, 447}";
}
);
background = {
paths = (
{
closed = 1;
nodes = (
"385 0 LINE",
"470 0 LINE",
"470 466 LINE",
"385 466 LINE"
);
},
{
closed = 1;
nodes = (
"247 125 LINE",
"247 310 LINE SMOOTH",
"247 422 OFFCURVE",
"207 479 OFFCURVE",
"123 479 CURVE SMOOTH",
"54 479 OFFCURVE",
"9 434 OFFCURVE",
"9 369 CURVE SMOOTH",
"9 317 OFFCURVE",
"43 277 OFFCURVE",
"92 251 CURVE",
"130 311 LINE",
"106 325 OFFCURVE",
"83 341 OFFCURVE",
"83 369 CURVE SMOOTH",
"83 389 OFFCURVE",
"97 403 OFFCURVE",
"116 403 CURVE SMOOTH",
"162 403 OFFCURVE",
"157 329 OFFCURVE",
"157 310 CURVE SMOOTH",
"157 125 LINE"
);
},
{
closed = 1;
nodes = (
"304 466 LINE",
"304 396 LINE",
"554 396 LINE",
"554 466 LINE"
);
},
{
closed = 1;
nodes = (
"216 206 LINE",
"216 128 LINE",
"445 128 LINE",
"445 206 LINE"
);
},
{
closed = 1;
nodes = (
"91 206 LINE",
"91 164 LINE",
"190 41 LINE",
"190 41 OFFCURVE",
"247 41 OFFCURVE",
"247 41 CURVE",
"247 206 LINE"
);
}
);
};
layerId = "CFA4B904-E3F1-48B6-A7F6-47DC1FF2A3E1";
name = Bold;
paths = (
{
closed = 1;
nodes = (
"382 0 LINE",
"467 0 LINE",
"467 466 LINE",
"382 466 LINE"
);
},
{
closed = 1;
nodes = (
"247 125 LINE",
"247 310 LINE SMOOTH",
"247 422 OFFCURVE",
"210 479 OFFCURVE",
"126 479 CURVE SMOOTH",
"57 479 OFFCURVE",
"12 434 OFFCURVE",
"12 369 CURVE SMOOTH",
"12 317 OFFCURVE",
"46 277 OFFCURVE",
"95 251 CURVE",
"133 311 LINE",
"109 325 OFFCURVE",
"86 341 OFFCURVE",
"86 369 CURVE SMOOTH",
"86 389 OFFCURVE",
"100 403 OFFCURVE",
"119 403 CURVE SMOOTH",
"165 403 OFFCURVE",
"160 329 OFFCURVE",
"160 310 CURVE SMOOTH",
"160 125 LINE"
);
},
{
closed = 1;
nodes = (
"301 466 LINE",
"301 396 LINE",
"556 396 LINE",
"556 466 LINE"
);
},
{
closed = 1;
nodes = (
"213 206 LINE",
"213 131 LINE",
"442 131 LINE",
"442 206 LINE"
);
},
{
closed = 1;
nodes = (
"94 206 LINE",
"94 164 LINE",
"193 41 LINE",
"193 41 OFFCURVE",
"247 41 OFFCURVE",
"247 41 CURVE",
"247 206 LINE"
);
}
);
width = 532;
}
);
unicode = 092D;
},
{
glyphname = "ma-deva";
lastChange = "2014-09-17 10:14:58 +0530";
layers = (
{
anchors = (
{
name = bottom;
position = "{391, 5}";
},
{
name = top;
position = "{391, 447}";
}
);
background = {
paths = (
{
closed = 1;
nodes = (
"338 0 LINE",
"394 0 LINE",
"394 456 LINE",
"338 456 LINE"
);
},
{
closed = 1;
nodes = (
"101 140 LINE",
"156 140 LINE",
"156 456 LINE",
"101 456 LINE"
);
},
{
closed = 1;
nodes = (
"-19 456 LINE",
"-19 408 LINE",
"492 408 LINE",
"492 456 LINE"
);
},
{
closed = 1;
nodes = (
"39 204 LINE",
"39 171 LINE",
"118 76 LINE",
"118 76 OFFCURVE",
"156 76 OFFCURVE",
"156 76 CURVE",
"156 204 LINE"
);
},
{
closed = 1;
nodes = (
"124 204 LINE",
"124 156 LINE",
"384 156 LINE",
"384 204 LINE"
);
},
{
closed = 1;
nodes = (
"338 0 LINE",
"394 0 LINE",
"394 456 LINE",
"338 456 LINE"
);
},
{
closed = 1;
nodes = (
"101 140 LINE",
"156 140 LINE",
"156 456 LINE",
"101 456 LINE"
);
},
{
closed = 1;
nodes = (
"-19 456 LINE",
"-19 408 LINE",
"492 408 LINE",
"492 456 LINE"
);
},
{
closed = 1;
nodes = (
"39 204 LINE",
"39 171 LINE",
"118 76 LINE",
"156 76 LINE",
"156 204 LINE"
);
},
{
closed = 1;
nodes = (
"124 204 LINE",
"124 156 LINE",
"384 156 LINE",
"384 204 LINE"
);
}
);
};
layerId = "CFA4B904-E3F1-48B6-A7F6-47DC1FF2A3E1";
name = Bold;
paths = (
{
closed = 1;
nodes = (
"349 0 LINE",
"434 0 LINE",
"434 466 LINE",
"349 466 LINE"
);
},
{
closed = 1;
nodes = (
"-24 466 LINE",
"-24 396 LINE",
"523 396 LINE",
"523 466 LINE"
);
},
{
closed = 1;
nodes = (
"39 216 LINE",
"39 174 LINE",
"138 51 LINE",
"138 51 OFFCURVE",
"195 51 OFFCURVE",
"195 51 CURVE",
"195 216 LINE"
);
},
{
closed = 1;
nodes = (
"134 216 LINE",
"134 138 LINE",
"387 138 LINE",
"387 216 LINE"
);
},
{
closed = 1;
nodes = (
"110 138 LINE",
"195 138 LINE",
"195 466 LINE",
"110 466 LINE"
);
}
);
width = 499;
}
);
unicode = 092E;
},
{
glyphname = "ya-deva";
lastChange = "2014-09-17 10:16:17 +0530";
layers = (
{
anchors = (
{
name = bottom;
position = "{356, 5}";
},
{
name = top;
position = "{356, 447}";
}
);
background = {
paths = (
{
closed = 1;
nodes = (
"326 179 OFFCURVE",
"273 156 OFFCURVE",
"222 156 CURVE SMOOTH",
"188 156 OFFCURVE",
"161 169 OFFCURVE",
"142 184 CURVE",
"184 225 OFFCURVE",
"206 253 OFFCURVE",
"206 306 CURVE SMOOTH",
"206 356 OFFCURVE",
"172 414 OFFCURVE",
"118 456 CURVE",
"20 456 LINE",
"80 414 OFFCURVE",
"124 356 OFFCURVE",
"120 307 CURVE SMOOTH",
"116 258 OFFCURVE",
"79 234 OFFCURVE",
"47 217 CURVE",
"34 182 LINE",
"61 128 OFFCURVE",
"136 73 OFFCURVE",
"227 73 CURVE SMOOTH",
"299 73 OFFCURVE",
"352 115 OFFCURVE",
"352 115 CURVE",
"352 224 LINE"
);
},
{
closed = 1;
nodes = (
"-24 466 LINE",
"-24 396 LINE",
"483 396 LINE",
"483 466 LINE"
);
},
{
closed = 1;
nodes = (
"314 0 LINE",
"399 0 LINE",
"399 466 LINE",
"314 466 LINE"
);
}
);
};
layerId = "CFA4B904-E3F1-48B6-A7F6-47DC1FF2A3E1";
name = Bold;
paths = (
{
closed = 1;
nodes = (
"326 179 OFFCURVE",
"273 156 OFFCURVE",
"222 156 CURVE SMOOTH",
"188 156 OFFCURVE",
"161 169 OFFCURVE",
"142 184 CURVE",
"184 225 OFFCURVE",
"206 253 OFFCURVE",
"206 306 CURVE SMOOTH",
"206 356 OFFCURVE",
"172 414 OFFCURVE",
"118 456 CURVE",
"20 456 LINE",
"80 414 OFFCURVE",
"124 356 OFFCURVE",
"120 307 CURVE SMOOTH",
"116 258 OFFCURVE",
"79 234 OFFCURVE",
"47 217 CURVE",
"34 185 LINE",
"61 131 OFFCURVE",
"136 76 OFFCURVE",
"227 76 CURVE SMOOTH",
"299 76 OFFCURVE",
"352 118 OFFCURVE",
"352 118 CURVE",
"352 224 LINE"
);
},
{
closed = 1;
nodes = (
"-24 466 LINE",
"-24 396 LINE",
"488 396 LINE",
"488 466 LINE"
);
},
{
closed = 1;
nodes = (
"314 0 LINE",
"399 0 LINE",
"399 466 LINE",
"314 466 LINE"
);
}
);
width = 464;
}
);
unicode = 092F;
},
{
glyphname = "ra-deva";
lastChange = "2014-09-17 10:13:51 +0530";
layers = (
{
anchors = (
{
name = top;
position = "{150, 447}";
}
);
background = {
paths = (
{
closed = 1;
nodes = (
"-21 456 LINE",
"-21 408 LINE",
"298 408 LINE",
"298 456 LINE"
);
},
{
closed = 1;
nodes = (
"84 427 OFFCURVE",
"155 403 OFFCURVE",
"155 306 CURVE SMOOTH",
"155 209 OFFCURVE",
"41 206 OFFCURVE",
"41 206 CURVE SMOOTH",
"41 206 OFFCURVE",
"63 157 OFFCURVE",
"63 157 CURVE",
"102 157 OFFCURVE",
"209 191 OFFCURVE",
"209 304 CURVE SMOOTH",
"209 412 OFFCURVE",
"136 443 OFFCURVE",
"136 443 CURVE",
"84 427 LINE"
);
},
{
closed = 1;
nodes = (
"-27 456 LINE",
"-27 408 LINE",
"290 408 LINE",
"290 456 LINE"
);
},
{
closed = 1;
nodes = (
"84 427 OFFCURVE",
"155 403 OFFCURVE",
"155 306 CURVE SMOOTH",
"155 209 OFFCURVE",
"41 206 OFFCURVE",
"41 206 CURVE SMOOTH",
"41 206 OFFCURVE",
"63 157 OFFCURVE",
"63 157 CURVE",
"102 157 OFFCURVE",
"209 191 OFFCURVE",
"209 304 CURVE SMOOTH",
"209 412 OFFCURVE",
"136 443 OFFCURVE",
"136 443 CURVE",
"84 427 LINE"
);
},
{
closed = 1;
nodes = (
"11 212 OFFCURVE",
"181 -13 OFFCURVE",
"181 -13 CURVE SMOOTH",
"181 -13 OFFCURVE",
"228 19 OFFCURVE",
"228 19 CURVE",
"52 244 LINE",
"11 212 LINE"
);
}
);
};
layerId = "CFA4B904-E3F1-48B6-A7F6-47DC1FF2A3E1";
name = Bold;
paths = (
{
closed = 1;
nodes = (
"92 423 OFFCURVE",
"172 403 OFFCURVE",
"172 306 CURVE SMOOTH",
"172 217 OFFCURVE",
"69 216 OFFCURVE",
"69 216 CURVE SMOOTH",
"69 216 OFFCURVE",
"99 148 OFFCURVE",
"99 148 CURVE",
"157 148 OFFCURVE",
"256 195 OFFCURVE",
"256 304 CURVE SMOOTH",
"256 410 OFFCURVE",
"178 448 OFFCURVE",
"178 448 CURVE",
"92 423 LINE"
);
},
{
closed = 1;
nodes = (
"195 -20 LINE",
"195 -20 OFFCURVE",
"263 27 OFFCURVE",
"263 27 CURVE",
"85 254 LINE",
"22 205 LINE"
);
},
{
closed = 1;
nodes = (
"-24 466 LINE",
"-24 396 LINE",
"339 396 LINE",
"339 466 LINE"
);
}
);
width = 315;
}
);
unicode = 0930;
},
{
glyphname = "rra-deva";
lastChange = "2014-09-19 12:34:04 +0530";
layers = (
{
anchors = (
{
name = top;
position = "{150, 447}";
}
);
background = {
paths = (
{
closed = 1;
nodes = (
"9 0 LINE",
"68 0 LINE",
"68 58 LINE",
"9 58 LINE"
);
}
);
};
components = (
{
name = "ra-deva";
transform = "{1, 0, 0, 1, 0, 0}";
},
{
name = "nukta-deva";
transform = "{1, 0, 0, 1, 60, 88}";
}
);
layerId = "CFA4B904-E3F1-48B6-A7F6-47DC1FF2A3E1";
name = Bold;
width = 315;
}
);
unicode = 0931;
},
{
glyphname = "la-deva";
lastChange = "2014-09-17 10:17:16 +0530";
layers = (
{
anchors = (
{
name = bottom;
position = "{438, 5}";
},
{
name = top;
position = "{438, 447}";
}
);
background = {
paths = (
{
closed = 1;
nodes = (
"396 0 LINE",
"480 0 LINE",
"480 466 LINE",
"396 466 LINE"
);
},
{
closed = 1;
nodes = (
"-22 466 LINE",
"-22 396 LINE",
"562 396 LINE",
"562 466 LINE"
);
},
{
closed = 1;
nodes = (
"279 280 OFFCURVE",
"239 314 OFFCURVE",
"174 314 CURVE SMOOTH",
"99 314 OFFCURVE",
"39 263 OFFCURVE",
"39 172 CURVE SMOOTH",
"39 74 OFFCURVE",
"137 -23 OFFCURVE",
"137 -23 CURVE",
"218 13 LINE",
"197 35 OFFCURVE",
"128 111 OFFCURVE",
"128 169 CURVE SMOOTH",
"128 208 OFFCURVE",
"144 228 OFFCURVE",
"184 228 CURVE SMOOTH",
"225 228 OFFCURVE",
"249 181 OFFCURVE",
"249 181 CURVE",
"307 239 LINE"
);
},
{
closed = 1;
nodes = (
"225 118 OFFCURVE",
"311 105 OFFCURVE",
"311 105 CURVE",
"310 115 OFFCURVE",
"308 140 OFFCURVE",
"308 162 CURVE SMOOTH",
"308 207 OFFCURVE",
"333 230 OFFCURVE",
"369 229 CURVE SMOOTH",
"394 228 OFFCURVE",
"416 219 OFFCURVE",
"434 205 CURVE",
"428 297 LINE",
"405 310 OFFCURVE",
"384 312 OFFCURVE",
"365 312 CURVE SMOOTH",
"289 312 OFFCURVE",
"222 271 OFFCURVE",
"222 169 CURVE SMOOTH",
"222 159 OFFCURVE",
"223 128 OFFCURVE",
"225 118 CURVE"
);
}
);
};
layerId = "CFA4B904-E3F1-48B6-A7F6-47DC1FF2A3E1";
name = Bold;
paths = (
{
closed = 1;
nodes = (
"396 0 LINE",
"480 0 LINE",
"480 466 LINE",
"396 466 LINE"
);
},
{
closed = 1;
nodes = (
"-24 466 LINE",
"-24 396 LINE",
"569 396 LINE",
"569 466 LINE"
);
},
{
closed = 1;
nodes = (
"279 277 OFFCURVE",
"239 311 OFFCURVE",
"174 311 CURVE SMOOTH",
"99 311 OFFCURVE",
"42 259 OFFCURVE",
"42 172 CURVE SMOOTH",
"42 74 OFFCURVE",
"140 -23 OFFCURVE",
"140 -23 CURVE",
"215 12 LINE",
"194 34 OFFCURVE",
"126 111 OFFCURVE",
"126 169 CURVE SMOOTH",
"126 208 OFFCURVE",
"142 230 OFFCURVE",
"184 230 CURVE SMOOTH",
"225 230 OFFCURVE",
"249 183 OFFCURVE",
"249 183 CURVE",
"307 236 LINE"
);
},
{
closed = 1;
nodes = (
"228 118 OFFCURVE",
"309 105 OFFCURVE",
"309 105 CURVE",
"308 115 OFFCURVE",
"306 140 OFFCURVE",
"306 162 CURVE SMOOTH",
"306 207 OFFCURVE",
"330 232 OFFCURVE",
"369 231 CURVE SMOOTH",
"394 230 OFFCURVE",
"416 221 OFFCURVE",
"434 207 CURVE",
"428 294 LINE",
"405 307 OFFCURVE",
"384 309 OFFCURVE",
"365 309 CURVE SMOOTH",
"289 309 OFFCURVE",
"225 271 OFFCURVE",
"225 169 CURVE SMOOTH",
"225 159 OFFCURVE",
"226 128 OFFCURVE",
"228 118 CURVE"
);
}
);
width = 545;
}
);
unicode = 0932;
},
{
glyphname = "va-deva";
lastChange = "2014-09-17 10:17:32 +0530";
layers = (
{
anchors = (
{
name = bottom;
position = "{318, 5}";
},
{
name = top;
position = "{318, 447}";
}
);
background = {
paths = (
{
closed = 1;
nodes = (
"-9 466 LINE",
"-9 396 LINE",
"450 396 LINE",
"450 466 LINE"
);
},
{
closed = 1;
nodes = (
"119 245 OFFCURVE",
"158 265 OFFCURVE",
"204 265 CURVE SMOOTH",
"256 265 OFFCURVE",
"282 240 OFFCURVE",
"298 223 CURVE",
"314 304 LINE",
"287 320 OFFCURVE",
"254 345 OFFCURVE",
"190 345 CURVE SMOOTH",
"107 345 OFFCURVE",
"35 295 OFFCURVE",
"35 197 CURVE SMOOTH",
"35 103 OFFCURVE",
"107 50 OFFCURVE",
"190 50 CURVE SMOOTH",
"252 50 OFFCURVE",
"287 72 OFFCURVE",
"314 90 CURVE",
"298 170 LINE",
"282 158 OFFCURVE",
"256 129 OFFCURVE",
"204 129 CURVE SMOOTH",
"158 129 OFFCURVE",
"119 149 OFFCURVE",
"119 197 CURVE SMOOTH"
);
},
{
closed = 1;
nodes = (
"276 0 LINE",
"361 0 LINE",
"361 466 LINE",
"276 466 LINE"
);
}
);
};
layerId = "CFA4B904-E3F1-48B6-A7F6-47DC1FF2A3E1";
name = Bold;
paths = (
{
closed = 1;
nodes = (
"-24 466 LINE",
"-24 396 LINE",
"450 396 LINE",
"450 466 LINE"
);
},
{
closed = 1;
nodes = (
"119 245 OFFCURVE",
"158 265 OFFCURVE",
"204 265 CURVE SMOOTH",
"256 265 OFFCURVE",
"282 240 OFFCURVE",
"298 223 CURVE",
"314 302 LINE",
"287 318 OFFCURVE",
"254 343 OFFCURVE",
"190 343 CURVE SMOOTH",
"107 343 OFFCURVE",
"37 294 OFFCURVE",
"37 197 CURVE SMOOTH",
"37 104 OFFCURVE",
"107 52 OFFCURVE",
"190 52 CURVE SMOOTH",
"252 52 OFFCURVE",
"287 74 OFFCURVE",
"314 92 CURVE",
"298 170 LINE",
"282 158 OFFCURVE",
"256 129 OFFCURVE",
"204 129 CURVE SMOOTH",
"158 129 OFFCURVE",
"119 149 OFFCURVE",
"119 197 CURVE SMOOTH"
);
},
{
closed = 1;
nodes = (
"276 0 LINE",
"361 0 LINE",
"361 466 LINE",
"276 466 LINE"
);
}
);
width = 426;
}
);
unicode = 0935;
},
{
glyphname = "sha-deva";
lastChange = "2014-09-17 10:17:54 +0530";
layers = (
{
anchors = (
{
name = bottom;
position = "{455, 5}";
},
{
name = top;
position = "{455, 447}";
}
);
background = {
paths = (
{
closed = 1;
nodes = (
"282 414 OFFCURVE",
"229 466 OFFCURVE",
"165 466 CURVE SMOOTH",
"106 466 OFFCURVE",
"62 425 OFFCURVE",
"62 368 CURVE SMOOTH",
"62 329 OFFCURVE",
"85 297 OFFCURVE",
"134 268 CURVE",
"163 311 LINE",
"139 326 OFFCURVE",
"115 343 OFFCURVE",
"115 368 CURVE SMOOTH",
"115 398 OFFCURVE",
"137 413 OFFCURVE",
"165 413 CURVE SMOOTH",
"201 413 OFFCURVE",
"226 379 OFFCURVE",
"229 329 CURVE SMOOTH",
"234 233 OFFCURVE",
"132 193 OFFCURVE",
"97 174 CURVE",
"139 137 LINE",
"202 175 OFFCURVE",
"282 223 OFFCURVE",
"282 332 CURVE SMOOTH"
);
},
{
closed = 1;
nodes = (
"35 155 OFFCURVE",
"66 130 OFFCURVE",
"110 131 CURVE",
"243 -15 LINE",
"243 -15 OFFCURVE",
"281 21 OFFCURVE",
"281 21 CURVE",
"75 239 LINE",
"48 230 OFFCURVE",
"35 211 OFFCURVE",
"35 191 CURVE SMOOTH"
);
},
{
closed = 1;
nodes = (
"314 456 LINE",
"314 408 LINE",
"560 408 LINE",
"560 456 LINE"
);
},
{
closed = 1;
nodes = (
"406 0 LINE",
"462 0 LINE",
"462 456 LINE",
"406 456 LINE"
);
}
);
};
layerId = "CFA4B904-E3F1-48B6-A7F6-47DC1FF2A3E1";
name = Bold;
paths = (
{
closed = 1;
nodes = (
"305 426 OFFCURVE",
"248 479 OFFCURVE",
"174 479 CURVE SMOOTH",
"115 479 OFFCURVE",
"60 443 OFFCURVE",
"60 373 CURVE SMOOTH",
"60 323 OFFCURVE",
"88 291 OFFCURVE",
"137 262 CURVE",
"177 322 LINE",
"153 340 OFFCURVE",
"140 351 OFFCURVE",
"140 372 CURVE SMOOTH",
"140 392 OFFCURVE",
"153 403 OFFCURVE",
"174 403 CURVE SMOOTH",
"200 403 OFFCURVE",
"222 379 OFFCURVE",
"224 348 CURVE SMOOTH",
"230 253 OFFCURVE",
"132 200 OFFCURVE",
"97 181 CURVE",
"152 118 LINE",
"215 159 OFFCURVE",
"305 225 OFFCURVE",
"305 338 CURVE SMOOTH"
);
},
{
closed = 1;
nodes = (
"30 155 OFFCURVE",
"54 123 OFFCURVE",
"112 117 CURVE",
"235 -23 LINE",
"235 -23 OFFCURVE",
"292 32 OFFCURVE",
"292 32 CURVE",
"86 250 LINE",
"53 245 OFFCURVE",
"30 221 OFFCURVE",
"30 191 CURVE SMOOTH"
);
},
{
closed = 1;
nodes = (
"339 466 LINE",
"339 396 LINE",
"586 396 LINE",
"586 466 LINE"
);
},
{
closed = 1;
nodes = (
"412 0 LINE",
"497 0 LINE",
"497 466 LINE",
"412 466 LINE"
);
}
);
width = 562;
}
);
unicode = 0936;
},
{
glyphname = "ssa-deva";
lastChange = "2014-09-17 10:19:08 +0530";
layers = (
{
anchors = (
{
name = bottom;
position = "{351, 5}";
},
{
name = top;
position = "{351, 447}";
}
);
background = {
paths = (
{
closed = 1;
nodes = (
"312 0 LINE",
"368 0 LINE",
"368 456 LINE",
"312 456 LINE"
);
},
{
closed = 1;
nodes = (
"-27 456 LINE",
"-27 408 LINE",
"466 408 LINE",
"466 456 LINE"
);
},
{
closed = 1;
nodes = (
"340 190 OFFCURVE",
"276 153 OFFCURVE",
"202 153 CURVE SMOOTH",
"148 153 OFFCURVE",
"111 188 OFFCURVE",
"111 244 CURVE SMOOTH",
"111 341 LINE SMOOTH",
"111 384 OFFCURVE",
"91 456 OFFCURVE",
"91 456 CURVE SMOOTH",
"55 456 LINE",
"55 244 LINE SMOOTH",
"55 164 OFFCURVE",
"104 103 OFFCURVE",
"204 103 CURVE SMOOTH",
"267 103 OFFCURVE",
"340 133 OFFCURVE",
"340 133 CURVE",
"340 190 LINE"
);
},
{
closed = 1;
nodes = (
"294 146 LINE",
"325 178 LINE",
"119 430 LINE",
"81 402 LINE"
);
}
);
};
layerId = "CFA4B904-E3F1-48B6-A7F6-47DC1FF2A3E1";
name = Bold;
paths = (
{
closed = 1;
nodes = (
"354 216 OFFCURVE",
"300 169 OFFCURVE",
"216 169 CURVE SMOOTH",
"162 169 OFFCURVE",
"145 204 OFFCURVE",
"145 260 CURVE SMOOTH",
"145 313 LINE",
"145 367 OFFCURVE",
"112 402 OFFCURVE",
"95 456 CURVE",
"60 456 LINE",
"60 234 LINE SMOOTH",
"60 154 OFFCURVE",
"118 93 OFFCURVE",
"218 93 CURVE SMOOTH",
"291 93 OFFCURVE",
"354 133 OFFCURVE",
"354 133 CURVE",
"354 216 LINE"
);
},
{
closed = 1;
nodes = (
"309 0 LINE",
"394 0 LINE",
"394 466 LINE",
"309 466 LINE"
);
},
{
closed = 1;
nodes = (
"-24 466 LINE",
"-24 396 LINE",
"483 396 LINE",
"483 466 LINE"
);
},
{
closed = 1;
nodes = (
"146 336 OFFCURVE",
"217 250 OFFCURVE",
"288 165 CURVE",
"335 207 LINE",
"129 459 LINE",
"75 421 LINE"
);
}
);
width = 459;
}
);
unicode = 0937;
},
{
glyphname = "sa-deva";
lastChange = "2014-09-17 10:20:13 +0530";
layers = (
{
anchors = (
{
name = bottom;
position = "{436, 5}";
},
{
name = top;
position = "{436, 447}";
}
);
background = {
paths = (
{
closed = 1;
nodes = (
"103 427 OFFCURVE",
"174 403 OFFCURVE",
"174 306 CURVE SMOOTH",
"174 209 OFFCURVE",
"60 206 OFFCURVE",
"60 206 CURVE SMOOTH",
"60 206 OFFCURVE",
"82 157 OFFCURVE",
"82 157 CURVE",
"121 157 OFFCURVE",
"228 191 OFFCURVE",
"228 304 CURVE SMOOTH",
"228 412 OFFCURVE",
"155 443 OFFCURVE",
"155 443 CURVE",
"103 427 LINE"
);
},
{
closed = 1;
nodes = (
"30 212 OFFCURVE",
"202 -18 OFFCURVE",
"202 -18 CURVE SMOOTH",
"202 -18 OFFCURVE",
"249 14 OFFCURVE",
"249 14 CURVE",
"71 244 LINE",
"30 212 LINE"
);
},
{
closed = 1;
nodes = (
"401 0 LINE",
"457 0 LINE",
"457 456 LINE",
"401 456 LINE"
);
},
{
closed = 1;
nodes = (
"421 237 OFFCURVE",
"378 216 OFFCURVE",
"295 216 CURVE SMOOTH",
"259 216 OFFCURVE",
"203 220 OFFCURVE",
"157 239 CURVE",
"133 192 LINE",
"191 172 OFFCURVE",
"242 162 OFFCURVE",
"284 162 CURVE SMOOTH",
"370 162 OFFCURVE",
"421 180 OFFCURVE",
"421 180 CURVE",
"421 237 LINE"
);
},
{
closed = 1;
nodes = (
"-2 456 LINE",
"-2 408 LINE",
"555 408 LINE",
"555 456 LINE"
);
},
{
closed = 1;
nodes = (
"401 0 LINE",
"457 0 LINE",
"457 456 LINE",
"401 456 LINE"
);
},
{
closed = 1;
nodes = (
"109 427 OFFCURVE",
"180 403 OFFCURVE",
"180 306 CURVE SMOOTH",
"180 209 OFFCURVE",
"66 206 OFFCURVE",
"66 206 CURVE SMOOTH",
"66 206 OFFCURVE",
"88 157 OFFCURVE",
"88 157 CURVE",
"127 157 OFFCURVE",
"234 191 OFFCURVE",
"234 304 CURVE SMOOTH",
"234 412 OFFCURVE",
"161 443 OFFCURVE",
"161 443 CURVE",
"109 427 LINE"
);
},
{
closed = 1;
nodes = (
"36 212 OFFCURVE",
"208 -18 OFFCURVE",
"208 -18 CURVE SMOOTH",
"208 -18 OFFCURVE",
"255 14 OFFCURVE",
"255 14 CURVE",
"77 244 LINE",
"36 212 LINE"
);
},
{
closed = 1;
nodes = (
"407 0 LINE",
"463 0 LINE",
"463 456 LINE",
"407 456 LINE"
);
},
{
closed = 1;
nodes = (
"427 237 OFFCURVE",
"384 216 OFFCURVE",
"301 216 CURVE SMOOTH",
"265 216 OFFCURVE",
"209 220 OFFCURVE",
"163 239 CURVE",
"139 192 LINE",
"197 172 OFFCURVE",
"248 162 OFFCURVE",
"290 162 CURVE SMOOTH",
"376 162 OFFCURVE",
"427 180 OFFCURVE",
"427 180 CURVE",
"427 237 LINE"
);
},
{
closed = 1;
nodes = (
"-2 456 LINE",
"-2 408 LINE",
"561 408 LINE",
"561 456 LINE"
);
},
{
closed = 1;
nodes = (
"407 0 LINE",
"463 0 LINE",
"463 456 LINE",
"407 456 LINE"
);
}
);
};
layerId = "CFA4B904-E3F1-48B6-A7F6-47DC1FF2A3E1";
name = Bold;
paths = (
{
closed = 1;
nodes = (
"-24 466 LINE",
"-24 396 LINE",
"567 396 LINE",
"567 466 LINE"
);
},
{
closed = 1;
nodes = (
"393 0 LINE",
"478 0 LINE",
"478 466 LINE",
"393 466 LINE"
);
},
{
closed = 1;
nodes = (
"427 248 OFFCURVE",
"384 223 OFFCURVE",
"312 223 CURVE SMOOTH",
"245 223 OFFCURVE",
"234 233 OFFCURVE",
"198 248 CURVE",
"139 190 LINE",
"197 160 OFFCURVE",
"258 148 OFFCURVE",
"300 148 CURVE SMOOTH",
"366 148 OFFCURVE",
"427 167 OFFCURVE",
"427 167 CURVE",
"427 248 LINE"
);
},
{
closed = 1;
nodes = (
"102 423 OFFCURVE",
"176 403 OFFCURVE",
"176 306 CURVE SMOOTH",
"176 217 OFFCURVE",
"69 216 OFFCURVE",
"69 216 CURVE SMOOTH",
"69 216 OFFCURVE",
"99 147 OFFCURVE",
"99 147 CURVE",
"157 147 OFFCURVE",
"256 195 OFFCURVE",
"256 304 CURVE SMOOTH",
"256 410 OFFCURVE",
"183 448 OFFCURVE",
"183 448 CURVE",
"102 423 LINE"
);
},
{
closed = 1;
nodes = (
"195 -20 LINE",
"195 -20 OFFCURVE",
"263 27 OFFCURVE",
"263 27 CURVE",
"85 254 LINE",
"22 205 LINE"
);
}
);
width = 543;
}
);
unicode = 0938;
},
{
glyphname = "ha-deva";
lastChange = "2014-09-16 10:14:52 +0530";
layers = (
{
anchors = (
{
name = top;
position = "{300, 447}";
}
);
background = {
paths = (
{
closed = 1;
nodes = (
"-7 466 LINE",
"-7 396 LINE",
"439 396 LINE",
"439 466 LINE"
);
},
{
closed = 1;
nodes = (
"173 198 OFFCURVE",
"138 213 OFFCURVE",
"138 242 CURVE SMOOTH",
"138 265 OFFCURVE",
"164 274 OFFCURVE",
"217 274 CURVE SMOOTH",
"271 274 OFFCURVE",
"292 269 OFFCURVE",
"327 265 CURVE",
"337 272 LINE",
"337 466 LINE",
"261 466 LINE",
"261 342 LINE",
"245 345 OFFCURVE",
"223 346 OFFCURVE",
"210 346 CURVE SMOOTH",
"117 346 OFFCURVE",
"61 319 OFFCURVE",
"61 246 CURVE SMOOTH",
"61 201 OFFCURVE",
"82 177 OFFCURVE",
"113 144 CURVE",
"174 198 LINE"
);
},
{
closed = 1;
nodes = (
"62 -24 OFFCURVE",
"155 -78 OFFCURVE",
"306 -78 CURVE",
"322 -8 LINE",
"215 -8 OFFCURVE",
"135 18 OFFCURVE",
"135 78 CURVE SMOOTH",
"135 121 OFFCURVE",
"174 147 OFFCURVE",
"230 147 CURVE",
"261 145 OFFCURVE",
"286 137 OFFCURVE",
"286 112 CURVE SMOOTH",
"286 96 OFFCURVE",
"279 87 OFFCURVE",
"272 78 CURVE",
"333 34 LINE",
"349 53 OFFCURVE",
"365 77 OFFCURVE",
"365 111 CURVE SMOOTH",
"365 182 OFFCURVE",
"304 219 OFFCURVE",
"224 219 CURVE SMOOTH",
"185 219 OFFCURVE",
"158 208 OFFCURVE",
"132 195 CURVE SMOOTH",
"90 174 OFFCURVE",
"62 132 OFFCURVE",
"62 80 CURVE SMOOTH"
);
}
);
};
layerId = "CFA4B904-E3F1-48B6-A7F6-47DC1FF2A3E1";
name = Bold;
paths = (
{
closed = 1;
nodes = (
"-24 466 LINE",
"-24 396 LINE",
"446 396 LINE",
"446 466 LINE"
);
},
{
closed = 1;
nodes = (
"175 198 OFFCURVE",
"141 213 OFFCURVE",
"141 242 CURVE SMOOTH",
"141 265 OFFCURVE",
"167 272 OFFCURVE",
"217 272 CURVE SMOOTH",
"271 272 OFFCURVE",
"292 267 OFFCURVE",
"327 263 CURVE",
"337 270 LINE",
"337 466 LINE",
"261 466 LINE",
"261 342 LINE",
"245 345 OFFCURVE",
"223 346 OFFCURVE",
"210 346 CURVE SMOOTH",
"117 346 OFFCURVE",
"59 317 OFFCURVE",
"59 246 CURVE SMOOTH",
"59 201 OFFCURVE",
"80 176 OFFCURVE",
"111 143 CURVE",
"176 198 LINE"
);
},
{
closed = 1;
nodes = (
"62 -27 OFFCURVE",
"155 -80 OFFCURVE",
"306 -80 CURVE",
"322 -8 LINE",
"215 -8 OFFCURVE",
"138 18 OFFCURVE",
"138 78 CURVE SMOOTH",
"138 121 OFFCURVE",
"174 144 OFFCURVE",
"230 144 CURVE",
"261 142 OFFCURVE",
"283 136 OFFCURVE",
"283 111 CURVE SMOOTH",
"283 95 OFFCURVE",
"276 86 OFFCURVE",
"269 77 CURVE",
"333 34 LINE",
"349 53 OFFCURVE",
"365 77 OFFCURVE",
"365 111 CURVE SMOOTH",
"365 182 OFFCURVE",
"304 219 OFFCURVE",
"224 219 CURVE SMOOTH",
"185 219 OFFCURVE",
"158 208 OFFCURVE",
"132 195 CURVE SMOOTH",
"90 174 OFFCURVE",
"62 132 OFFCURVE",
"62 80 CURVE SMOOTH"
);
}
);
width = 422;
}
);
unicode = 0939;
},
{
glyphname = "ghha-deva";
lastChange = "2014-09-19 12:34:04 +0530";
layers = (
{
anchors = (
{
name = bottom;
position = "{350, 5}";
},
{
name = top;
position = "{350, 447}";
}
);
background = {
paths = (
{
closed = 1;
nodes = (
"-27 466 LINE",
"-27 396 LINE",
"458 396 LINE",
"458 466 LINE"
);
},
{
closed = 1;
nodes = (
"288 0 LINE",
"373 0 LINE",
"373 466 LINE",
"288 466 LINE"
);
},
{
closed = 1;
nodes = (
"18 266 LINE",
"18 224 LINE",
"98 111 LINE",
"98 111 OFFCURVE",
"155 111 OFFCURVE",
"155 111 CURVE",
"155 266 LINE"
);
},
{
closed = 1;
nodes = (
"80 206 LINE",
"155 206 LINE",
"155 466 LINE",
"80 466 LINE"
);
}
);
};
components = (
{
name = "nukta-deva";
transform = "{1, 0, 0, 1, 227, 94}";
}
);
layerId = "CFA4B904-E3F1-48B6-A7F6-47DC1FF2A3E1";
name = Bold;
paths = (
{
closed = 1;
nodes = (
"-24 466 LINE",
"-24 396 LINE",
"482 396 LINE",
"482 466 LINE"
);
},
{
closed = 1;
nodes = (
"308 0 LINE",
"393 0 LINE",
"393 466 LINE",
"308 466 LINE"
);
},
{
closed = 1;
nodes = (
"28 276 LINE",
"28 234 LINE",
"118 111 LINE",
"118 111 OFFCURVE",
"175 111 OFFCURVE",
"175 111 CURVE",
"175 276 LINE"
);
},
{
closed = 1;
nodes = (
"90 216 LINE",
"175 216 LINE",
"175 466 LINE",
"90 466 LINE"
);
}
);
width = 458;
}
);
unicode = 095A;
},
{
glyphname = "za-deva";
lastChange = "2014-09-19 12:34:04 +0530";
layers = (
{
anchors = (
{
name = bottom;
position = "{459, 5}";
},
{
name = top;
position = "{459, 447}";
}
);
background = {
paths = (
{
closed = 1;
nodes = (
"-27 466 LINE",
"-27 396 LINE",
"565 396 LINE",
"565 466 LINE"
);
},
{
closed = 1;
nodes = (
"397 0 LINE",
"482 0 LINE",
"482 466 LINE",
"397 466 LINE"
);
},
{
closed = 1;
nodes = (
"228 314 LINE",
"224 243 LINE",
"432 243 LINE",
"432 314 LINE"
);
},
{
closed = 1;
nodes = (
"342 206 OFFCURVE",
"334 251 OFFCURVE",
"286 285 CURVE SMOOTH",
"275 293 OFFCURVE",
"251 306 OFFCURVE",
"238 314 CURVE",
"195 314 LINE",
"195 246 LINE",
"246 246 OFFCURVE",
"259 217 OFFCURVE",
"259 184 CURVE SMOOTH",
"259 150 OFFCURVE",
"237 127 OFFCURVE",
"201 127 CURVE SMOOTH",
"149 127 OFFCURVE",
"115 173 OFFCURVE",
"80 274 CURVE",
"7 245 LINE",
"44 124 OFFCURVE",
"102 45 OFFCURVE",
"201 45 CURVE SMOOTH",
"278 45 OFFCURVE",
"342 87 OFFCURVE",
"342 176 CURVE SMOOTH"
);
}
);
};
components = (
{
name = "nukta-deva";
transform = "{1, 0, 0, 1, 125, 60}";
}
);
guideLines = (
{
angle = 90;
position = "{434, 275}";
}
);
layerId = "CFA4B904-E3F1-48B6-A7F6-47DC1FF2A3E1";
name = Bold;
paths = (
{
closed = 1;
nodes = (
"-24 466 LINE",
"-24 396 LINE",
"591 396 LINE",
"591 466 LINE"
);
},
{
closed = 1;
nodes = (
"417 0 LINE",
"502 0 LINE",
"502 466 LINE",
"417 466 LINE"
);
},
{
closed = 1;
nodes = (
"238 313 LINE",
"234 244 LINE",
"452 244 LINE",
"452 313 LINE"
);
},
{
closed = 1;
nodes = (
"348 207 OFFCURVE",
"340 252 OFFCURVE",
"292 286 CURVE SMOOTH",
"281 294 OFFCURVE",
"261 305 OFFCURVE",
"248 313 CURVE",
"205 313 LINE",
"205 247 LINE",
"256 247 OFFCURVE",
"269 218 OFFCURVE",
"269 185 CURVE SMOOTH",
"269 151 OFFCURVE",
"247 128 OFFCURVE",
"211 128 CURVE SMOOTH",
"159 128 OFFCURVE",
"125 174 OFFCURVE",
"90 275 CURVE",
"21 247 LINE",
"58 126 OFFCURVE",
"116 50 OFFCURVE",
"211 50 CURVE SMOOTH",
"288 50 OFFCURVE",
"348 97 OFFCURVE",
"348 177 CURVE SMOOTH"
);
}
);
width = 567;
}
);
unicode = 095B;
},
{
glyphname = "fa-deva";
lastChange = "2014-09-19 12:34:04 +0530";
layers = (
{
anchors = (
{
name = bottom;
position = "{340, 5}";
},
{
name = top;
position = "{340, 447}";
}
);
background = {
paths = (
{
closed = 1;
nodes = (
"349 226 OFFCURVE",
"295 179 OFFCURVE",
"211 179 CURVE SMOOTH",
"157 179 OFFCURVE",
"140 214 OFFCURVE",
"140 270 CURVE SMOOTH",
"140 456 LINE",
"55 456 LINE",
"55 244 LINE SMOOTH",
"55 164 OFFCURVE",
"113 103 OFFCURVE",
"213 103 CURVE SMOOTH",
"286 103 OFFCURVE",
"349 143 OFFCURVE",
"349 143 CURVE",
"349 226 LINE"
);
},
{
closed = 1;
nodes = (
"294 0 LINE",
"379 0 LINE",
"379 466 LINE",
"294 466 LINE"
);
},
{
closed = 1;
nodes = (
"-27 466 LINE",
"-27 396 LINE",
"657 396 LINE",
"657 466 LINE"
);
},
{
closed = 1;
nodes = (
"603 291 OFFCURVE",
"549 345 OFFCURVE",
"462 345 CURVE SMOOTH",
"390 345 OFFCURVE",
"357 308 OFFCURVE",
"330 290 CURVE",
"344 206 LINE",
"360 218 OFFCURVE",
"402 267 OFFCURVE",
"458 267 CURVE SMOOTH",
"503 267 OFFCURVE",
"522 236 OFFCURVE",
"522 200 CURVE SMOOTH",
"522 154 OFFCURVE",
"497 134 OFFCURVE",
"468 107 CURVE",
"528 50 LINE",
"572 88 OFFCURVE",
"603 128 OFFCURVE",
"603 199 CURVE SMOOTH"
);
}
);
};
components = (
{
name = "nukta-deva";
transform = "{1, 0, 0, 1, 183, 89}";
}
);
layerId = "CFA4B904-E3F1-48B6-A7F6-47DC1FF2A3E1";
name = Bold;
paths = (
{
closed = 1;
nodes = (
"354 226 OFFCURVE",
"300 179 OFFCURVE",
"216 179 CURVE SMOOTH",
"162 179 OFFCURVE",
"145 214 OFFCURVE",
"145 270 CURVE SMOOTH",
"145 466 LINE",
"60 466 LINE",
"60 244 LINE SMOOTH",
"60 164 OFFCURVE",
"118 103 OFFCURVE",
"218 103 CURVE SMOOTH",
"291 103 OFFCURVE",
"354 143 OFFCURVE",
"354 143 CURVE",
"354 226 LINE"
);
},
{
closed = 1;
nodes = (
"299 0 LINE",
"384 0 LINE",
"384 466 LINE",
"299 466 LINE"
);
},
{
closed = 1;
nodes = (
"-24 466 LINE",
"-24 396 LINE",
"677 396 LINE",
"677 466 LINE"
);
},
{
closed = 1;
nodes = (
"609 296 OFFCURVE",
"549 345 OFFCURVE",
"467 345 CURVE SMOOTH",
"395 345 OFFCURVE",
"362 308 OFFCURVE",
"335 290 CURVE",
"349 210 LINE",
"365 222 OFFCURVE",
"417 267 OFFCURVE",
"463 267 CURVE SMOOTH",
"508 267 OFFCURVE",
"527 241 OFFCURVE",
"527 205 CURVE SMOOTH",
"527 159 OFFCURVE",
"494 132 OFFCURVE",
"473 112 CURVE",
"530 55 LINE",
"570 88 OFFCURVE",
"609 134 OFFCURVE",
"609 204 CURVE SMOOTH"
);
}
);
width = 653;
}
);
unicode = 095E;
},
{
color = 1;
glyphname = "k_ra-deva";
layers = (
{
anchors = (
{
name = bottom;
position = "{317, 5}";
},
{
name = top;
position = "{324, 447}";
}
);
background = {
paths = (
{
closed = 1;
nodes = (
"291 0 LINE",
"344 0 LINE",
"344 456 LINE",
"291 456 LINE"
);
},
{
closed = 1;
nodes = (
"10 456 LINE",
"10 408 LINE",
"607 408 LINE",
"607 456 LINE"
);
},
{
closed = 1;
nodes = (
"62 128 OFFCURVE",
"122 77 OFFCURVE",
"205 77 CURVE SMOOTH",
"267 77 OFFCURVE",
"300 100 OFFCURVE",
"327 118 CURVE",
"313 169 LINE",
"297 157 OFFCURVE",
"271 124 OFFCURVE",
"214 124 CURVE SMOOTH",
"155 124 OFFCURVE",
"118 151 OFFCURVE",
"118 205 CURVE SMOOTH",
"118 258 OFFCURVE",
"155 286 OFFCURVE",
"209 286 CURVE SMOOTH",
"261 286 OFFCURVE",
"297 253 OFFCURVE",
"313 241 CURVE",
"327 292 LINE",
"300 310 OFFCURVE",
"257 337 OFFCURVE",
"205 337 CURVE SMOOTH",
"122 337 OFFCURVE",
"62 286 OFFCURVE",
"62 205 CURVE SMOOTH"
);
},
{
closed = 1;
nodes = (
"548 280 OFFCURVE",
"494 333 OFFCURVE",
"411 333 CURVE SMOOTH",
"359 333 OFFCURVE",
"316 296 OFFCURVE",
"289 278 CURVE",
"303 227 LINE",
"319 239 OFFCURVE",
"361 282 OFFCURVE",
"407 282 CURVE SMOOTH",
"461 282 OFFCURVE",
"492 254 OFFCURVE",
"492 207 CURVE SMOOTH",
"492 156 OFFCURVE",
"455 128 OFFCURVE",
"426 101 CURVE",
"465 62 LINE",
"502 91 OFFCURVE",
"548 138 OFFCURVE",
"548 201 CURVE SMOOTH"
);
},
{
closed = 1;
nodes = (
"94 18 OFFCURVE",
"130 -21 OFFCURVE",
"130 -21 CURVE",
"337 125 LINE",
"307 151 LINE",
"94 18 LINE"
);
}
);
};
layerId = "CFA4B904-E3F1-48B6-A7F6-47DC1FF2A3E1";
name = Bold;
paths = (
{
closed = 1;
nodes = (
"561 296 OFFCURVE",
"501 341 OFFCURVE",
"419 341 CURVE SMOOTH",
"347 341 OFFCURVE",
"314 304 OFFCURVE",
"287 286 CURVE",
"301 206 LINE",
"317 218 OFFCURVE",
"369 263 OFFCURVE",
"415 263 CURVE SMOOTH",
"460 263 OFFCURVE",
"479 241 OFFCURVE",
"479 205 CURVE SMOOTH",
"479 159 OFFCURVE",
"446 132 OFFCURVE",
"425 112 CURVE",
"482 55 LINE",
"522 88 OFFCURVE",
"561 134 OFFCURVE",
"561 204 CURVE SMOOTH"
);
},
{
closed = 1;
nodes = (
"-24 466 LINE",
"-24 396 LINE",
"629 396 LINE",
"629 466 LINE"
);
},
{
closed = 1;
nodes = (
"276 0 LINE",
"358 0 LINE",
"358 466 LINE",
"276 466 LINE"
);
},
{
closed = 1;
nodes = (
"121 250 OFFCURVE",
"160 267 OFFCURVE",
"206 267 CURVE SMOOTH",
"258 267 OFFCURVE",
"284 242 OFFCURVE",
"300 225 CURVE",
"316 301 LINE",
"289 317 OFFCURVE",
"256 342 OFFCURVE",
"192 342 CURVE SMOOTH",
"109 342 OFFCURVE",
"42 295 OFFCURVE",
"42 202 CURVE SMOOTH",
"42 121 OFFCURVE",
"109 64 OFFCURVE",
"192 64 CURVE SMOOTH",
"254 64 OFFCURVE",
"289 86 OFFCURVE",
"316 104 CURVE",
"302 170 LINE",
"300 179 LINE",
"284 167 OFFCURVE",
"258 138 OFFCURVE",
"206 138 CURVE SMOOTH",
"160 138 OFFCURVE",
"121 160 OFFCURVE",
"121 202 CURVE SMOOTH"
);
},
{
closed = 1;
nodes = (
"100 -29 LINE",
"328 110 LINE",
"309 151 LINE",
"48 30 LINE"
);
}
);
width = 605;
}
);
leftMetricsKey = "k-deva";
rightMetricsKey = "ra-deva";
},
{
color = 1;
glyphname = "kh_ra-deva";
layers = (
{
anchors = (
{
name = bottom;
position = "{515, 5}";
},
{
name = top;
position = "{515, 447}";
}
);
layerId = "CFA4B904-E3F1-48B6-A7F6-47DC1FF2A3E1";
name = Bold;
paths = (
{
closed = 1;
nodes = (
"71 423 OFFCURVE",
"157 403 OFFCURVE",
"157 306 CURVE SMOOTH",
"157 217 OFFCURVE",
"48 216 OFFCURVE",
"48 216 CURVE SMOOTH",
"48 216 OFFCURVE",
"78 148 OFFCURVE",
"78 148 CURVE",
"136 148 OFFCURVE",
"235 195 OFFCURVE",
"235 304 CURVE SMOOTH",
"235 410 OFFCURVE",
"147 448 OFFCURVE",
"147 448 CURVE",
"71 423 LINE"
);
},
{
closed = 1;
nodes = (
"202 -25 LINE",
"202 -25 OFFCURVE",
"264 26 OFFCURVE",
"264 26 CURVE",
"64 254 LINE",
"6 205 LINE"
);
},
{
closed = 1;
nodes = (
"-24 466 LINE",
"-24 396 LINE",
"291 396 LINE",
"291 466 LINE"
);
},
{
closed = 1;
nodes = (
"207 466 LINE",
"207 396 LINE",
"656 396 LINE",
"656 466 LINE"
);
},
{
closed = 1;
nodes = (
"345 250 OFFCURVE",
"374 270 OFFCURVE",
"420 270 CURVE SMOOTH",
"482 270 OFFCURVE",
"508 225 OFFCURVE",
"524 208 CURVE",
"540 284 LINE",
"522 307 OFFCURVE",
"476 345 OFFCURVE",
"412 345 CURVE SMOOTH",
"329 345 OFFCURVE",
"261 295 OFFCURVE",
"261 202 CURVE SMOOTH",
"261 113 OFFCURVE",
"333 64 OFFCURVE",
"416 64 CURVE SMOOTH",
"488 64 OFFCURVE",
"513 93 OFFCURVE",
"540 111 CURVE",
"524 185 LINE",
"508 168 OFFCURVE",
"482 134 OFFCURVE",
"430 134 CURVE SMOOTH",
"384 134 OFFCURVE",
"345 154 OFFCURVE",
"345 202 CURVE SMOOTH"
);
},
{
closed = 1;
nodes = (
"482 0 LINE",
"567 0 LINE",
"567 466 LINE",
"482 466 LINE"
);
},
{
closed = 1;
nodes = (
"340 -28 LINE",
"558 115 LINE",
"539 156 LINE",
"288 31 LINE"
);
}
);
width = 632;
}
);
leftMetricsKey = "kh-deva";
},
{
color = 1;
glyphname = "g_ra-deva";
lastChange = "2014-09-16 08:32:58 +0530";
layers = (
{
anchors = (
{
name = bottom;
position = "{352, 5}";
},
{
name = top;
position = "{352, 447}";
}
);
layerId = "CFA4B904-E3F1-48B6-A7F6-47DC1FF2A3E1";
name = Bold;
paths = (
{
closed = 1;
nodes = (
"-24 466 LINE",
"-24 396 LINE",
"482 396 LINE",
"482 466 LINE"
);
},
{
closed = 1;
nodes = (
"308 0 LINE",
"393 0 LINE",
"393 466 LINE",
"308 466 LINE"
);
},
{
closed = 1;
nodes = (
"28 285 LINE",
"28 243 LINE",
"118 130 LINE",
"118 130 OFFCURVE",
"175 130 OFFCURVE",
"175 130 CURVE",
"175 285 LINE"
);
},
{
closed = 1;
nodes = (
"90 225 LINE",
"175 225 LINE",
"175 466 LINE",
"90 466 LINE"
);
},
{
closed = 1;
nodes = (
"120 -18 LINE",
"328 104 LINE",
"328 184 LINE",
"75 44 LINE"
);
}
);
width = 458;
}
);
leftMetricsKey = "g-deva";
rightMetricsKey = "ra-deva";
},
{
color = 1;
glyphname = "gh_ra-deva";
lastChange = "2014-09-16 08:34:00 +0530";
layers = (
{
anchors = (
{
name = bottom;
position = "{382, 5}";
},
{
name = top;
position = "{388, 447}";
}
);
layerId = "CFA4B904-E3F1-48B6-A7F6-47DC1FF2A3E1";
name = Bold;
paths = (
{
closed = 1;
nodes = (
"100 -27 LINE",
"356 101 LINE",
"337 142 LINE",
"48 32 LINE"
);
},
{
closed = 1;
nodes = (
"220 277 LINE",
"220 277 OFFCURVE",
"121 284 OFFCURVE",
"121 354 CURVE SMOOTH",
"121 426 OFFCURVE",
"200 456 OFFCURVE",
"200 456 CURVE SMOOTH",
"97 456 LINE SMOOTH",
"97 456 OFFCURVE",
"37 422 OFFCURVE",
"37 354 CURVE SMOOTH",
"37 279 OFFCURVE",
"100 249 OFFCURVE",
"116 237 CURVE"
);
},
{
closed = 1;
nodes = (
"114 294 OFFCURVE",
"61 255 OFFCURVE",
"61 191 CURVE SMOOTH",
"61 109 OFFCURVE",
"128 66 OFFCURVE",
"224 66 CURVE SMOOTH",
"309 66 OFFCURVE",
"364 112 OFFCURVE",
"364 113 CURVE",
"364 196 LINE",
"364 196 OFFCURVE",
"311 134 OFFCURVE",
"221 134 CURVE SMOOTH",
"183 134 OFFCURVE",
"146 148 OFFCURVE",
"146 184 CURVE SMOOTH",
"146 210 OFFCURVE",
"181 229 OFFCURVE",
"248 237 CURVE",
"228 310 LINE"
);
},
{
closed = 1;
nodes = (
"-24 466 LINE",
"-24 396 LINE",
"511 396 LINE",
"511 466 LINE"
);
},
{
closed = 1;
nodes = (
"337 0 LINE",
"422 0 LINE",
"422 466 LINE",
"337 466 LINE"
);
}
);
width = 487;
}
);
leftMetricsKey = "gh-deva";
rightMetricsKey = "ra-deva";
},
{
color = 1;
glyphname = "c_ra-deva";
lastChange = "2014-09-16 10:19:23 +0530";
layers = (
{
anchors = (
{
name = bottom;
position = "{383, 5}";
},
{
name = top;
position = "{383, 447}";
}
);
background = {
paths = (
{
closed = 1;
nodes = (
"357 0 LINE",
"413 0 LINE",
"413 456 LINE",
"357 456 LINE"
);
},
{
closed = 1;
nodes = (
"-7 456 LINE",
"-7 408 LINE",
"511 408 LINE",
"511 456 LINE"
);
},
{
closed = 1;
nodes = (
"379 187 OFFCURVE",
"339 130 OFFCURVE",
"255 130 CURVE SMOOTH",
"201 130 OFFCURVE",
"160 155 OFFCURVE",
"160 200 CURVE SMOOTH",
"160 261 OFFCURVE",
"222 271 OFFCURVE",
"222 271 CURVE SMOOTH",
"141 271 LINE SMOOTH",
"141 271 OFFCURVE",
"104 259 OFFCURVE",
"104 194 CURVE SMOOTH",
"104 133 OFFCURVE",
"156 82 OFFCURVE",
"254 82 CURVE SMOOTH",
"331 82 OFFCURVE",
"369 112 OFFCURVE",
"390 130 CURVE",
"390 200 LINE"
);
},
{
closed = 1;
nodes = (
"38 301 LINE",
"38 253 LINE",
"270 253 LINE",
"270 301 LINE"
);
},
{
closed = 1;
nodes = (
"126 30 OFFCURVE",
"162 -9 OFFCURVE",
"162 -9 CURVE SMOOTH",
"162 -9 OFFCURVE",
"406 135 OFFCURVE",
"406 135 CURVE",
"377 174 LINE",
"126 30 LINE"
);
}
);
};
layerId = "CFA4B904-E3F1-48B6-A7F6-47DC1FF2A3E1";
name = Bold;
paths = (
{
closed = 1;
nodes = (
"128 277 OFFCURVE",
"96 261 OFFCURVE",
"96 203 CURVE SMOOTH",
"96 118 OFFCURVE",
"163 77 OFFCURVE",
"248 77 CURVE SMOOTH",
"344 77 OFFCURVE",
"379 120 OFFCURVE",
"379 121 CURVE",
"379 207 LINE",
"379 207 OFFCURVE",
"346 145 OFFCURVE",
"256 145 CURVE SMOOTH",
"218 145 OFFCURVE",
"181 160 OFFCURVE",
"181 203 CURVE SMOOTH",
"181 236 OFFCURVE",
"195 267 OFFCURVE",
"262 275 CURVE",
"156 285 LINE"
);
},
{
closed = 1;
nodes = (
"-24 466 LINE",
"-24 396 LINE",
"516 396 LINE",
"516 466 LINE"
);
},
{
closed = 1;
nodes = (
"342 0 LINE",
"427 0 LINE",
"427 466 LINE",
"342 466 LINE"
);
},
{
closed = 1;
nodes = (
"22 312 LINE",
"22 240 LINE",
"279 240 LINE",
"279 312 LINE"
);
},
{
closed = 1;
nodes = (
"140 -32 LINE",
"386 119 LINE",
"367 160 LINE",
"88 27 LINE"
);
}
);
width = 492;
}
);
leftMetricsKey = "c-deva";
rightMetricsKey = "ra-deva";
},
{
color = 1;
glyphname = "j_ra-deva";
lastChange = "2014-09-16 08:38:47 +0530";
layers = (
{
anchors = (
{
name = bottom;
position = "{490, 5}";
},
{
name = top;
position = "{449, 447}";
}
);
background = {
paths = (
{
closed = 1;
nodes = (
"462 0 LINE",
"518 0 LINE",
"518 456 LINE",
"462 456 LINE"
);
},
{
closed = 1;
nodes = (
"-1 456 LINE",
"-1 408 LINE",
"616 408 LINE",
"616 456 LINE"
);
},
{
closed = 1;
nodes = (
"483 307 OFFCURVE",
"318 307 OFFCURVE",
"254 307 CURVE",
"250 259 LINE",
"322 259 OFFCURVE",
"483 259 OFFCURVE",
"483 259 CURVE",
"483 307 LINE"
);
},
{
closed = 1;
nodes = (
"357 209 OFFCURVE",
"347 254 OFFCURVE",
"299 288 CURVE SMOOTH",
"288 296 OFFCURVE",
"277 299 OFFCURVE",
"264 307 CURVE",
"221 307 LINE",
"221 262 LINE",
"287 262 OFFCURVE",
"305 216 OFFCURVE",
"305 183 CURVE SMOOTH",
"305 135 OFFCURVE",
"270 110 OFFCURVE",
"227 110 CURVE SMOOTH",
"169 110 OFFCURVE",
"114 167 OFFCURVE",
"84 268 CURVE",
"37 248 LINE",
"74 127 OFFCURVE",
"139 58 OFFCURVE",
"228 58 CURVE SMOOTH",
"279 58 OFFCURVE",
"357 87 OFFCURVE",
"357 179 CURVE SMOOTH"
);
},
{
closed = 1;
nodes = (
"297 20 OFFCURVE",
"341 -9 OFFCURVE",
"341 -9 CURVE SMOOTH",
"341 -9 OFFCURVE",
"491 129 OFFCURVE",
"491 129 CURVE",
"462 170 LINE",
"297 20 LINE"
);
}
);
};
layerId = "CFA4B904-E3F1-48B6-A7F6-47DC1FF2A3E1";
rightMetricsKey = "ra-deva";
name = Bold;
paths = (
{
closed = 1;
nodes = (
"-24 466 LINE",
"-24 396 LINE",
"621 396 LINE",
"621 466 LINE"
);
},
{
closed = 1;
nodes = (
"447 0 LINE",
"532 0 LINE",
"532 466 LINE",
"447 466 LINE"
);
},
{
closed = 1;
nodes = (
"238 322 LINE",
"234 253 LINE",
"482 253 LINE",
"482 322 LINE"
);
},
{
closed = 1;
nodes = (
"349 216 OFFCURVE",
"340 261 OFFCURVE",
"292 295 CURVE SMOOTH",
"281 303 OFFCURVE",
"261 314 OFFCURVE",
"248 322 CURVE",
"205 322 LINE",
"205 256 LINE",
"256 256 OFFCURVE",
"269 227 OFFCURVE",
"269 194 CURVE SMOOTH",
"269 160 OFFCURVE",
"247 137 OFFCURVE",
"211 137 CURVE SMOOTH",
"159 137 OFFCURVE",
"125 183 OFFCURVE",
"90 284 CURVE",
"20 256 LINE",
"57 135 OFFCURVE",
"116 58 OFFCURVE",
"211 58 CURVE SMOOTH",
"288 58 OFFCURVE",
"349 104 OFFCURVE",
"349 186 CURVE SMOOTH"
);
},
{
closed = 1;
nodes = (
"320 -38 LINE",
"488 124 LINE SMOOTH",
"469 185 LINE",
"259 11 LINE"
);
}
);
width = 597;
}
);
leftMetricsKey = "j-deva";
rightMetricsKey = "ra-deva";
},
{
color = 1;
glyphname = "jh_ra-deva";
lastChange = "2014-09-16 11:51:16 +0530";
layers = (
{
anchors = (
{
name = bottom;
position = "{528, 5}";
},
{
name = top;
position = "{469, 447}";
}
);
layerId = "CFA4B904-E3F1-48B6-A7F6-47DC1FF2A3E1";
name = Bold;
paths = (
{
closed = 1;
nodes = (
"262 152 OFFCURVE",
"274 133 OFFCURVE",
"274 116 CURVE SMOOTH",
"274 93 OFFCURVE",
"252 70 OFFCURVE",
"188 70 CURVE SMOOTH",
"168 70 OFFCURVE",
"160 72 OFFCURVE",
"148 76 CURVE",
"99 138 LINE",
"73 138 OFFCURVE",
"37 128 OFFCURVE",
"37 86 CURVE",
"37 39 OFFCURVE",
"111 -3 OFFCURVE",
"199 -3 CURVE SMOOTH",
"295 -3 OFFCURVE",
"355 46 OFFCURVE",
"355 120 CURVE SMOOTH",
"355 189 OFFCURVE",
"301 227 OFFCURVE",
"214 223 CURVE SMOOTH",
"163 221 OFFCURVE",
"127 226 OFFCURVE",
"127 254 CURVE SMOOTH",
"127 272 OFFCURVE",
"143 279 OFFCURVE",
"193 279 CURVE SMOOTH",
"258 279 OFFCURVE",
"280 272 OFFCURVE",
"315 268 CURVE",
"325 275 LINE",
"325 456 LINE",
"249 456 LINE",
"249 348 LINE",
"228 350 OFFCURVE",
"218 351 OFFCURVE",
"185 351 CURVE SMOOTH",
"108 351 OFFCURVE",
"47 322 OFFCURVE",
"47 250 CURVE SMOOTH",
"47 172 OFFCURVE",
"114 142 OFFCURVE",
"202 148 CURVE SMOOTH"
);
},
{
closed = 1;
nodes = (
"-24 466 LINE",
"-24 396 LINE",
"411 396 LINE",
"411 466 LINE"
);
},
{
closed = 1;
nodes = (
"91 47 LINE",
"198 -119 LINE",
"268 -74 LINE",
"150 59 LINE"
);
},
{
closed = 1;
nodes = (
"366 466 LINE",
"366 396 LINE",
"659 396 LINE",
"659 466 LINE"
);
},
{
closed = 1;
nodes = (
"485 0 LINE",
"570 0 LINE",
"570 466 LINE",
"485 466 LINE"
);
},
{
closed = 1;
nodes = (
"494 219 OFFCURVE",
"471 193 OFFCURVE",
"398 193 CURVE SMOOTH",
"323 193 OFFCURVE",
"298 212 OFFCURVE",
"263 220 CURVE",
"251 148 LINE",
"287 139 OFFCURVE",
"349 123 OFFCURVE",
"399 123 CURVE SMOOTH",
"453 123 OFFCURVE",
"494 146 OFFCURVE",
"494 146 CURVE",
"494 219 LINE"
);
},
{
closed = 1;
nodes = (
"348 30 LINE",
"407 -18 LINE",
"546 147 LINE",
"511 181 LINE"
);
}
);
width = 585;
}
);
leftMetricsKey = "jh-deva";
rightMetricsKey = "ra-deva";
},
{
color = 1;
glyphname = "ny_ra-deva";
lastChange = "2014-09-16 08:45:46 +0530";
layers = (
{
anchors = (
{
name = bottom;
position = "{471, 5}";
},
{
name = top;
position = "{497, 447}";
}
);
background = {
paths = (
{
closed = 1;
nodes = (
"442 0 LINE",
"498 0 LINE",
"498 456 LINE",
"442 456 LINE"
);
},
{
closed = 1;
nodes = (
"11 456 LINE",
"11 408 LINE",
"596 408 LINE",
"596 456 LINE"
);
},
{
closed = 1;
nodes = (
"287 267 OFFCURVE",
"303 236 OFFCURVE",
"303 200 CURVE SMOOTH",
"303 154 OFFCURVE",
"273 126 OFFCURVE",
"230 126 CURVE SMOOTH",
"168 126 OFFCURVE",
"128 184 OFFCURVE",
"88 285 CURVE",
"41 266 LINE",
"85 145 OFFCURVE",
"143 73 OFFCURVE",
"232 73 CURVE SMOOTH",
"291 73 OFFCURVE",
"345 108 OFFCURVE",
"355 180 CURVE SMOOTH",
"356 184 OFFCURVE",
"358 187 OFFCURVE",
"358 191 CURVE SMOOTH",
"358 261 OFFCURVE",
"316 320 OFFCURVE",
"240 320 CURVE SMOOTH",
"203 320 OFFCURVE",
"176 309 OFFCURVE",
"153 294 CURVE",
"153 294 OFFCURVE",
"176 246 OFFCURVE",
"176 246 CURVE SMOOTH",
"176 246 OFFCURVE",
"206 267 OFFCURVE",
"235 267 CURVE SMOOTH"
);
},
{
closed = 1;
nodes = (
"469 236 OFFCURVE",
"444 218 OFFCURVE",
"394 218 CURVE SMOOTH",
"359 218 OFFCURVE",
"352 225 OFFCURVE",
"326 238 CURVE",
"322 185 LINE",
"348 177 OFFCURVE",
"367 171 OFFCURVE",
"394 171 CURVE SMOOTH",
"437 171 OFFCURVE",
"469 184 OFFCURVE",
"485 197 CURVE",
"485 249 LINE"
);
},
{
closed = 1;
nodes = (
"283 26 OFFCURVE",
"325 -9 OFFCURVE",
"325 -9 CURVE SMOOTH",
"325 -9 OFFCURVE",
"489 160 OFFCURVE",
"489 160 CURVE",
"460 193 LINE",
"283 26 LINE"
);
}
);
};
layerId = "CFA4B904-E3F1-48B6-A7F6-47DC1FF2A3E1";
name = Bold;
paths = (
{
closed = 1;
nodes = (
"263 271 OFFCURVE",
"284 252 OFFCURVE",
"284 220 CURVE SMOOTH",
"284 184 OFFCURVE",
"265 161 OFFCURVE",
"227 161 CURVE SMOOTH",
"165 161 OFFCURVE",
"135 208 OFFCURVE",
"95 309 CURVE",
"22 279 LINE",
"74 137 OFFCURVE",
"134 78 OFFCURVE",
"226 78 CURVE SMOOTH",
"301 78 OFFCURVE",
"356 128 OFFCURVE",
"366 200 CURVE SMOOTH",
"367 204 OFFCURVE",
"369 207 OFFCURVE",
"369 211 CURVE SMOOTH",
"369 301 OFFCURVE",
"312 351 OFFCURVE",
"236 351 CURVE SMOOTH",
"199 351 OFFCURVE",
"172 340 OFFCURVE",
"149 325 CURVE",
"149 325 OFFCURVE",
"184 254 OFFCURVE",
"184 254 CURVE SMOOTH",
"184 254 OFFCURVE",
"207 271 OFFCURVE",
"231 271 CURVE SMOOTH"
);
},
{
closed = 1;
nodes = (
"462 258 OFFCURVE",
"427 240 OFFCURVE",
"397 240 CURVE SMOOTH",
"372 240 OFFCURVE",
"355 247 OFFCURVE",
"329 260 CURVE",
"325 182 LINE",
"351 174 OFFCURVE",
"370 168 OFFCURVE",
"397 168 CURVE SMOOTH",
"420 168 OFFCURVE",
"462 181 OFFCURVE",
"478 194 CURVE",
"478 271 LINE"
);
},
{
closed = 1;
nodes = (
"-24 466 LINE",
"-24 396 LINE",
"601 396 LINE",
"601 466 LINE"
);
},
{
closed = 1;
nodes = (
"427 0 LINE",
"512 0 LINE",
"512 466 LINE",
"427 466 LINE"
);
},
{
closed = 1;
nodes = (
"313 -23 LINE",
"476 150 LINE SMOOTH",
"437 193 LINE",
"258 24 LINE"
);
}
);
width = 577;
}
);
leftMetricsKey = "ny-deva";
rightMetricsKey = "ra-deva";
},
{
color = 1;
glyphname = "nn_ra-deva";
lastChange = "2014-09-16 11:02:01 +0530";
layers = (
{
anchors = (
{
name = bottom;
position = "{461, 5}";
},
{
name = top;
position = "{461, 447}";
}
);
layerId = "CFA4B904-E3F1-48B6-A7F6-47DC1FF2A3E1";
name = Bold;
paths = (
{
closed = 1;
nodes = (
"426 0 LINE",
"511 0 LINE",
"511 466 LINE",
"426 466 LINE"
);
},
{
closed = 1;
nodes = (
"-24 466 LINE",
"-24 396 LINE",
"600 396 LINE",
"600 466 LINE"
);
},
{
closed = 1;
nodes = (
"288 118 OFFCURVE",
"340 171 OFFCURVE",
"340 267 CURVE SMOOTH",
"340 436 LINE",
"251 436 LINE",
"251 300 LINE SMOOTH",
"251 236 OFFCURVE",
"249 201 OFFCURVE",
"200 201 CURVE SMOOTH",
"151 201 OFFCURVE",
"149 236 OFFCURVE",
"149 300 CURVE SMOOTH",
"149 436 LINE",
"60 436 LINE",
"60 267 LINE SMOOTH",
"60 170 OFFCURVE",
"108 118 OFFCURVE",
"201 118 CURVE SMOOTH"
);
},
{
closed = 1;
nodes = (
"266 -18 LINE",
"454 134 LINE",
"454 214 LINE",
"198 27 LINE"
);
}
);
width = 576;
}
);
leftMetricsKey = "nn-deva";
rightMetricsKey = "ra-deva";
},
{
color = 3;
glyphname = "t_kha-deva";
lastChange = "2014-09-17 07:35:50 +0530";
layers = (
{
anchors = (
{
name = bottom;
position = "{747, 5}";
},
{
name = top;
position = "{747, 447}";
}
);
background = {
paths = (
{
closed = 1;
nodes = (
"358 305 OFFCURVE",
"275 305 OFFCURVE",
"191 305 CURVE SMOOTH",
"93 305 OFFCURVE",
"38 272 OFFCURVE",
"38 185 CURVE SMOOTH",
"38 118 OFFCURVE",
"85 38 OFFCURVE",
"121 -22 CURVE",
"191 19 LINE",
"163 68 OFFCURVE",
"123 132 OFFCURVE",
"123 177 CURVE SMOOTH",
"123 215 OFFCURVE",
"146 227 OFFCURVE",
"216 227 CURVE SMOOTH",
"358 227 LINE",
"358 305 LINE"
);
}
);
};
layerId = "CFA4B904-E3F1-48B6-A7F6-47DC1FF2A3E1";
name = Bold;
paths = (
{
closed = 1;
nodes = (
"282 305 OFFCURVE",
"275 305 OFFCURVE",
"191 305 CURVE SMOOTH",
"93 305 OFFCURVE",
"38 272 OFFCURVE",
"38 185 CURVE SMOOTH",
"38 118 OFFCURVE",
"85 38 OFFCURVE",
"121 -22 CURVE",
"191 19 LINE",
"163 68 OFFCURVE",
"123 132 OFFCURVE",
"123 177 CURVE SMOOTH",
"123 215 OFFCURVE",
"146 227 OFFCURVE",
"216 227 CURVE SMOOTH",
"282 227 LINE",
"282 305 LINE"
);
},
{
closed = 1;
nodes = (
"-24 466 LINE",
"-24 396 LINE",
"256 396 LINE",
"256 466 LINE"
);
},
{
closed = 1;
nodes = (
"333 423 OFFCURVE",
"419 403 OFFCURVE",
"419 306 CURVE SMOOTH",
"419 217 OFFCURVE",
"310 216 OFFCURVE",
"310 216 CURVE SMOOTH",
"310 216 OFFCURVE",
"340 148 OFFCURVE",
"340 148 CURVE",
"398 148 OFFCURVE",
"497 195 OFFCURVE",
"497 304 CURVE SMOOTH",
"497 410 OFFCURVE",
"409 448 OFFCURVE",
"409 448 CURVE",
"333 423 LINE"
);
},
{
closed = 1;
nodes = (
"464 -25 LINE",
"464 -25 OFFCURVE",
"526 26 OFFCURVE",
"526 26 CURVE",
"282 305 LINE",
"224 256 LINE"
);
},
{
closed = 1;
nodes = (
"238 466 LINE",
"238 396 LINE",
"553 396 LINE",
"553 466 LINE"
);
},
{
closed = 1;
nodes = (
"459 466 LINE",
"459 396 LINE",
"908 396 LINE",
"908 466 LINE"
);
},
{
closed = 1;
nodes = (
"597 245 OFFCURVE",
"626 265 OFFCURVE",
"672 265 CURVE SMOOTH",
"734 265 OFFCURVE",
"760 220 OFFCURVE",
"776 203 CURVE",
"792 284 LINE",
"774 307 OFFCURVE",
"728 345 OFFCURVE",
"664 345 CURVE SMOOTH",
"581 345 OFFCURVE",
"513 295 OFFCURVE",
"513 197 CURVE SMOOTH",
"513 103 OFFCURVE",
"585 53 OFFCURVE",
"668 53 CURVE SMOOTH",
"740 53 OFFCURVE",
"765 82 OFFCURVE",
"792 100 CURVE",
"776 180 LINE",
"760 163 OFFCURVE",
"734 129 OFFCURVE",
"682 129 CURVE SMOOTH",
"636 129 OFFCURVE",
"597 149 OFFCURVE",
"597 197 CURVE SMOOTH"
);
},
{
closed = 1;
nodes = (
"734 0 LINE",
"819 0 LINE",
"819 466 LINE",
"734 466 LINE"
);
}
);
width = 854;
}
);
leftMetricsKey = "t-deva";
rightMetricsKey = "kha-deva";
},
{
color = 3;
glyphname = "t_tha-deva";
lastChange = "2014-09-17 07:27:20 +0530";
layers = (
{
anchors = (
{
name = bottom;
position = "{615, 5}";
},
{
name = top;
position = "{615, 447}";
}
);
background = {
paths = (
{
closed = 1;
nodes = (
"396 405 OFFCURVE",
"409 377 OFFCURVE",
"409 350 CURVE SMOOTH",
"409 280 OFFCURVE",
"337 247 OFFCURVE",
"281 217 CURVE",
"268 182 LINE",
"295 136 OFFCURVE",
"370 74 OFFCURVE",
"461 74 CURVE SMOOTH",
"533 74 OFFCURVE",
"586 116 OFFCURVE",
"586 116 CURVE",
"586 224 LINE",
"560 179 OFFCURVE",
"507 156 OFFCURVE",
"456 156 CURVE SMOOTH",
"424 156 OFFCURVE",
"398 167 OFFCURVE",
"379 181 CURVE",
"441 228 OFFCURVE",
"489 269 OFFCURVE",
"489 346 CURVE SMOOTH",
"489 410 OFFCURVE",
"449 478 OFFCURVE",
"370 478 CURVE",
"303 478 OFFCURVE",
"262 434 OFFCURVE",
"262 379 CURVE",
"262 327 OFFCURVE",
"295 301 OFFCURVE",
"326 284 CURVE",
"366 341 LINE",
"353 350 OFFCURVE",
"338 361 OFFCURVE",
"338 379 CURVE",
"338 392 OFFCURVE",
"345 405 OFFCURVE",
"368 405 CURVE"
);
},
{
closed = 1;
nodes = (
"527 466 LINE",
"527 396 LINE",
"747 396 LINE",
"747 466 LINE"
);
},
{
closed = 1;
nodes = (
"573 0 LINE",
"658 0 LINE",
"658 466 LINE",
"573 466 LINE"
);
},
{
closed = 1;
nodes = (
"328 305 OFFCURVE",
"275 305 OFFCURVE",
"191 305 CURVE SMOOTH",
"93 305 OFFCURVE",
"38 272 OFFCURVE",
"38 185 CURVE SMOOTH",
"38 118 OFFCURVE",
"81 43 OFFCURVE",
"117 -17 CURVE",
"187 24 LINE",
"159 73 OFFCURVE",
"125 132 OFFCURVE",
"125 177 CURVE SMOOTH",
"125 215 OFFCURVE",
"146 227 OFFCURVE",
"216 227 CURVE SMOOTH",
"328 227 LINE",
"328 305 LINE"
);
},
{
closed = 1;
nodes = (
"-24 466 LINE",
"-24 396 LINE",
"256 396 LINE",
"256 466 LINE"
);
},
{
closed = 1;
nodes = (
"358 305 OFFCURVE",
"275 305 OFFCURVE",
"191 305 CURVE SMOOTH",
"93 305 OFFCURVE",
"38 272 OFFCURVE",
"38 185 CURVE SMOOTH",
"38 118 OFFCURVE",
"85 38 OFFCURVE",
"121 -22 CURVE",
"191 19 LINE",
"163 68 OFFCURVE",
"123 132 OFFCURVE",
"123 177 CURVE SMOOTH",
"123 215 OFFCURVE",
"146 227 OFFCURVE",
"216 227 CURVE SMOOTH",
"358 227 LINE",
"358 305 LINE"
);
}
);
};
layerId = "CFA4B904-E3F1-48B6-A7F6-47DC1FF2A3E1";
name = Bold;
paths = (
{
closed = 1;
nodes = (
"406 405 OFFCURVE",
"419 377 OFFCURVE",
"419 350 CURVE SMOOTH",
"419 280 OFFCURVE",
"347 247 OFFCURVE",
"291 217 CURVE",
"278 182 LINE",
"305 136 OFFCURVE",
"380 74 OFFCURVE",
"471 74 CURVE SMOOTH",
"543 74 OFFCURVE",
"596 116 OFFCURVE",
"596 116 CURVE",
"596 224 LINE",
"570 179 OFFCURVE",
"517 156 OFFCURVE",
"466 156 CURVE SMOOTH",
"434 156 OFFCURVE",
"408 167 OFFCURVE",
"389 181 CURVE",
"451 228 OFFCURVE",
"499 269 OFFCURVE",
"499 346 CURVE SMOOTH",
"499 410 OFFCURVE",
"459 478 OFFCURVE",
"380 478 CURVE",
"313 478 OFFCURVE",
"272 434 OFFCURVE",
"272 379 CURVE",
"272 327 OFFCURVE",
"305 301 OFFCURVE",
"336 284 CURVE",
"376 341 LINE",
"363 350 OFFCURVE",
"348 361 OFFCURVE",
"348 379 CURVE",
"348 392 OFFCURVE",
"355 405 OFFCURVE",
"378 405 CURVE"
);
},
{
closed = 1;
nodes = (
"537 466 LINE",
"537 396 LINE",
"757 396 LINE",
"757 466 LINE"
);
},
{
closed = 1;
nodes = (
"583 0 LINE",
"668 0 LINE",
"668 466 LINE",
"583 466 LINE"
);
},
{
closed = 1;
nodes = (
"-24 466 LINE",
"-24 396 LINE",
"266 396 LINE",
"266 466 LINE"
);
},
{
closed = 1;
nodes = (
"364 215 OFFCURVE",
"275 285 OFFCURVE",
"195 285 CURVE SMOOTH",
"103 285 OFFCURVE",
"40 242 OFFCURVE",
"40 155 CURVE SMOOTH",
"40 98 OFFCURVE",
"81 38 OFFCURVE",
"121 -22 CURVE",
"189 18 LINE",
"160 63 OFFCURVE",
"124 114 OFFCURVE",
"124 155 CURVE SMOOTH",
"124 189 OFFCURVE",
"146 209 OFFCURVE",
"199 209 CURVE SMOOTH",
"253 209 OFFCURVE",
"307 154 OFFCURVE",
"328 142 CURVE",
"364 215 LINE"
);
}
);
width = 723;
}
);
leftMetricsKey = "t-deva";
rightMetricsKey = "tha-deva";
},
{
color = 3;
glyphname = "t_ya-deva";
lastChange = "2014-09-17 07:27:51 +0530";
layers = (
{
anchors = (
{
name = bottom;
position = "{589, 5}";
},
{
name = top;
position = "{589, 447}";
}
);
background = {
paths = (
{
closed = 1;
nodes = (
"328 275 OFFCURVE",
"275 305 OFFCURVE",
"191 305 CURVE SMOOTH",
"93 305 OFFCURVE",
"38 272 OFFCURVE",
"38 185 CURVE SMOOTH",
"38 118 OFFCURVE",
"81 43 OFFCURVE",
"117 -17 CURVE",
"187 24 LINE",
"159 73 OFFCURVE",
"125 132 OFFCURVE",
"125 177 CURVE SMOOTH",
"125 215 OFFCURVE",
"146 227 OFFCURVE",
"216 227 CURVE SMOOTH",
"253 227 OFFCURVE",
"291 207 OFFCURVE",
"328 197 CURVE",
"328 275 LINE"
);
},
{
closed = 1;
nodes = (
"-24 466 LINE",
"-24 396 LINE",
"256 396 LINE",
"256 466 LINE"
);
},
{
closed = 1;
nodes = (
"558 179 OFFCURVE",
"505 156 OFFCURVE",
"454 156 CURVE SMOOTH",
"420 156 OFFCURVE",
"393 169 OFFCURVE",
"374 184 CURVE",
"416 225 OFFCURVE",
"438 253 OFFCURVE",
"438 306 CURVE SMOOTH",
"438 356 OFFCURVE",
"404 414 OFFCURVE",
"350 456 CURVE",
"252 456 LINE",
"312 414 OFFCURVE",
"356 356 OFFCURVE",
"352 307 CURVE SMOOTH",
"348 258 OFFCURVE",
"311 234 OFFCURVE",
"279 217 CURVE",
"266 185 LINE",
"293 131 OFFCURVE",
"368 76 OFFCURVE",
"459 76 CURVE SMOOTH",
"531 76 OFFCURVE",
"584 118 OFFCURVE",
"584 118 CURVE",
"584 224 LINE"
);
},
{
closed = 1;
nodes = (
"208 466 LINE",
"208 396 LINE",
"720 396 LINE",
"720 466 LINE"
);
},
{
closed = 1;
nodes = (
"546 0 LINE",
"631 0 LINE",
"631 466 LINE",
"546 466 LINE"
);
},
{
closed = 1;
nodes = (
"358 305 OFFCURVE",
"275 305 OFFCURVE",
"191 305 CURVE SMOOTH",
"93 305 OFFCURVE",
"38 272 OFFCURVE",
"38 185 CURVE SMOOTH",
"38 118 OFFCURVE",
"85 38 OFFCURVE",
"121 -22 CURVE",
"191 19 LINE",
"163 68 OFFCURVE",
"123 132 OFFCURVE",
"123 177 CURVE SMOOTH",
"123 215 OFFCURVE",
"146 227 OFFCURVE",
"216 227 CURVE SMOOTH",
"358 227 LINE",
"358 305 LINE"
);
}
);
};
layerId = "CFA4B904-E3F1-48B6-A7F6-47DC1FF2A3E1";
name = Bold;
paths = (
{
closed = 1;
nodes = (
"354 259 OFFCURVE",
"275 305 OFFCURVE",
"191 305 CURVE SMOOTH",
"93 305 OFFCURVE",
"40 262 OFFCURVE",
"40 175 CURVE SMOOTH",
"40 108 OFFCURVE",
"85 37 OFFCURVE",
"121 -23 CURVE",
"191 18 LINE",
"163 63 OFFCURVE",
"124 125 OFFCURVE",
"124 167 CURVE SMOOTH",
"124 207 OFFCURVE",
"146 229 OFFCURVE",
"199 229 CURVE SMOOTH",
"253 229 OFFCURVE",
"297 196 OFFCURVE",
"318 184 CURVE",
"354 259 LINE"
);
},
{
closed = 1;
nodes = (
"-24 466 LINE",
"-24 396 LINE",
"256 396 LINE",
"256 466 LINE"
);
},
{
closed = 1;
nodes = (
"558 179 OFFCURVE",
"505 156 OFFCURVE",
"454 156 CURVE SMOOTH",
"420 156 OFFCURVE",
"393 169 OFFCURVE",
"374 184 CURVE",
"416 225 OFFCURVE",
"438 253 OFFCURVE",
"438 306 CURVE SMOOTH",
"438 356 OFFCURVE",
"404 414 OFFCURVE",
"350 456 CURVE",
"252 456 LINE",
"312 414 OFFCURVE",
"356 356 OFFCURVE",
"352 307 CURVE SMOOTH",
"348 258 OFFCURVE",
"311 234 OFFCURVE",
"279 217 CURVE",
"266 185 LINE",
"293 131 OFFCURVE",
"368 76 OFFCURVE",
"459 76 CURVE SMOOTH",
"531 76 OFFCURVE",
"584 118 OFFCURVE",
"584 118 CURVE",
"584 224 LINE"
);
},
{
closed = 1;
nodes = (
"208 466 LINE",
"208 396 LINE",
"720 396 LINE",
"720 466 LINE"
);
},
{
closed = 1;
nodes = (
"546 0 LINE",
"631 0 LINE",
"631 466 LINE",
"546 466 LINE"
);
}
);
width = 696;
}
);
leftMetricsKey = "t-deva";
rightMetricsKey = "ya-deva";
},
{
color = 3;
glyphname = "t_la-deva";
lastChange = "2014-09-19 12:39:09 +0530";
layers = (
{
anchors = (
{
name = bottom;
position = "{654, 5}";
},
{
name = top;
position = "{654, 447}";
}
);
background = {
paths = (
{
closed = 1;
nodes = (
"614 0 LINE",
"698 0 LINE",
"698 466 LINE",
"614 466 LINE"
);
},
{
closed = 1;
nodes = (
"194 466 LINE",
"194 396 LINE",
"787 396 LINE",
"787 466 LINE"
);
},
{
closed = 1;
nodes = (
"497 277 OFFCURVE",
"457 311 OFFCURVE",
"392 311 CURVE SMOOTH",
"317 311 OFFCURVE",
"260 259 OFFCURVE",
"260 172 CURVE SMOOTH",
"260 74 OFFCURVE",
"358 -23 OFFCURVE",
"358 -23 CURVE",
"433 12 LINE",
"412 34 OFFCURVE",
"344 111 OFFCURVE",
"344 169 CURVE SMOOTH",
"344 208 OFFCURVE",
"360 230 OFFCURVE",
"402 230 CURVE SMOOTH",
"443 230 OFFCURVE",
"467 183 OFFCURVE",
"467 183 CURVE",
"525 236 LINE"
);
},
{
closed = 1;
nodes = (
"446 118 OFFCURVE",
"527 105 OFFCURVE",
"527 105 CURVE",
"526 115 OFFCURVE",
"524 140 OFFCURVE",
"524 162 CURVE SMOOTH",
"524 207 OFFCURVE",
"548 232 OFFCURVE",
"587 231 CURVE SMOOTH",
"612 230 OFFCURVE",
"634 221 OFFCURVE",
"652 207 CURVE",
"646 294 LINE",
"623 307 OFFCURVE",
"602 309 OFFCURVE",
"583 309 CURVE SMOOTH",
"507 309 OFFCURVE",
"443 271 OFFCURVE",
"443 169 CURVE SMOOTH",
"443 159 OFFCURVE",
"444 128 OFFCURVE",
"446 118 CURVE"
);
},
{
closed = 1;
nodes = (
"358 305 OFFCURVE",
"275 305 OFFCURVE",
"191 305 CURVE SMOOTH",
"93 305 OFFCURVE",
"38 272 OFFCURVE",
"38 185 CURVE SMOOTH",
"38 118 OFFCURVE",
"81 43 OFFCURVE",
"117 -17 CURVE",
"187 24 LINE",
"159 73 OFFCURVE",
"123 132 OFFCURVE",
"123 177 CURVE SMOOTH",
"123 215 OFFCURVE",
"146 227 OFFCURVE",
"216 227 CURVE SMOOTH",
"358 227 LINE",
"358 305 LINE"
);
},
{
closed = 1;
nodes = (
"-24 466 LINE",
"-24 396 LINE",
"256 396 LINE",
"256 466 LINE"
);
}
);
};
layerId = "CFA4B904-E3F1-48B6-A7F6-47DC1FF2A3E1";
name = Bold;
paths = (
{
closed = 1;
nodes = (
"614 0 LINE",
"698 0 LINE",
"698 466 LINE",
"614 466 LINE"
);
},
{
closed = 1;
nodes = (
"194 466 LINE",
"194 396 LINE",
"787 396 LINE",
"787 466 LINE"
);
},
{
closed = 1;
nodes = (
"497 277 OFFCURVE",
"457 311 OFFCURVE",
"392 311 CURVE SMOOTH",
"317 311 OFFCURVE",
"260 259 OFFCURVE",
"260 172 CURVE SMOOTH",
"260 74 OFFCURVE",
"358 -23 OFFCURVE",
"358 -23 CURVE",
"433 12 LINE",
"412 34 OFFCURVE",
"344 111 OFFCURVE",
"344 169 CURVE SMOOTH",
"344 208 OFFCURVE",
"360 230 OFFCURVE",
"402 230 CURVE SMOOTH",
"443 230 OFFCURVE",
"467 183 OFFCURVE",
"467 183 CURVE",
"525 236 LINE"
);
},
{
closed = 1;
nodes = (
"446 118 OFFCURVE",
"527 105 OFFCURVE",
"527 105 CURVE",
"526 115 OFFCURVE",
"524 140 OFFCURVE",
"524 162 CURVE SMOOTH",
"524 207 OFFCURVE",
"548 232 OFFCURVE",
"587 231 CURVE SMOOTH",
"612 230 OFFCURVE",
"634 221 OFFCURVE",
"652 207 CURVE",
"646 294 LINE",
"623 307 OFFCURVE",
"602 309 OFFCURVE",
"583 309 CURVE SMOOTH",
"507 309 OFFCURVE",
"443 271 OFFCURVE",
"443 169 CURVE SMOOTH",
"443 159 OFFCURVE",
"444 128 OFFCURVE",
"446 118 CURVE"
);
},
{
closed = 1;
nodes = (
"358 285 OFFCURVE",
"275 305 OFFCURVE",
"191 305 CURVE SMOOTH",
"93 305 OFFCURVE",
"38 272 OFFCURVE",
"38 185 CURVE SMOOTH",
"38 118 OFFCURVE",
"88 32 OFFCURVE",
"124 -28 CURVE",
"194 13 LINE",
"166 62 OFFCURVE",
"123 132 OFFCURVE",
"123 177 CURVE SMOOTH",
"123 215 OFFCURVE",
"146 227 OFFCURVE",
"216 227 CURVE SMOOTH",
"358 227 LINE",
"358 285 LINE"
);
},
{
closed = 1;
nodes = (
"-24 466 LINE",
"-24 396 LINE",
"256 396 LINE",
"256 466 LINE"
);
}
);
width = 763;
}
);
leftMetricsKey = "t-deva";
},
{
color = 3;
glyphname = "t_sa-deva";
lastChange = "2014-09-17 07:36:21 +0530";
layers = (
{
anchors = (
{
name = bottom;
position = "{667, 5}";
},
{
name = top;
position = "{667, 447}";
}
);
background = {
paths = (
{
closed = 1;
nodes = (
"218 466 LINE",
"218 396 LINE",
"809 396 LINE",
"809 466 LINE"
);
},
{
closed = 1;
nodes = (
"635 0 LINE",
"720 0 LINE",
"720 466 LINE",
"635 466 LINE"
);
},
{
closed = 1;
nodes = (
"669 248 OFFCURVE",
"626 223 OFFCURVE",
"554 223 CURVE SMOOTH",
"487 223 OFFCURVE",
"476 233 OFFCURVE",
"440 248 CURVE",
"381 190 LINE",
"439 160 OFFCURVE",
"500 148 OFFCURVE",
"542 148 CURVE SMOOTH",
"608 148 OFFCURVE",
"669 167 OFFCURVE",
"669 167 CURVE",
"669 248 LINE"
);
},
{
closed = 1;
nodes = (
"344 423 OFFCURVE",
"418 403 OFFCURVE",
"418 306 CURVE SMOOTH",
"418 217 OFFCURVE",
"311 216 OFFCURVE",
"311 216 CURVE SMOOTH",
"311 216 OFFCURVE",
"341 147 OFFCURVE",
"341 147 CURVE",
"399 147 OFFCURVE",
"498 195 OFFCURVE",
"498 304 CURVE SMOOTH",
"498 410 OFFCURVE",
"425 448 OFFCURVE",
"425 448 CURVE",
"344 423 LINE"
);
},
{
closed = 1;
nodes = (
"437 -20 LINE",
"437 -20 OFFCURVE",
"505 27 OFFCURVE",
"505 27 CURVE",
"327 254 LINE",
"264 205 LINE"
);
},
{
closed = 1;
nodes = (
"328 305 OFFCURVE",
"275 305 OFFCURVE",
"191 305 CURVE SMOOTH",
"93 305 OFFCURVE",
"38 272 OFFCURVE",
"38 185 CURVE SMOOTH",
"38 118 OFFCURVE",
"81 43 OFFCURVE",
"117 -17 CURVE",
"187 24 LINE",
"159 73 OFFCURVE",
"125 132 OFFCURVE",
"125 177 CURVE SMOOTH",
"125 215 OFFCURVE",
"146 227 OFFCURVE",
"216 227 CURVE SMOOTH",
"328 227 LINE",
"328 305 LINE"
);
},
{
closed = 1;
nodes = (
"-24 466 LINE",
"-24 396 LINE",
"256 396 LINE",
"256 466 LINE"
);
},
{
closed = 1;
nodes = (
"358 305 OFFCURVE",
"275 305 OFFCURVE",
"191 305 CURVE SMOOTH",
"93 305 OFFCURVE",
"38 272 OFFCURVE",
"38 185 CURVE SMOOTH",
"38 118 OFFCURVE",
"85 38 OFFCURVE",
"121 -22 CURVE",
"191 19 LINE",
"163 68 OFFCURVE",
"123 132 OFFCURVE",
"123 177 CURVE SMOOTH",
"123 215 OFFCURVE",
"146 227 OFFCURVE",
"216 227 CURVE SMOOTH",
"358 227 LINE",
"358 305 LINE"
);
}
);
};
layerId = "CFA4B904-E3F1-48B6-A7F6-47DC1FF2A3E1";
name = Bold;
paths = (
{
closed = 1;
nodes = (
"212 466 LINE",
"212 396 LINE",
"803 396 LINE",
"803 466 LINE"
);
},
{
closed = 1;
nodes = (
"629 0 LINE",
"714 0 LINE",
"714 466 LINE",
"629 466 LINE"
);
},
{
closed = 1;
nodes = (
"663 248 OFFCURVE",
"620 223 OFFCURVE",
"548 223 CURVE SMOOTH",
"481 223 OFFCURVE",
"470 233 OFFCURVE",
"434 248 CURVE",
"375 190 LINE",
"433 160 OFFCURVE",
"494 148 OFFCURVE",
"536 148 CURVE SMOOTH",
"602 148 OFFCURVE",
"663 167 OFFCURVE",
"663 167 CURVE",
"663 248 LINE"
);
},
{
closed = 1;
nodes = (
"338 423 OFFCURVE",
"412 403 OFFCURVE",
"412 306 CURVE SMOOTH",
"412 217 OFFCURVE",
"305 216 OFFCURVE",
"305 216 CURVE SMOOTH",
"305 216 OFFCURVE",
"335 147 OFFCURVE",
"335 147 CURVE",
"393 147 OFFCURVE",
"492 195 OFFCURVE",
"492 304 CURVE SMOOTH",
"492 410 OFFCURVE",
"419 448 OFFCURVE",
"419 448 CURVE",
"338 423 LINE"
);
},
{
closed = 1;
nodes = (
"431 -20 LINE",
"431 -20 OFFCURVE",
"499 27 OFFCURVE",
"499 27 CURVE",
"280 305 LINE",
"217 256 LINE"
);
},
{
closed = 1;
nodes = (
"280 305 OFFCURVE",
"269 305 OFFCURVE",
"191 305 CURVE SMOOTH",
"93 305 OFFCURVE",
"38 272 OFFCURVE",
"38 185 CURVE SMOOTH",
"38 118 OFFCURVE",
"85 38 OFFCURVE",
"121 -22 CURVE",
"190 19 LINE",
"162 68 OFFCURVE",
"123 132 OFFCURVE",
"123 177 CURVE SMOOTH",
"123 215 OFFCURVE",
"146 227 OFFCURVE",
"216 227 CURVE SMOOTH",
"280 227 LINE",
"280 305 LINE"
);
},
{
closed = 1;
nodes = (
"-24 466 LINE",
"-24 396 LINE",
"250 396 LINE",
"250 466 LINE"
);
}
);
width = 779;
}
);
leftMetricsKey = "t-deva";
},
{
color = 1;
glyphname = "th_ra-deva";
layers = (
{
anchors = (
{
name = bottom;
position = "{383, 5}";
},
{
name = top;
position = "{383, 447}";
}
);
layerId = "CFA4B904-E3F1-48B6-A7F6-47DC1FF2A3E1";
name = Bold;
paths = (
{
closed = 1;
nodes = (
"164 405 OFFCURVE",
"177 377 OFFCURVE",
"177 350 CURVE SMOOTH",
"177 280 OFFCURVE",
"105 247 OFFCURVE",
"49 217 CURVE",
"36 182 LINE",
"63 136 OFFCURVE",
"138 79 OFFCURVE",
"229 79 CURVE SMOOTH",
"301 79 OFFCURVE",
"354 111 OFFCURVE",
"354 111 CURVE",
"354 209 LINE",
"329 166 OFFCURVE",
"281 148 OFFCURVE",
"235 149 CURVE SMOOTH",
"200 149 OFFCURVE",
"166 161 OFFCURVE",
"147 181 CURVE",
"209 228 OFFCURVE",
"257 269 OFFCURVE",
"257 346 CURVE SMOOTH",
"257 410 OFFCURVE",
"217 478 OFFCURVE",
"138 478 CURVE",
"71 478 OFFCURVE",
"30 434 OFFCURVE",
"30 379 CURVE",
"30 327 OFFCURVE",
"63 301 OFFCURVE",
"94 284 CURVE",
"134 341 LINE",
"121 350 OFFCURVE",
"106 361 OFFCURVE",
"106 379 CURVE",
"106 392 OFFCURVE",
"113 405 OFFCURVE",
"136 405 CURVE"
);
},
{
closed = 1;
nodes = (
"295 466 LINE",
"295 396 LINE",
"515 396 LINE",
"515 466 LINE"
);
},
{
closed = 1;
nodes = (
"341 0 LINE",
"426 0 LINE",
"426 466 LINE",
"341 466 LINE"
);
},
{
closed = 1;
nodes = (
"110 -25 LINE",
"356 108 LINE",
"327 149 LINE",
"58 34 LINE"
);
}
);
width = 491;
}
);
leftMetricsKey = "th-deva";
rightMetricsKey = "ra-deva";
},
{
color = 1;
glyphname = "d_ra-deva";
layers = (
{
anchors = (
{
name = bottom;
position = "{221, -8}";
},
{
name = top;
position = "{289, 447}";
}
);
layerId = "CFA4B904-E3F1-48B6-A7F6-47DC1FF2A3E1";
name = Bold;
paths = (
{
closed = 1;
nodes = (
"114 -121 LINE",
"341 42 LINE",
"322 83 LINE",
"62 -62 LINE"
);
},
{
closed = 1;
nodes = (
"301 99 LINE",
"276 86 OFFCURVE",
"254 73 OFFCURVE",
"220 73 CURVE SMOOTH",
"158 73 OFFCURVE",
"121 106 OFFCURVE",
"121 163 CURVE SMOOTH",
"121 213 OFFCURVE",
"158 244 OFFCURVE",
"226 244 CURVE SMOOTH",
"263 244 OFFCURVE",
"288 239 OFFCURVE",
"324 235 CURVE",
"333 242 LINE",
"333 456 LINE",
"257 456 LINE",
"257 322 LINE",
"257 322 OFFCURVE",
"232 322 OFFCURVE",
"218 322 CURVE SMOOTH",
"103 322 OFFCURVE",
"39 259 OFFCURVE",
"39 167 CURVE SMOOTH",
"39 65 OFFCURVE",
"116 -2 OFFCURVE",
"219 -2 CURVE SMOOTH",
"271 -2 OFFCURVE",
"306 17 OFFCURVE",
"335 32 CURVE"
);
},
{
closed = 1;
nodes = (
"-24 466 LINE",
"-24 396 LINE",
"454 396 LINE",
"454 466 LINE"
);
},
{
closed = 1;
nodes = (
"282 44 OFFCURVE",
"297 30 OFFCURVE",
"310 31 CURVE SMOOTH",
"330 32 OFFCURVE",
"370 58 OFFCURVE",
"370 100 CURVE SMOOTH",
"370 132 OFFCURVE",
"350 163 OFFCURVE",
"306 163 CURVE SMOOTH",
"261 163 OFFCURVE",
"235 130 OFFCURVE",
"235 130 CURVE",
"273 49 LINE"
);
},
{
closed = 1;
nodes = (
"269 56 LINE",
"269 56 OFFCURVE",
"343 -82 OFFCURVE",
"343 -82 CURVE SMOOTH",
"343 -82 OFFCURVE",
"412 -44 OFFCURVE",
"412 -44 CURVE",
"330 87 LINE"
);
}
);
width = 430;
}
);
leftMetricsKey = "d-deva";
rightMetricsKey = "ra-deva";
},
{
color = 1;
glyphname = "dh_ra-deva";
layers = (
{
anchors = (
{
name = bottom;
position = "{387, 5}";
},
{
name = top;
position = "{387, 447}";
}
);
layerId = "CFA4B904-E3F1-48B6-A7F6-47DC1FF2A3E1";
name = Bold;
paths = (
{
closed = 1;
nodes = (
"73 486 OFFCURVE",
"35 426 OFFCURVE",
"35 369 CURVE",
"35 283 OFFCURVE",
"108 239 OFFCURVE",
"124 227 CURVE",
"219 267 LINE",
"219 267 OFFCURVE",
"119 291 OFFCURVE",
"119 371 CURVE",
"119 396 OFFCURVE",
"127 417 OFFCURVE",
"154 417 CURVE",
"167 417 OFFCURVE",
"176 409 OFFCURVE",
"176 397 CURVE",
"176 385 OFFCURVE",
"170 375 OFFCURVE",
"157 363 CURVE",
"210 318 LINE",
"231 340 OFFCURVE",
"250 364 OFFCURVE",
"250 396 CURVE",
"250 441 OFFCURVE",
"220 486 OFFCURVE",
"152 486 CURVE"
);
},
{
closed = 1;
nodes = (
"127 277 OFFCURVE",
"68 236 OFFCURVE",
"68 176 CURVE SMOOTH",
"68 97 OFFCURVE",
"136 60 OFFCURVE",
"232 60 CURVE SMOOTH",
"317 60 OFFCURVE",
"372 98 OFFCURVE",
"372 99 CURVE",
"372 183 LINE",
"372 183 OFFCURVE",
"329 129 OFFCURVE",
"229 129 CURVE SMOOTH",
"191 129 OFFCURVE",
"154 139 OFFCURVE",
"154 169 CURVE SMOOTH",
"154 195 OFFCURVE",
"199 204 OFFCURVE",
"266 212 CURVE",
"251 285 LINE"
);
},
{
closed = 1;
nodes = (
"282 466 LINE",
"282 396 LINE",
"519 396 LINE",
"519 466 LINE"
);
},
{
closed = 1;
nodes = (
"345 0 LINE",
"430 0 LINE",
"430 466 LINE",
"345 466 LINE"
);
},
{
closed = 1;
nodes = (
"113 -44 LINE",
"356 89 LINE",
"337 130 LINE",
"57 19 LINE"
);
}
);
width = 495;
}
);
leftMetricsKey = "dh-deva";
rightMetricsKey = "ra-deva";
},
{
color = 3;
glyphname = "n_kha-deva";
lastChange = "2014-09-19 12:12:22 +0530";
layers = (
{
anchors = (
{
name = bottom;
position = "{760, 5}";
},
{
name = top;
position = "{760, 447}";
}
);
background = {
paths = (
{
closed = 1;
nodes = (
"-24 466 LINE",
"-24 396 LINE",
"263 396 LINE",
"263 466 LINE"
);
},
{
closed = 1;
nodes = (
"44 270 LINE",
"34 228 LINE",
"95 95 LINE",
"95 95 OFFCURVE",
"152 95 OFFCURVE",
"152 95 CURVE",
"152 270 LINE"
);
},
{
closed = 1;
nodes = (
"91 270 LINE",
"91 192 LINE",
"309 192 LINE",
"309 270 LINE"
);
},
{
closed = 1;
nodes = (
"330 423 OFFCURVE",
"416 403 OFFCURVE",
"416 306 CURVE SMOOTH",
"416 217 OFFCURVE",
"307 216 OFFCURVE",
"307 216 CURVE SMOOTH",
"307 216 OFFCURVE",
"337 148 OFFCURVE",
"337 148 CURVE",
"395 148 OFFCURVE",
"494 195 OFFCURVE",
"494 304 CURVE SMOOTH",
"494 410 OFFCURVE",
"406 448 OFFCURVE",
"406 448 CURVE",
"330 423 LINE"
);
},
{
closed = 1;
nodes = (
"461 -25 LINE",
"461 -25 OFFCURVE",
"523 26 OFFCURVE",
"523 26 CURVE",
"309 270 LINE",
"251 221 LINE"
);
},
{
closed = 1;
nodes = (
"235 466 LINE",
"235 396 LINE",
"550 396 LINE",
"550 466 LINE"
);
},
{
closed = 1;
nodes = (
"456 466 LINE",
"456 396 LINE",
"905 396 LINE",
"905 466 LINE"
);
},
{
closed = 1;
nodes = (
"594 245 OFFCURVE",
"623 265 OFFCURVE",
"669 265 CURVE SMOOTH",
"731 265 OFFCURVE",
"757 220 OFFCURVE",
"773 203 CURVE",
"789 284 LINE",
"771 307 OFFCURVE",
"725 345 OFFCURVE",
"661 345 CURVE SMOOTH",
"578 345 OFFCURVE",
"510 295 OFFCURVE",
"510 197 CURVE SMOOTH",
"510 103 OFFCURVE",
"582 53 OFFCURVE",
"665 53 CURVE SMOOTH",
"737 53 OFFCURVE",
"762 82 OFFCURVE",
"789 100 CURVE",
"773 180 LINE",
"757 163 OFFCURVE",
"731 129 OFFCURVE",
"679 129 CURVE SMOOTH",
"633 129 OFFCURVE",
"594 149 OFFCURVE",
"594 197 CURVE SMOOTH"
);
},
{
closed = 1;
nodes = (
"731 0 LINE",
"816 0 LINE",
"816 466 LINE",
"731 466 LINE"
);
}
);
};
layerId = "CFA4B904-E3F1-48B6-A7F6-47DC1FF2A3E1";
rightMetricsKey = "kha-deva";
name = Bold;
paths = (
{
closed = 1;
nodes = (
"-24 466 LINE",
"-24 396 LINE",
"263 396 LINE",
"263 466 LINE"
);
},
{
closed = 1;
nodes = (
"44 270 LINE",
"34 228 LINE",
"95 95 LINE",
"95 95 OFFCURVE",
"152 95 OFFCURVE",
"152 95 CURVE",
"152 270 LINE"
);
},
{
closed = 1;
nodes = (
"249 270 OFFCURVE",
"197 270 OFFCURVE",
"91 270 CURVE",
"91 192 LINE",
"322 192 LINE",
"322 256 LINE"
);
},
{
closed = 1;
nodes = (
"330 423 OFFCURVE",
"416 403 OFFCURVE",
"416 306 CURVE SMOOTH",
"416 217 OFFCURVE",
"307 216 OFFCURVE",
"307 216 CURVE SMOOTH",
"307 216 OFFCURVE",
"337 148 OFFCURVE",
"337 148 CURVE",
"395 148 OFFCURVE",
"494 195 OFFCURVE",
"494 304 CURVE SMOOTH",
"494 410 OFFCURVE",
"406 448 OFFCURVE",
"406 448 CURVE",
"330 423 LINE"
);
},
{
closed = 1;
nodes = (
"461 -25 LINE",
"461 -25 OFFCURVE",
"523 26 OFFCURVE",
"523 26 CURVE",
"322 256 LINE",
"264 207 LINE"
);
},
{
closed = 1;
nodes = (
"235 466 LINE",
"235 396 LINE",
"550 396 LINE",
"550 466 LINE"
);
},
{
closed = 1;
nodes = (
"456 466 LINE",
"456 396 LINE",
"905 396 LINE",
"905 466 LINE"
);
},
{
closed = 1;
nodes = (
"594 245 OFFCURVE",
"623 265 OFFCURVE",
"669 265 CURVE SMOOTH",
"731 265 OFFCURVE",
"757 220 OFFCURVE",
"773 203 CURVE",
"789 284 LINE",
"771 307 OFFCURVE",
"725 345 OFFCURVE",
"661 345 CURVE SMOOTH",
"578 345 OFFCURVE",
"510 295 OFFCURVE",
"510 197 CURVE SMOOTH",
"510 103 OFFCURVE",
"582 53 OFFCURVE",
"665 53 CURVE SMOOTH",
"737 53 OFFCURVE",
"762 82 OFFCURVE",
"789 100 CURVE",
"773 180 LINE",
"757 163 OFFCURVE",
"731 129 OFFCURVE",
"679 129 CURVE SMOOTH",
"633 129 OFFCURVE",
"594 149 OFFCURVE",
"594 197 CURVE SMOOTH"
);
},
{
closed = 1;
nodes = (
"731 0 LINE",
"816 0 LINE",
"816 466 LINE",
"731 466 LINE"
);
}
);
width = 881;
}
);
leftMetricsKey = "n-deva";
rightMetricsKey = "kha-deva";
},
{
color = 3;
glyphname = "n_ca-deva";
lastChange = "2014-09-17 05:12:46 +0530";
layers = (
{
anchors = (
{
name = bottom;
position = "{628, 5}";
},
{
name = top;
position = "{628, 447}";
}
);
layerId = "CFA4B904-E3F1-48B6-A7F6-47DC1FF2A3E1";
name = Bold;
paths = (
{
closed = 1;
nodes = (
"-24 466 LINE",
"-24 396 LINE",
"219 396 LINE",
"219 466 LINE"
);
},
{
closed = 1;
nodes = (
"44 306 LINE",
"34 264 LINE",
"95 131 LINE",
"95 131 OFFCURVE",
"152 131 OFFCURVE",
"152 131 CURVE",
"152 306 LINE"
);
},
{
closed = 1;
nodes = (
"91 306 LINE",
"91 234 LINE",
"266 234 LINE",
"266 306 LINE"
);
},
{
closed = 1;
nodes = (
"323 271 OFFCURVE",
"291 255 OFFCURVE",
"291 197 CURVE SMOOTH",
"291 112 OFFCURVE",
"358 61 OFFCURVE",
"443 61 CURVE SMOOTH",
"539 61 OFFCURVE",
"574 104 OFFCURVE",
"574 105 CURVE",
"574 201 LINE",
"574 201 OFFCURVE",
"541 139 OFFCURVE",
"451 139 CURVE SMOOTH",
"413 139 OFFCURVE",
"376 154 OFFCURVE",
"376 197 CURVE SMOOTH",
"376 230 OFFCURVE",
"390 261 OFFCURVE",
"457 269 CURVE",
"351 279 LINE"
);
},
{
closed = 1;
nodes = (
"171 466 LINE",
"171 396 LINE",
"711 396 LINE",
"711 466 LINE"
);
},
{
closed = 1;
nodes = (
"537 0 LINE",
"622 0 LINE",
"622 466 LINE",
"537 466 LINE"
);
},
{
closed = 1;
nodes = (
"217 306 LINE",
"217 234 LINE",
"474 234 LINE",
"474 306 LINE"
);
}
);
width = 687;
}
);
leftMetricsKey = "n-deva";
},
{
color = 3;
glyphname = "n_ja-deva";
lastChange = "2014-09-17 05:06:10 +0530";
layers = (
{
anchors = (
{
name = bottom;
position = "{694, 5}";
},
{
name = top;
position = "{694, 447}";
}
);
background = {
paths = (
{
closed = 1;
nodes = (
"221 466 LINE",
"221 396 LINE",
"836 396 LINE",
"836 466 LINE"
);
},
{
closed = 1;
nodes = (
"662 0 LINE",
"747 0 LINE",
"747 466 LINE",
"662 466 LINE"
);
},
{
closed = 1;
nodes = (
"483 292 LINE",
"479 223 LINE",
"697 223 LINE",
"697 292 LINE"
);
},
{
closed = 1;
nodes = (
"594 186 OFFCURVE",
"585 231 OFFCURVE",
"537 265 CURVE SMOOTH",
"526 273 OFFCURVE",
"506 284 OFFCURVE",
"493 292 CURVE",
"450 292 LINE",
"450 226 LINE",
"501 226 OFFCURVE",
"514 197 OFFCURVE",
"514 164 CURVE SMOOTH",
"514 130 OFFCURVE",
"492 107 OFFCURVE",
"456 107 CURVE SMOOTH",
"404 107 OFFCURVE",
"370 153 OFFCURVE",
"335 254 CURVE",
"265 226 LINE",
"302 105 OFFCURVE",
"361 28 OFFCURVE",
"456 28 CURVE SMOOTH",
"533 28 OFFCURVE",
"594 74 OFFCURVE",
"594 156 CURVE SMOOTH"
);
},
{
closed = 1;
nodes = (
"-24 466 LINE",
"-24 396 LINE",
"269 396 LINE",
"269 466 LINE"
);
},
{
closed = 1;
nodes = (
"44 270 LINE",
"34 228 LINE",
"95 95 LINE",
"95 95 OFFCURVE",
"152 95 OFFCURVE",
"152 95 CURVE",
"152 270 LINE"
);
},
{
closed = 1;
nodes = (
"91 270 LINE",
"91 192 LINE",
"316 192 LINE",
"316 270 LINE"
);
}
);
};
layerId = "CFA4B904-E3F1-48B6-A7F6-47DC1FF2A3E1";
name = Bold;
paths = (
{
closed = 1;
nodes = (
"221 466 LINE",
"221 396 LINE",
"836 396 LINE",
"836 466 LINE"
);
},
{
closed = 1;
nodes = (
"662 0 LINE",
"747 0 LINE",
"747 466 LINE",
"662 466 LINE"
);
},
{
closed = 1;
nodes = (
"483 292 LINE",
"479 223 LINE",
"697 223 LINE",
"697 292 LINE"
);
},
{
closed = 1;
nodes = (
"594 186 OFFCURVE",
"585 231 OFFCURVE",
"537 265 CURVE SMOOTH",
"526 273 OFFCURVE",
"506 284 OFFCURVE",
"493 292 CURVE",
"450 292 LINE",
"450 226 LINE",
"501 226 OFFCURVE",
"514 197 OFFCURVE",
"514 164 CURVE SMOOTH",
"514 130 OFFCURVE",
"492 107 OFFCURVE",
"456 107 CURVE SMOOTH",
"404 107 OFFCURVE",
"361 165 OFFCURVE",
"331 270 CURVE",
"261 242 LINE",
"294 112 OFFCURVE",
"361 28 OFFCURVE",
"456 28 CURVE SMOOTH",
"533 28 OFFCURVE",
"594 74 OFFCURVE",
"594 156 CURVE SMOOTH"
);
},
{
closed = 1;
nodes = (
"-24 466 LINE",
"-24 396 LINE",
"269 396 LINE",
"269 466 LINE"
);
},
{
closed = 1;
nodes = (
"44 270 LINE",
"34 228 LINE",
"95 95 LINE",
"95 95 OFFCURVE",
"152 95 OFFCURVE",
"152 95 CURVE",
"152 270 LINE"
);
},
{
closed = 1;
nodes = (
"91 270 LINE",
"91 192 LINE",
"331 192 LINE",
"331 270 LINE"
);
}
);
width = 812;
}
);
leftMetricsKey = "n-deva";
rightMetricsKey = "ja-deva";
},
{
color = 3;
glyphname = "n_dda-deva";
lastChange = "2014-09-17 05:20:10 +0530";
layers = (
{
anchors = (
{
name = bottom;
position = "{486, -25}";
},
{
name = top;
position = "{563, 447}";
}
);
layerId = "CFA4B904-E3F1-48B6-A7F6-47DC1FF2A3E1";
name = Bold;
paths = (
{
closed = 1;
nodes = (
"-24 466 LINE",
"-24 396 LINE",
"269 396 LINE",
"269 466 LINE"
);
},
{
closed = 1;
nodes = (
"44 290 LINE",
"34 248 LINE",
"95 115 LINE",
"95 115 OFFCURVE",
"152 115 OFFCURVE",
"152 115 CURVE",
"152 290 LINE"
);
},
{
closed = 1;
nodes = (
"91 290 LINE",
"91 212 LINE",
"316 212 LINE",
"316 290 LINE"
);
},
{
closed = 1;
nodes = (
"506 154 OFFCURVE",
"518 133 OFFCURVE",
"518 116 CURVE SMOOTH",
"518 93 OFFCURVE",
"494 75 OFFCURVE",
"450 75 CURVE SMOOTH",
"386 75 OFFCURVE",
"344 94 OFFCURVE",
"296 141 CURVE",
"244 85 LINE",
"294 36 OFFCURVE",
"355 -3 OFFCURVE",
"443 -3 CURVE SMOOTH",
"539 -3 OFFCURVE",
"599 46 OFFCURVE",
"599 120 CURVE SMOOTH",
"599 189 OFFCURVE",
"546 230 OFFCURVE",
"453 225 CURVE SMOOTH",
"402 222 OFFCURVE",
"366 226 OFFCURVE",
"366 254 CURVE SMOOTH",
"366 272 OFFCURVE",
"382 279 OFFCURVE",
"432 279 CURVE SMOOTH",
"494 279 OFFCURVE",
"521 272 OFFCURVE",
"556 268 CURVE",
"566 275 LINE",
"566 456 LINE",
"490 456 LINE",
"490 348 LINE",
"469 350 OFFCURVE",
"457 351 OFFCURVE",
"424 351 CURVE SMOOTH",
"347 351 OFFCURVE",
"286 322 OFFCURVE",
"286 250 CURVE SMOOTH",
"286 172 OFFCURVE",
"358 144 OFFCURVE",
"446 150 CURVE SMOOTH"
);
},
{
closed = 1;
nodes = (
"186 466 LINE",
"186 396 LINE",
"667 396 LINE",
"667 466 LINE"
);
}
);
width = 643;
}
);
leftMetricsKey = "n-deva";
},
{
color = 3;
glyphname = "n_tha-deva";
lastChange = "2014-09-17 05:21:58 +0530";
layers = (
{
anchors = (
{
name = bottom;
position = "{628, 5}";
},
{
name = top;
position = "{628, 447}";
}
);
layerId = "CFA4B904-E3F1-48B6-A7F6-47DC1FF2A3E1";
name = Bold;
paths = (
{
closed = 1;
nodes = (
"-24 466 LINE",
"-24 396 LINE",
"247 396 LINE",
"247 466 LINE"
);
},
{
closed = 1;
nodes = (
"44 247 LINE",
"34 205 LINE",
"95 75 LINE",
"95 75 OFFCURVE",
"152 75 OFFCURVE",
"152 75 CURVE",
"152 247 LINE"
);
},
{
closed = 1;
nodes = (
"91 247 LINE",
"91 172 LINE",
"334 172 LINE",
"334 247 LINE"
);
},
{
closed = 1;
nodes = (
"387 405 OFFCURVE",
"400 377 OFFCURVE",
"400 350 CURVE SMOOTH",
"400 280 OFFCURVE",
"328 247 OFFCURVE",
"272 217 CURVE",
"259 182 LINE",
"286 136 OFFCURVE",
"361 74 OFFCURVE",
"452 74 CURVE SMOOTH",
"524 74 OFFCURVE",
"577 116 OFFCURVE",
"577 116 CURVE",
"577 224 LINE",
"551 179 OFFCURVE",
"498 156 OFFCURVE",
"447 156 CURVE SMOOTH",
"415 156 OFFCURVE",
"389 167 OFFCURVE",
"370 181 CURVE",
"432 228 OFFCURVE",
"480 269 OFFCURVE",
"480 346 CURVE SMOOTH",
"480 410 OFFCURVE",
"440 478 OFFCURVE",
"361 478 CURVE",
"294 478 OFFCURVE",
"253 434 OFFCURVE",
"253 379 CURVE",
"253 327 OFFCURVE",
"286 301 OFFCURVE",
"317 284 CURVE",
"357 341 LINE",
"344 350 OFFCURVE",
"329 361 OFFCURVE",
"329 379 CURVE",
"329 392 OFFCURVE",
"336 405 OFFCURVE",
"359 405 CURVE"
);
},
{
closed = 1;
nodes = (
"518 466 LINE",
"518 396 LINE",
"738 396 LINE",
"738 466 LINE"
);
},
{
closed = 1;
nodes = (
"564 0 LINE",
"649 0 LINE",
"649 466 LINE",
"564 466 LINE"
);
}
);
width = 714;
}
);
leftMetricsKey = "n-deva";
},
{
color = 3;
glyphname = "n_dha-deva";
lastChange = "2014-09-17 05:27:59 +0530";
layers = (
{
anchors = (
{
name = bottom;
position = "{632, 5}";
},
{
name = top;
position = "{632, 447}";
}
);
background = {
paths = (
{
closed = 1;
nodes = (
"-24 466 LINE",
"-24 396 LINE",
"235 396 LINE",
"235 466 LINE"
);
},
{
closed = 1;
nodes = (
"44 250 LINE",
"34 208 LINE",
"95 75 LINE",
"95 75 OFFCURVE",
"152 75 OFFCURVE",
"152 75 CURVE",
"152 250 LINE"
);
},
{
closed = 1;
nodes = (
"91 250 LINE",
"91 172 LINE",
"316 172 LINE",
"316 250 LINE"
);
},
{
closed = 1;
nodes = (
"284 486 OFFCURVE",
"246 426 OFFCURVE",
"246 369 CURVE",
"246 283 OFFCURVE",
"319 239 OFFCURVE",
"335 227 CURVE",
"430 267 LINE",
"430 267 OFFCURVE",
"330 291 OFFCURVE",
"330 371 CURVE",
"330 396 OFFCURVE",
"338 417 OFFCURVE",
"365 417 CURVE",
"378 417 OFFCURVE",
"387 409 OFFCURVE",
"387 397 CURVE",
"387 385 OFFCURVE",
"381 375 OFFCURVE",
"368 363 CURVE",
"421 318 LINE",
"442 340 OFFCURVE",
"461 364 OFFCURVE",
"461 396 CURVE",
"461 441 OFFCURVE",
"431 486 OFFCURVE",
"363 486 CURVE"
);
},
{
closed = 1;
nodes = (
"338 277 OFFCURVE",
"279 236 OFFCURVE",
"279 176 CURVE SMOOTH",
"279 97 OFFCURVE",
"347 50 OFFCURVE",
"443 50 CURVE SMOOTH",
"528 50 OFFCURVE",
"583 88 OFFCURVE",
"583 89 CURVE",
"583 183 LINE",
"583 183 OFFCURVE",
"540 129 OFFCURVE",
"440 129 CURVE SMOOTH",
"402 129 OFFCURVE",
"365 139 OFFCURVE",
"365 169 CURVE SMOOTH",
"365 195 OFFCURVE",
"410 204 OFFCURVE",
"477 212 CURVE",
"462 285 LINE"
);
},
{
closed = 1;
nodes = (
"493 466 LINE",
"493 396 LINE",
"730 396 LINE",
"730 466 LINE"
);
},
{
closed = 1;
nodes = (
"556 0 LINE",
"641 0 LINE",
"641 466 LINE",
"556 466 LINE"
);
}
);
};
layerId = "CFA4B904-E3F1-48B6-A7F6-47DC1FF2A3E1";
name = Bold;
paths = (
{
closed = 1;
nodes = (
"-24 466 LINE",
"-24 396 LINE",
"235 396 LINE",
"235 466 LINE"
);
},
{
closed = 1;
nodes = (
"44 250 LINE",
"34 208 LINE",
"95 75 LINE",
"95 75 OFFCURVE",
"152 75 OFFCURVE",
"152 75 CURVE",
"152 250 LINE"
);
},
{
closed = 1;
nodes = (
"91 250 LINE",
"91 172 LINE",
"316 172 LINE",
"316 250 LINE"
);
},
{
closed = 1;
nodes = (
"284 486 OFFCURVE",
"246 426 OFFCURVE",
"246 369 CURVE",
"246 283 OFFCURVE",
"319 239 OFFCURVE",
"335 227 CURVE",
"425 262 LINE",
"425 262 OFFCURVE",
"330 291 OFFCURVE",
"330 371 CURVE",
"330 396 OFFCURVE",
"338 417 OFFCURVE",
"365 417 CURVE",
"378 417 OFFCURVE",
"387 409 OFFCURVE",
"387 397 CURVE",
"387 385 OFFCURVE",
"381 375 OFFCURVE",
"368 363 CURVE",
"421 318 LINE",
"442 340 OFFCURVE",
"461 364 OFFCURVE",
"461 396 CURVE",
"461 441 OFFCURVE",
"431 486 OFFCURVE",
"363 486 CURVE"
);
},
{
closed = 1;
nodes = (
"338 277 OFFCURVE",
"279 236 OFFCURVE",
"279 176 CURVE SMOOTH",
"279 97 OFFCURVE",
"347 50 OFFCURVE",
"443 50 CURVE SMOOTH",
"528 50 OFFCURVE",
"583 88 OFFCURVE",
"583 89 CURVE",
"583 183 LINE",
"583 183 OFFCURVE",
"540 129 OFFCURVE",
"440 129 CURVE SMOOTH",
"402 129 OFFCURVE",
"363 139 OFFCURVE",
"363 169 CURVE SMOOTH",
"363 195 OFFCURVE",
"408 204 OFFCURVE",
"477 212 CURVE",
"462 285 LINE"
);
},
{
closed = 1;
nodes = (
"493 466 LINE",
"493 396 LINE",
"730 396 LINE",
"730 466 LINE"
);
},
{
closed = 1;
nodes = (
"556 0 LINE",
"641 0 LINE",
"641 466 LINE",
"556 466 LINE"
);
}
);
width = 706;
}
);
leftMetricsKey = "n-deva";
},
{
color = 3;
glyphname = "n_ma-deva";
lastChange = "2014-09-17 05:08:26 +0530";
layers = (
{
anchors = (
{
name = bottom;
position = "{611, 5}";
},
{
name = top;
position = "{610, 447}";
}
);
background = {
paths = (
{
closed = 1;
nodes = (
"9 456 LINE",
"9 408 LINE",
"301 408 LINE",
"301 456 LINE"
);
},
{
closed = 1;
nodes = (
"67 291 LINE",
"67 254 LINE",
"131 152 LINE",
"171 152 LINE",
"171 291 LINE"
);
},
{
closed = 1;
nodes = (
"124 291 LINE",
"124 243 LINE",
"404 243 LINE",
"404 291 LINE"
);
},
{
closed = 1;
nodes = (
"590 0 LINE",
"646 0 LINE",
"646 456 LINE",
"590 456 LINE"
);
},
{
closed = 1;
nodes = (
"353 140 LINE",
"408 140 LINE",
"408 456 LINE",
"353 456 LINE"
);
},
{
closed = 1;
nodes = (
"233 456 LINE",
"233 408 LINE",
"744 408 LINE",
"744 456 LINE"
);
},
{
closed = 1;
nodes = (
"291 204 LINE",
"291 171 LINE",
"370 76 LINE",
"408 76 LINE",
"408 204 LINE"
);
},
{
closed = 1;
nodes = (
"376 204 LINE",
"376 156 LINE",
"636 156 LINE",
"636 204 LINE"
);
}
);
};
layerId = "CFA4B904-E3F1-48B6-A7F6-47DC1FF2A3E1";
name = Bold;
paths = (
{
closed = 1;
nodes = (
"-24 466 LINE",
"-24 396 LINE",
"239 396 LINE",
"239 466 LINE"
);
},
{
closed = 1;
nodes = (
"44 320 LINE",
"34 278 LINE",
"95 145 LINE",
"95 145 OFFCURVE",
"152 145 OFFCURVE",
"152 145 CURVE",
"152 320 LINE"
);
},
{
closed = 1;
nodes = (
"91 320 LINE",
"91 245 LINE",
"356 245 LINE",
"356 320 LINE"
);
},
{
closed = 1;
nodes = (
"564 0 LINE",
"649 0 LINE",
"649 466 LINE",
"564 466 LINE"
);
},
{
closed = 1;
nodes = (
"191 466 LINE",
"191 396 LINE",
"738 396 LINE",
"738 466 LINE"
);
},
{
closed = 1;
nodes = (
"254 203 LINE",
"254 161 LINE",
"353 41 LINE",
"353 41 OFFCURVE",
"410 41 OFFCURVE",
"410 41 CURVE",
"410 203 LINE"
);
},
{
closed = 1;
nodes = (
"349 203 LINE",
"349 128 LINE",
"602 128 LINE",
"602 203 LINE"
);
},
{
closed = 1;
nodes = (
"325 128 LINE",
"410 128 LINE",
"410 466 LINE",
"325 466 LINE"
);
}
);
width = 714;
}
);
leftMetricsKey = "n-deva";
},
{
color = 3;
glyphname = "n_ya-deva";
lastChange = "2014-09-17 05:04:34 +0530";
layers = (
{
anchors = (
{
name = bottom;
position = "{602, 5}";
},
{
name = top;
position = "{602, 447}";
}
);
background = {
paths = (
{
closed = 1;
nodes = (
"571 179 OFFCURVE",
"518 156 OFFCURVE",
"467 156 CURVE SMOOTH",
"433 156 OFFCURVE",
"406 169 OFFCURVE",
"387 184 CURVE",
"429 225 OFFCURVE",
"451 253 OFFCURVE",
"451 306 CURVE SMOOTH",
"451 356 OFFCURVE",
"417 414 OFFCURVE",
"363 456 CURVE",
"265 456 LINE",
"325 414 OFFCURVE",
"369 356 OFFCURVE",
"365 307 CURVE SMOOTH",
"361 258 OFFCURVE",
"324 234 OFFCURVE",
"292 217 CURVE",
"279 185 LINE",
"306 131 OFFCURVE",
"381 76 OFFCURVE",
"472 76 CURVE SMOOTH",
"544 76 OFFCURVE",
"597 118 OFFCURVE",
"597 118 CURVE",
"597 224 LINE"
);
},
{
closed = 1;
nodes = (
"221 466 LINE",
"221 396 LINE",
"733 396 LINE",
"733 466 LINE"
);
},
{
closed = 1;
nodes = (
"559 0 LINE",
"644 0 LINE",
"644 466 LINE",
"559 466 LINE"
);
},
{
closed = 1;
nodes = (
"-24 466 LINE",
"-24 396 LINE",
"269 396 LINE",
"269 466 LINE"
);
},
{
closed = 1;
nodes = (
"44 260 LINE",
"34 218 LINE",
"95 85 LINE",
"95 85 OFFCURVE",
"152 85 OFFCURVE",
"152 85 CURVE",
"152 260 LINE"
);
},
{
closed = 1;
nodes = (
"91 260 LINE",
"91 182 LINE",
"356 182 LINE",
"356 260 LINE"
);
}
);
};
layerId = "CFA4B904-E3F1-48B6-A7F6-47DC1FF2A3E1";
rightMetricsKey = "ya-deva";
name = Bold;
paths = (
{
closed = 1;
nodes = (
"556 179 OFFCURVE",
"503 156 OFFCURVE",
"452 156 CURVE SMOOTH",
"418 156 OFFCURVE",
"391 169 OFFCURVE",
"372 184 CURVE",
"414 225 OFFCURVE",
"436 253 OFFCURVE",
"436 306 CURVE SMOOTH",
"436 356 OFFCURVE",
"402 414 OFFCURVE",
"348 456 CURVE",
"256 456 LINE",
"316 414 OFFCURVE",
"360 356 OFFCURVE",
"356 307 CURVE SMOOTH",
"352 258 OFFCURVE",
"301 234 OFFCURVE",
"269 217 CURVE",
"275 185 LINE",
"302 131 OFFCURVE",
"366 76 OFFCURVE",
"457 76 CURVE SMOOTH",
"529 76 OFFCURVE",
"582 118 OFFCURVE",
"582 118 CURVE",
"582 224 LINE"
);
},
{
closed = 1;
nodes = (
"206 466 LINE",
"206 396 LINE",
"718 396 LINE",
"718 466 LINE"
);
},
{
closed = 1;
nodes = (
"544 0 LINE",
"629 0 LINE",
"629 466 LINE",
"544 466 LINE"
);
},
{
closed = 1;
nodes = (
"-24 466 LINE",
"-24 396 LINE",
"254 396 LINE",
"254 466 LINE"
);
},
{
closed = 1;
nodes = (
"44 260 LINE",
"34 218 LINE",
"95 85 LINE",
"95 85 OFFCURVE",
"152 85 OFFCURVE",
"152 85 CURVE",
"152 260 LINE"
);
},
{
closed = 1;
nodes = (
"91 260 LINE",
"91 182 LINE",
"341 182 LINE",
"341 260 LINE"
);
}
);
width = 694;
}
);
leftMetricsKey = "n-deva";
rightMetricsKey = "ya-deva";
},
{
color = 1;
glyphname = "n_ra-deva";
lastChange = "2014-09-16 11:37:53 +0530";
layers = (
{
anchors = (
{
name = bottom;
position = "{305, 5}";
},
{
name = top;
position = "{305, 447}";
}
);
layerId = "CFA4B904-E3F1-48B6-A7F6-47DC1FF2A3E1";
name = Bold;
paths = (
{
closed = 1;
nodes = (
"281 0 LINE",
"366 0 LINE",
"366 466 LINE",
"281 466 LINE"
);
},
{
closed = 1;
nodes = (
"-24 466 LINE",
"-24 396 LINE",
"455 396 LINE",
"455 466 LINE"
);
},
{
closed = 1;
nodes = (
"44 290 LINE",
"34 248 LINE",
"95 115 LINE",
"95 115 OFFCURVE",
"152 115 OFFCURVE",
"152 115 CURVE",
"152 290 LINE"
);
},
{
closed = 1;
nodes = (
"91 290 LINE",
"91 212 LINE",
"316 212 LINE",
"316 290 LINE"
);
},
{
closed = 1;
nodes = (
"129 -31 LINE",
"325 140 LINE",
"287 194 LINE",
"74 17 LINE"
);
}
);
width = 431;
}
);
leftMetricsKey = "n-deva";
rightMetricsKey = "ra-deva";
},
{
color = 3;
glyphname = "n_sha-deva";
lastChange = "2014-09-17 05:25:22 +0530";
layers = (
{
anchors = (
{
name = bottom;
position = "{679, 5}";
},
{
name = top;
position = "{679, 447}";
}
);
layerId = "CFA4B904-E3F1-48B6-A7F6-47DC1FF2A3E1";
rightMetricsKey = "sha-deva";
name = Bold;
paths = (
{
closed = 1;
nodes = (
"-24 466 LINE",
"-24 396 LINE",
"264 396 LINE",
"264 466 LINE"
);
},
{
closed = 1;
nodes = (
"44 250 LINE",
"34 208 LINE",
"95 75 LINE",
"95 75 OFFCURVE",
"152 75 OFFCURVE",
"152 75 CURVE",
"152 250 LINE"
);
},
{
closed = 1;
nodes = (
"91 250 LINE",
"91 172 LINE",
"326 172 LINE",
"326 250 LINE"
);
},
{
closed = 1;
nodes = (
"545 426 OFFCURVE",
"488 479 OFFCURVE",
"414 479 CURVE SMOOTH",
"355 479 OFFCURVE",
"300 443 OFFCURVE",
"300 373 CURVE SMOOTH",
"300 323 OFFCURVE",
"328 291 OFFCURVE",
"377 262 CURVE",
"417 322 LINE",
"393 340 OFFCURVE",
"380 351 OFFCURVE",
"380 372 CURVE SMOOTH",
"380 392 OFFCURVE",
"393 403 OFFCURVE",
"414 403 CURVE SMOOTH",
"440 403 OFFCURVE",
"462 379 OFFCURVE",
"464 348 CURVE SMOOTH",
"470 253 OFFCURVE",
"372 200 OFFCURVE",
"337 181 CURVE",
"392 118 LINE",
"455 159 OFFCURVE",
"545 225 OFFCURVE",
"545 338 CURVE SMOOTH"
);
},
{
closed = 1;
nodes = (
"270 155 OFFCURVE",
"294 123 OFFCURVE",
"352 117 CURVE",
"475 -23 LINE",
"475 -23 OFFCURVE",
"532 32 OFFCURVE",
"532 32 CURVE",
"326 250 LINE",
"293 245 OFFCURVE",
"270 221 OFFCURVE",
"270 191 CURVE SMOOTH"
);
},
{
closed = 1;
nodes = (
"579 466 LINE",
"579 396 LINE",
"826 396 LINE",
"826 466 LINE"
);
},
{
closed = 1;
nodes = (
"652 0 LINE",
"737 0 LINE",
"737 466 LINE",
"652 466 LINE"
);
}
);
width = 802;
}
);
leftMetricsKey = "n-deva";
rightMetricsKey = "sha-deva";
},
{
color = 3;
glyphname = "n_sa-deva";
lastChange = "2014-09-17 05:09:34 +0530";
layers = (
{
anchors = (
{
name = bottom;
position = "{680, 5}";
},
{
name = top;
position = "{680, 447}";
}
);
layerId = "CFA4B904-E3F1-48B6-A7F6-47DC1FF2A3E1";
rightMetricsKey = "sa-deva";
name = Bold;
paths = (
{
closed = 1;
nodes = (
"-24 466 LINE",
"-24 396 LINE",
"254 396 LINE",
"254 466 LINE"
);
},
{
closed = 1;
nodes = (
"44 254 LINE",
"34 212 LINE",
"95 79 LINE",
"95 79 OFFCURVE",
"152 79 OFFCURVE",
"152 79 CURVE",
"152 254 LINE"
);
},
{
closed = 1;
nodes = (
"91 254 LINE",
"91 176 LINE",
"315 176 LINE",
"315 254 LINE"
);
},
{
closed = 1;
nodes = (
"206 466 LINE",
"206 396 LINE",
"797 396 LINE",
"797 466 LINE"
);
},
{
closed = 1;
nodes = (
"623 0 LINE",
"708 0 LINE",
"708 466 LINE",
"623 466 LINE"
);
},
{
closed = 1;
nodes = (
"657 248 OFFCURVE",
"614 223 OFFCURVE",
"542 223 CURVE SMOOTH",
"475 223 OFFCURVE",
"464 233 OFFCURVE",
"428 248 CURVE",
"369 190 LINE",
"427 160 OFFCURVE",
"488 148 OFFCURVE",
"530 148 CURVE SMOOTH",
"596 148 OFFCURVE",
"657 167 OFFCURVE",
"657 167 CURVE",
"657 248 LINE"
);
},
{
closed = 1;
nodes = (
"332 423 OFFCURVE",
"406 403 OFFCURVE",
"406 306 CURVE SMOOTH",
"406 217 OFFCURVE",
"299 216 OFFCURVE",
"299 216 CURVE SMOOTH",
"299 216 OFFCURVE",
"329 147 OFFCURVE",
"329 147 CURVE",
"387 147 OFFCURVE",
"486 195 OFFCURVE",
"486 304 CURVE SMOOTH",
"486 410 OFFCURVE",
"413 448 OFFCURVE",
"413 448 CURVE",
"332 423 LINE"
);
},
{
closed = 1;
nodes = (
"425 -20 LINE",
"425 -20 OFFCURVE",
"493 27 OFFCURVE",
"493 27 CURVE",
"315 254 LINE",
"252 205 LINE"
);
}
);
width = 773;
}
);
leftMetricsKey = "n-deva";
rightMetricsKey = "sa-deva";
},
{
color = 3;
glyphname = "n_ha-deva";
lastChange = "2014-09-17 05:24:22 +0530";
layers = (
{
anchors = (
{
name = top;
position = "{545, 447}";
}
);
layerId = "CFA4B904-E3F1-48B6-A7F6-47DC1FF2A3E1";
name = Bold;
paths = (
{
closed = 1;
nodes = (
"-24 466 LINE",
"-24 396 LINE",
"264 396 LINE",
"264 466 LINE"
);
},
{
closed = 1;
nodes = (
"44 270 LINE",
"34 228 LINE",
"95 95 LINE",
"95 95 OFFCURVE",
"152 95 OFFCURVE",
"152 95 CURVE",
"152 270 LINE"
);
},
{
closed = 1;
nodes = (
"91 270 LINE",
"91 192 LINE",
"311 192 LINE",
"311 270 LINE"
);
},
{
closed = 1;
nodes = (
"196 466 LINE",
"196 396 LINE",
"661 396 LINE",
"661 466 LINE"
);
},
{
closed = 1;
nodes = (
"390 198 OFFCURVE",
"356 213 OFFCURVE",
"356 242 CURVE SMOOTH",
"356 265 OFFCURVE",
"382 272 OFFCURVE",
"432 272 CURVE SMOOTH",
"486 272 OFFCURVE",
"507 267 OFFCURVE",
"542 263 CURVE",
"552 270 LINE",
"552 466 LINE",
"476 466 LINE",
"476 342 LINE",
"460 345 OFFCURVE",
"438 346 OFFCURVE",
"425 346 CURVE SMOOTH",
"332 346 OFFCURVE",
"274 317 OFFCURVE",
"274 246 CURVE SMOOTH",
"274 201 OFFCURVE",
"295 176 OFFCURVE",
"326 143 CURVE",
"391 198 LINE"
);
},
{
closed = 1;
nodes = (
"277 -27 OFFCURVE",
"370 -80 OFFCURVE",
"521 -80 CURVE",
"537 -8 LINE",
"430 -8 OFFCURVE",
"353 18 OFFCURVE",
"353 78 CURVE SMOOTH",
"353 121 OFFCURVE",
"389 144 OFFCURVE",
"445 144 CURVE",
"476 142 OFFCURVE",
"498 136 OFFCURVE",
"498 111 CURVE SMOOTH",
"498 95 OFFCURVE",
"491 86 OFFCURVE",
"484 77 CURVE",
"548 34 LINE",
"564 53 OFFCURVE",
"580 77 OFFCURVE",
"580 111 CURVE SMOOTH",
"580 182 OFFCURVE",
"519 219 OFFCURVE",
"439 219 CURVE SMOOTH",
"400 219 OFFCURVE",
"373 208 OFFCURVE",
"347 195 CURVE SMOOTH",
"305 174 OFFCURVE",
"277 132 OFFCURVE",
"277 80 CURVE SMOOTH"
);
}
);
width = 637;
}
);
leftMetricsKey = "n-deva";
},
{
color = 1;
glyphname = "p_ra-deva";
lastChange = "2014-09-16 09:03:07 +0530";
layers = (
{
anchors = (
{
name = bottom;
position = "{343, 5}";
},
{
name = top;
position = "{343, 447}";
}
);
background = {
paths = (
{
closed = 1;
nodes = (
"310 0 LINE",
"366 0 LINE",
"366 456 LINE",
"310 456 LINE"
);
},
{
closed = 1;
nodes = (
"-21 456 LINE",
"-21 408 LINE",
"464 408 LINE",
"464 456 LINE"
);
},
{
closed = 1;
nodes = (
"346 195 OFFCURVE",
"282 158 OFFCURVE",
"208 158 CURVE SMOOTH",
"154 158 OFFCURVE",
"117 193 OFFCURVE",
"117 249 CURVE SMOOTH",
"117 456 LINE",
"61 456 LINE",
"61 249 LINE SMOOTH",
"61 169 OFFCURVE",
"110 110 OFFCURVE",
"210 110 CURVE SMOOTH",
"273 110 OFFCURVE",
"346 138 OFFCURVE",
"346 138 CURVE",
"346 195 LINE"
);
},
{
closed = 1;
nodes = (
"65 30 OFFCURVE",
"101 -9 OFFCURVE",
"101 -9 CURVE SMOOTH",
"101 -9 OFFCURVE",
"330 137 OFFCURVE",
"330 137 CURVE",
"301 175 LINE",
"65 30 LINE"
);
}
);
};
layerId = "CFA4B904-E3F1-48B6-A7F6-47DC1FF2A3E1";
name = Bold;
paths = (
{
closed = 1;
nodes = (
"354 227 OFFCURVE",
"310 174 OFFCURVE",
"216 174 CURVE SMOOTH",
"162 174 OFFCURVE",
"145 207 OFFCURVE",
"145 265 CURVE SMOOTH",
"145 456 LINE",
"60 456 LINE",
"60 248 LINE SMOOTH",
"60 167 OFFCURVE",
"118 101 OFFCURVE",
"218 101 CURVE SMOOTH",
"291 101 OFFCURVE",
"354 136 OFFCURVE",
"354 136 CURVE",
"354 227 LINE"
);
},
{
closed = 1;
nodes = (
"299 0 LINE",
"384 0 LINE",
"384 466 LINE",
"299 466 LINE"
);
},
{
closed = 1;
nodes = (
"-24 466 LINE",
"-24 396 LINE",
"474 396 LINE",
"474 466 LINE"
);
},
{
closed = 1;
nodes = (
"108 -18 LINE",
"347 140 LINE",
"347 210 LINE",
"53 42 LINE"
);
}
);
width = 450;
}
);
leftMetricsKey = "p-deva";
rightMetricsKey = "ra-deva";
},
{
color = 1;
glyphname = "ph_ra-deva";
lastChange = "2014-09-16 10:21:18 +0530";
layers = (
{
background = {
paths = (
{
closed = 1;
nodes = (
"354 227 OFFCURVE",
"310 174 OFFCURVE",
"216 174 CURVE SMOOTH",
"162 174 OFFCURVE",
"145 207 OFFCURVE",
"145 265 CURVE SMOOTH",
"145 456 LINE",
"60 456 LINE",
"60 248 LINE SMOOTH",
"60 167 OFFCURVE",
"118 101 OFFCURVE",
"218 101 CURVE SMOOTH",
"291 101 OFFCURVE",
"354 136 OFFCURVE",
"354 136 CURVE",
"354 227 LINE"
);
},
{
closed = 1;
nodes = (
"299 0 LINE",
"384 0 LINE",
"384 466 LINE",
"299 466 LINE"
);
},
{
closed = 1;
nodes = (
"-24 466 LINE",
"-24 396 LINE",
"474 396 LINE",
"474 466 LINE"
);
},
{
closed = 1;
nodes = (
"108 -18 LINE",
"347 140 LINE",
"347 210 LINE",
"53 42 LINE"
);
}
);
};
layerId = "CFA4B904-E3F1-48B6-A7F6-47DC1FF2A3E1";
name = Bold;
paths = (
{
closed = 1;
nodes = (
"354 218 OFFCURVE",
"310 171 OFFCURVE",
"226 171 CURVE SMOOTH",
"166 171 OFFCURVE",
"145 201 OFFCURVE",
"145 262 CURVE SMOOTH",
"145 456 LINE",
"60 456 LINE",
"60 242 LINE SMOOTH",
"60 162 OFFCURVE",
"118 101 OFFCURVE",
"218 101 CURVE SMOOTH",
"291 101 OFFCURVE",
"354 141 OFFCURVE",
"354 133 CURVE",
"354 210 LINE"
);
},
{
closed = 1;
nodes = (
"299 0 LINE",
"384 0 LINE",
"384 466 LINE",
"299 466 LINE"
);
},
{
closed = 1;
nodes = (
"-24 466 LINE",
"-24 396 LINE",
"677 396 LINE",
"677 466 LINE"
);
},
{
closed = 1;
nodes = (
"609 296 OFFCURVE",
"549 345 OFFCURVE",
"467 345 CURVE SMOOTH",
"395 345 OFFCURVE",
"362 308 OFFCURVE",
"335 290 CURVE",
"349 210 LINE",
"365 222 OFFCURVE",
"417 267 OFFCURVE",
"463 267 CURVE SMOOTH",
"508 267 OFFCURVE",
"527 241 OFFCURVE",
"527 205 CURVE SMOOTH",
"527 159 OFFCURVE",
"494 132 OFFCURVE",
"473 112 CURVE",
"530 55 LINE",
"570 88 OFFCURVE",
"609 134 OFFCURVE",
"609 204 CURVE SMOOTH"
);
},
{
closed = 1;
nodes = (
"108 -18 LINE",
"347 140 LINE",
"347 210 LINE",
"53 42 LINE"
);
}
);
width = 653;
}
);
leftMetricsKey = "ph-deva";
},
{
color = 1;
glyphname = "b_ra-deva";
layers = (
{
anchors = (
{
name = bottom;
position = "{311, 5}";
},
{
name = top;
position = "{311, 447}";
}
);
layerId = "CFA4B904-E3F1-48B6-A7F6-47DC1FF2A3E1";
name = Bold;
paths = (
{
closed = 1;
nodes = (
"-24 466 LINE",
"-24 396 LINE",
"459 396 LINE",
"459 466 LINE"
);
},
{
closed = 1;
nodes = (
"115 245 OFFCURVE",
"157 268 OFFCURVE",
"203 268 CURVE SMOOTH",
"255 268 OFFCURVE",
"281 241 OFFCURVE",
"297 228 CURVE",
"313 301 LINE",
"286 317 OFFCURVE",
"253 342 OFFCURVE",
"189 342 CURVE SMOOTH",
"111 342 OFFCURVE",
"39 287 OFFCURVE",
"39 197 CURVE SMOOTH",
"39 110 OFFCURVE",
"106 58 OFFCURVE",
"189 58 CURVE SMOOTH",
"251 58 OFFCURVE",
"286 80 OFFCURVE",
"313 98 CURVE",
"297 167 LINE",
"281 155 OFFCURVE",
"255 122 OFFCURVE",
"203 122 CURVE SMOOTH",
"157 122 OFFCURVE",
"115 146 OFFCURVE",
"115 197 CURVE SMOOTH"
);
},
{
closed = 1;
nodes = (
"285 0 LINE",
"370 0 LINE",
"370 466 LINE",
"285 466 LINE"
);
},
{
closed = 1;
nodes = (
"272 90 LINE",
"314 130 LINE",
"145 306 LINE",
"96 270 LINE"
);
},
{
closed = 1;
nodes = (
"100 -31 LINE",
"328 108 LINE",
"309 149 LINE",
"48 28 LINE"
);
}
);
width = 435;
}
);
leftMetricsKey = "b-deva";
rightMetricsKey = "ra-deva";
},
{
color = 1;
glyphname = "bh_ra-deva";
lastChange = "2014-09-16 11:17:16 +0530";
layers = (
{
anchors = (
{
name = bottom;
position = "{428, 5}";
},
{
name = top;
position = "{428, 447}";
}
);
background = {
paths = (
{
closed = 1;
nodes = (
"416 0 LINE",
"472 0 LINE",
"472 456 LINE",
"416 456 LINE"
);
},
{
closed = 1;
nodes = (
"253 155 LINE",
"253 320 LINE SMOOTH",
"253 412 OFFCURVE",
"228 466 OFFCURVE",
"157 466 CURVE SMOOTH",
"112 466 OFFCURVE",
"71 434 OFFCURVE",
"71 379 CURVE SMOOTH",
"71 343 OFFCURVE",
"95 306 OFFCURVE",
"144 280 CURVE",
"171 321 LINE",
"147 335 OFFCURVE",
"124 351 OFFCURVE",
"124 379 CURVE SMOOTH",
"124 399 OFFCURVE",
"138 413 OFFCURVE",
"157 413 CURVE SMOOTH",
"203 413 OFFCURVE",
"198 339 OFFCURVE",
"198 320 CURVE SMOOTH",
"198 155 LINE"
);
},
{
closed = 1;
nodes = (
"320 456 LINE",
"320 408 LINE",
"570 408 LINE",
"570 456 LINE"
);
},
{
closed = 1;
nodes = (
"134 219 LINE",
"134 186 LINE",
"215 100 LINE",
"215 100 OFFCURVE",
"253 100 OFFCURVE",
"253 100 CURVE",
"253 219 LINE"
);
},
{
closed = 1;
nodes = (
"222 219 LINE",
"222 171 LINE",
"461 171 LINE",
"461 219 LINE"
);
},
{
closed = 1;
nodes = (
"224 -28 LINE",
"224 -28 OFFCURVE",
"460 177 OFFCURVE",
"460 177 CURVE",
"435 210 LINE",
"192 13 LINE"
);
}
);
};
layerId = "CFA4B904-E3F1-48B6-A7F6-47DC1FF2A3E1";
rightMetricsKey = "ra-deva";
name = Bold;
paths = (
{
closed = 1;
nodes = (
"392 0 LINE",
"477 0 LINE",
"477 466 LINE",
"392 466 LINE"
);
},
{
closed = 1;
nodes = (
"242 145 LINE",
"242 310 LINE SMOOTH",
"242 422 OFFCURVE",
"210 479 OFFCURVE",
"126 479 CURVE SMOOTH",
"57 479 OFFCURVE",
"12 434 OFFCURVE",
"12 369 CURVE SMOOTH",
"12 317 OFFCURVE",
"46 277 OFFCURVE",
"95 251 CURVE",
"133 311 LINE",
"109 325 OFFCURVE",
"86 341 OFFCURVE",
"86 369 CURVE SMOOTH",
"86 389 OFFCURVE",
"100 403 OFFCURVE",
"119 403 CURVE SMOOTH",
"165 403 OFFCURVE",
"160 329 OFFCURVE",
"160 310 CURVE SMOOTH",
"160 145 LINE"
);
},
{
closed = 1;
nodes = (
"301 466 LINE",
"301 396 LINE",
"566 396 LINE",
"566 466 LINE"
);
},
{
closed = 1;
nodes = (
"213 226 LINE",
"213 156 LINE",
"452 156 LINE",
"452 226 LINE"
);
},
{
closed = 1;
nodes = (
"104 226 LINE",
"104 184 LINE",
"193 71 LINE",
"193 71 OFFCURVE",
"242 71 OFFCURVE",
"242 71 CURVE",
"242 226 LINE"
);
},
{
closed = 1;
nodes = (
"259 -43 LINE",
"446 134 LINE",
"408 188 LINE",
"207 7 LINE"
);
}
);
width = 542;
}
);
leftMetricsKey = "bh-deva";
rightMetricsKey = "ra-deva";
},
{
color = 3;
glyphname = "m_ca-deva";
lastChange = "2014-09-17 06:32:30 +0530";
layers = (
{
anchors = (
{
name = bottom;
position = "{670, 5}";
},
{
name = top;
position = "{670, 447}";
}
);
layerId = "CFA4B904-E3F1-48B6-A7F6-47DC1FF2A3E1";
name = Bold;
paths = (
{
closed = 1;
nodes = (
"-24 466 LINE",
"-24 396 LINE",
"308 396 LINE",
"308 466 LINE"
);
},
{
closed = 1;
nodes = (
"39 201 LINE",
"39 159 LINE",
"138 36 LINE",
"138 36 OFFCURVE",
"195 36 OFFCURVE",
"195 36 CURVE",
"195 201 LINE"
);
},
{
closed = 1;
nodes = (
"134 201 LINE",
"134 123 LINE",
"407 123 LINE",
"407 201 LINE"
);
},
{
closed = 1;
nodes = (
"110 123 LINE",
"195 123 LINE",
"195 466 LINE",
"110 466 LINE"
);
},
{
closed = 1;
nodes = (
"395 281 OFFCURVE",
"363 265 OFFCURVE",
"363 207 CURVE SMOOTH",
"363 122 OFFCURVE",
"430 71 OFFCURVE",
"515 71 CURVE SMOOTH",
"611 71 OFFCURVE",
"646 114 OFFCURVE",
"646 115 CURVE",
"646 211 LINE",
"646 211 OFFCURVE",
"613 149 OFFCURVE",
"523 149 CURVE SMOOTH",
"485 149 OFFCURVE",
"448 164 OFFCURVE",
"448 207 CURVE SMOOTH",
"448 240 OFFCURVE",
"462 271 OFFCURVE",
"529 279 CURVE",
"423 289 LINE"
);
},
{
closed = 1;
nodes = (
"243 466 LINE",
"243 396 LINE",
"783 396 LINE",
"783 466 LINE"
);
},
{
closed = 1;
nodes = (
"609 0 LINE",
"694 0 LINE",
"694 466 LINE",
"609 466 LINE"
);
},
{
closed = 1;
nodes = (
"289 316 LINE",
"289 244 LINE",
"546 244 LINE",
"546 316 LINE"
);
}
);
width = 759;
}
);
leftMetricsKey = "m-deva";
},
{
color = 3;
glyphname = "m_bha-deva";
lastChange = "2014-09-17 06:23:46 +0530";
layers = (
{
anchors = (
{
name = bottom;
position = "{715, 5}";
},
{
name = top;
position = "{715, 447}";
}
);
background = {
paths = (
{
closed = 1;
nodes = (
"-24 466 LINE",
"-24 396 LINE",
"327 396 LINE",
"327 466 LINE"
);
},
{
closed = 1;
nodes = (
"39 216 LINE",
"39 174 LINE",
"138 51 LINE",
"138 51 OFFCURVE",
"195 51 OFFCURVE",
"195 51 CURVE",
"195 216 LINE"
);
},
{
closed = 1;
nodes = (
"134 216 LINE",
"134 138 LINE",
"386 138 LINE",
"386 216 LINE"
);
},
{
closed = 1;
nodes = (
"110 138 LINE",
"195 138 LINE",
"195 466 LINE",
"110 466 LINE"
);
},
{
closed = 1;
nodes = (
"589 0 LINE",
"674 0 LINE",
"674 466 LINE",
"589 466 LINE"
);
},
{
closed = 1;
nodes = (
"217 466 LINE",
"217 396 LINE",
"763 396 LINE",
"763 466 LINE"
);
},
{
closed = 1;
nodes = (
"286 216 LINE",
"286 174 LINE",
"385 51 LINE",
"385 51 OFFCURVE",
"435 51 OFFCURVE",
"435 51 CURVE",
"435 216 LINE"
);
},
{
closed = 1;
nodes = (
"374 216 LINE",
"374 138 LINE",
"627 138 LINE",
"627 216 LINE"
);
},
{
closed = 1;
nodes = (
"350 138 LINE",
"435 138 LINE",
"435 466 LINE",
"350 466 LINE"
);
}
);
};
layerId = "CFA4B904-E3F1-48B6-A7F6-47DC1FF2A3E1";
name = Bold;
paths = (
{
closed = 1;
nodes = (
"-24 466 LINE",
"-24 396 LINE",
"298 396 LINE",
"298 466 LINE"
);
},
{
closed = 1;
nodes = (
"39 206 LINE",
"39 164 LINE",
"138 41 LINE",
"138 41 OFFCURVE",
"195 41 OFFCURVE",
"195 41 CURVE",
"195 206 LINE"
);
},
{
closed = 1;
nodes = (
"134 206 LINE",
"134 128 LINE",
"407 128 LINE",
"407 206 LINE"
);
},
{
closed = 1;
nodes = (
"110 128 LINE",
"195 128 LINE",
"195 466 LINE",
"110 466 LINE"
);
},
{
closed = 1;
nodes = (
"639 0 LINE",
"724 0 LINE",
"724 466 LINE",
"639 466 LINE"
);
},
{
closed = 1;
nodes = (
"504 125 LINE",
"504 310 LINE SMOOTH",
"504 422 OFFCURVE",
"467 479 OFFCURVE",
"383 479 CURVE SMOOTH",
"314 479 OFFCURVE",
"269 434 OFFCURVE",
"269 369 CURVE SMOOTH",
"269 317 OFFCURVE",
"303 277 OFFCURVE",
"352 251 CURVE",
"390 311 LINE",
"366 325 OFFCURVE",
"343 341 OFFCURVE",
"343 369 CURVE SMOOTH",
"343 389 OFFCURVE",
"357 403 OFFCURVE",
"376 403 CURVE SMOOTH",
"422 403 OFFCURVE",
"417 329 OFFCURVE",
"417 310 CURVE SMOOTH",
"417 125 LINE"
);
},
{
closed = 1;
nodes = (
"558 466 LINE",
"558 396 LINE",
"813 396 LINE",
"813 466 LINE"
);
},
{
closed = 1;
nodes = (
"470 206 LINE",
"470 131 LINE",
"699 131 LINE",
"699 206 LINE"
);
},
{
closed = 1;
nodes = (
"366 206 LINE",
"366 164 LINE",
"455 41 LINE",
"455 41 OFFCURVE",
"504 41 OFFCURVE",
"504 41 CURVE",
"504 206 LINE"
);
}
);
width = 819;
}
);
leftMetricsKey = "m-deva";
rightMetricsKey = "bha-deva";
},
{
color = 3;
glyphname = "m_ma-deva";
lastChange = "2014-09-19 12:59:14 +0530";
layers = (
{
anchors = (
{
name = bottom;
position = "{643, 5}";
},
{
name = top;
position = "{642, 447}";
}
);
layerId = "CFA4B904-E3F1-48B6-A7F6-47DC1FF2A3E1";
name = Bold;
paths = (
{
closed = 1;
nodes = (
"-24 466 LINE",
"-24 396 LINE",
"337 396 LINE",
"337 466 LINE"
);
},
{
closed = 1;
nodes = (
"39 216 LINE",
"39 174 LINE",
"138 51 LINE",
"138 51 OFFCURVE",
"195 51 OFFCURVE",
"195 51 CURVE",
"195 216 LINE"
);
},
{
closed = 1;
nodes = (
"134 216 LINE",
"134 138 LINE",
"396 138 LINE",
"396 216 LINE"
);
},
{
closed = 1;
nodes = (
"110 138 LINE",
"195 138 LINE",
"195 466 LINE",
"110 466 LINE"
);
},
{
closed = 1;
nodes = (
"599 0 LINE",
"684 0 LINE",
"684 466 LINE",
"599 466 LINE"
);
},
{
closed = 1;
nodes = (
"217 466 LINE",
"217 396 LINE",
"773 396 LINE",
"773 466 LINE"
);
},
{
closed = 1;
nodes = (
"296 216 LINE",
"296 174 LINE",
"395 51 LINE",
"395 51 OFFCURVE",
"445 51 OFFCURVE",
"445 51 CURVE",
"445 216 LINE"
);
},
{
closed = 1;
nodes = (
"384 216 LINE",
"384 138 LINE",
"637 138 LINE",
"637 216 LINE"
);
},
{
closed = 1;
nodes = (
"360 138 LINE",
"445 138 LINE",
"445 466 LINE",
"360 466 LINE"
);
}
);
width = 749;
}
);
leftMetricsKey = "m-deva";
},
{
color = 1;
glyphname = "m_ra-deva";
lastChange = "2014-09-16 10:49:59 +0530";
layers = (
{
anchors = (
{
name = bottom;
position = "{401, 5}";
},
{
name = top;
position = "{365, 447}";
}
);
background = {
paths = (
{
closed = 1;
nodes = (
"365 0 LINE",
"421 0 LINE",
"421 456 LINE",
"365 456 LINE"
);
},
{
closed = 1;
nodes = (
"123 150 LINE",
"178 150 LINE",
"178 456 LINE",
"123 456 LINE"
);
},
{
closed = 1;
nodes = (
"3 456 LINE",
"3 408 LINE",
"518 408 LINE",
"518 456 LINE"
);
},
{
closed = 1;
nodes = (
"61 214 LINE",
"61 181 LINE",
"140 91 LINE",
"140 91 OFFCURVE",
"178 91 OFFCURVE",
"178 91 CURVE",
"178 214 LINE"
);
},
{
closed = 1;
nodes = (
"146 214 LINE",
"146 166 LINE",
"406 166 LINE",
"406 214 LINE"
);
},
{
closed = 1;
nodes = (
"157 -28 LINE",
"157 -28 OFFCURVE",
"393 159 OFFCURVE",
"393 159 CURVE",
"368 192 LINE",
"125 13 LINE"
);
}
);
};
layerId = "CFA4B904-E3F1-48B6-A7F6-47DC1FF2A3E1";
rightMetricsKey = "ra-deva";
name = Bold;
paths = (
{
closed = 1;
nodes = (
"359 0 LINE",
"444 0 LINE",
"444 466 LINE",
"359 466 LINE"
);
},
{
closed = 1;
nodes = (
"-24 466 LINE",
"-24 396 LINE",
"533 396 LINE",
"533 466 LINE"
);
},
{
closed = 1;
nodes = (
"39 236 LINE",
"39 194 LINE",
"138 81 LINE",
"138 81 OFFCURVE",
"191 81 OFFCURVE",
"191 81 CURVE",
"191 236 LINE"
);
},
{
closed = 1;
nodes = (
"134 236 LINE",
"134 163 LINE",
"397 163 LINE",
"397 236 LINE"
);
},
{
closed = 1;
nodes = (
"110 163 LINE",
"191 163 LINE",
"191 466 LINE",
"110 466 LINE"
);
},
{
closed = 1;
nodes = (
"201 -41 LINE",
"397 130 LINE",
"359 184 LINE",
"146 7 LINE"
);
}
);
width = 509;
}
);
leftMetricsKey = "m-deva";
rightMetricsKey = "ra-deva";
},
{
color = 1;
glyphname = "y_ra-deva";
lastChange = "2014-09-16 10:56:34 +0530";
layers = (
{
anchors = (
{
name = bottom;
position = "{357, 5}";
},
{
name = top;
position = "{357, 447}";
}
);
layerId = "CFA4B904-E3F1-48B6-A7F6-47DC1FF2A3E1";
name = Bold;
paths = (
{
closed = 1;
nodes = (
"326 179 OFFCURVE",
"273 156 OFFCURVE",
"222 156 CURVE SMOOTH",
"188 156 OFFCURVE",
"159 167 OFFCURVE",
"140 182 CURVE",
"182 223 OFFCURVE",
"206 253 OFFCURVE",
"206 306 CURVE SMOOTH",
"206 356 OFFCURVE",
"172 414 OFFCURVE",
"118 456 CURVE",
"20 456 LINE",
"80 414 OFFCURVE",
"124 356 OFFCURVE",
"120 307 CURVE SMOOTH",
"116 258 OFFCURVE",
"79 234 OFFCURVE",
"47 217 CURVE",
"34 185 LINE",
"61 131 OFFCURVE",
"136 84 OFFCURVE",
"227 84 CURVE SMOOTH",
"299 84 OFFCURVE",
"352 126 OFFCURVE",
"352 126 CURVE",
"352 224 LINE"
);
},
{
closed = 1;
nodes = (
"-24 466 LINE",
"-24 396 LINE",
"488 396 LINE",
"488 466 LINE"
);
},
{
closed = 1;
nodes = (
"314 0 LINE",
"399 0 LINE",
"399 466 LINE",
"314 466 LINE"
);
},
{
closed = 1;
nodes = (
"120 -26 LINE",
"356 125 LINE",
"327 166 LINE",
"68 33 LINE"
);
}
);
width = 464;
}
);
leftMetricsKey = "y-deva";
rightMetricsKey = "ra-deva";
},
{
color = 1;
glyphname = "l_ra-deva";
lastChange = "2014-09-16 11:37:53 +0530";
layers = (
{
layerId = "CFA4B904-E3F1-48B6-A7F6-47DC1FF2A3E1";
name = Bold;
paths = (
{
closed = 1;
nodes = (
"396 0 LINE",
"480 0 LINE",
"480 466 LINE",
"396 466 LINE"
);
},
{
closed = 1;
nodes = (
"-24 466 LINE",
"-24 396 LINE",
"569 396 LINE",
"569 466 LINE"
);
},
{
closed = 1;
nodes = (
"279 287 OFFCURVE",
"239 321 OFFCURVE",
"174 321 CURVE SMOOTH",
"99 321 OFFCURVE",
"42 269 OFFCURVE",
"42 189 CURVE SMOOTH",
"42 74 OFFCURVE",
"140 -23 OFFCURVE",
"140 -23 CURVE",
"215 12 LINE",
"194 34 OFFCURVE",
"126 111 OFFCURVE",
"126 179 CURVE SMOOTH",
"126 222 OFFCURVE",
"142 243 OFFCURVE",
"184 243 CURVE SMOOTH",
"225 243 OFFCURVE",
"249 196 OFFCURVE",
"249 196 CURVE",
"307 246 LINE"
);
},
{
closed = 1;
nodes = (
"230 138 OFFCURVE",
"308 125 OFFCURVE",
"308 125 CURVE",
"307 135 OFFCURVE",
"306 150 OFFCURVE",
"306 172 CURVE SMOOTH",
"306 219 OFFCURVE",
"330 244 OFFCURVE",
"369 243 CURVE SMOOTH",
"394 242 OFFCURVE",
"416 233 OFFCURVE",
"434 219 CURVE",
"428 304 LINE",
"405 317 OFFCURVE",
"384 319 OFFCURVE",
"365 319 CURVE SMOOTH",
"289 319 OFFCURVE",
"227 281 OFFCURVE",
"227 179 CURVE SMOOTH",
"227 169 OFFCURVE",
"228 148 OFFCURVE",
"230 138 CURVE"
);
},
{
closed = 1;
nodes = (
"254 47 LINE",
"313 -1 LINE",
"446 142 LINE",
"401 181 LINE"
);
}
);
width = 545;
}
);
leftMetricsKey = "l-deva";
},
{
color = 1;
glyphname = "v_ra-deva";
layers = (
{
anchors = (
{
name = bottom;
position = "{324, 5}";
},
{
name = top;
position = "{319, 447}";
}
);
background = {
paths = (
{
closed = 1;
nodes = (
"121 250 OFFCURVE",
"160 267 OFFCURVE",
"206 267 CURVE SMOOTH",
"258 267 OFFCURVE",
"284 242 OFFCURVE",
"300 225 CURVE",
"316 301 LINE",
"289 317 OFFCURVE",
"256 342 OFFCURVE",
"192 342 CURVE SMOOTH",
"109 342 OFFCURVE",
"42 295 OFFCURVE",
"42 202 CURVE SMOOTH",
"42 121 OFFCURVE",
"109 64 OFFCURVE",
"192 64 CURVE SMOOTH",
"254 64 OFFCURVE",
"289 86 OFFCURVE",
"316 104 CURVE",
"302 170 LINE",
"300 179 LINE",
"284 167 OFFCURVE",
"258 138 OFFCURVE",
"206 138 CURVE SMOOTH",
"160 138 OFFCURVE",
"121 160 OFFCURVE",
"121 202 CURVE SMOOTH"
);
},
{
closed = 1;
nodes = (
"100 -29 LINE",
"328 110 LINE",
"309 151 LINE",
"48 30 LINE"
);
}
);
};
layerId = "CFA4B904-E3F1-48B6-A7F6-47DC1FF2A3E1";
name = Bold;
paths = (
{
closed = 1;
nodes = (
"-24 466 LINE",
"-24 396 LINE",
"450 396 LINE",
"450 466 LINE"
);
},
{
closed = 1;
nodes = (
"119 246 OFFCURVE",
"158 265 OFFCURVE",
"204 265 CURVE SMOOTH",
"256 265 OFFCURVE",
"282 240 OFFCURVE",
"298 223 CURVE",
"314 302 LINE",
"287 318 OFFCURVE",
"254 343 OFFCURVE",
"190 343 CURVE SMOOTH",
"107 343 OFFCURVE",
"37 295 OFFCURVE",
"37 198 CURVE SMOOTH",
"37 110 OFFCURVE",
"107 62 OFFCURVE",
"190 62 CURVE SMOOTH",
"252 62 OFFCURVE",
"287 84 OFFCURVE",
"314 102 CURVE",
"298 173 LINE",
"282 161 OFFCURVE",
"256 132 OFFCURVE",
"204 132 CURVE SMOOTH",
"158 132 OFFCURVE",
"119 155 OFFCURVE",
"119 198 CURVE SMOOTH"
);
},
{
closed = 1;
nodes = (
"276 0 LINE",
"361 0 LINE",
"361 466 LINE",
"276 466 LINE"
);
},
{
closed = 1;
nodes = (
"100 -29 LINE",
"328 110 LINE",
"309 151 LINE",
"48 30 LINE"
);
}
);
width = 426;
}
);
leftMetricsKey = "v-deva";
rightMetricsKey = "ra-deva";
},
{
color = 1;
glyphname = "ss_ra-deva";
layers = (
{
anchors = (
{
name = bottom;
position = "{347, 5}";
},
{
name = top;
position = "{347, 447}";
}
);
background = {
anchors = (
{
name = top;
position = "{343, 447}";
},
{
name = bottom;
position = "{343, 5}";
}
);
paths = (
{
closed = 1;
nodes = (
"354 227 OFFCURVE",
"310 174 OFFCURVE",
"216 174 CURVE SMOOTH",
"162 174 OFFCURVE",
"145 207 OFFCURVE",
"145 265 CURVE SMOOTH",
"145 456 LINE",
"60 456 LINE",
"60 248 LINE SMOOTH",
"60 167 OFFCURVE",
"118 101 OFFCURVE",
"218 101 CURVE SMOOTH",
"291 101 OFFCURVE",
"354 136 OFFCURVE",
"354 136 CURVE",
"354 227 LINE"
);
},
{
closed = 1;
nodes = (
"299 0 LINE",
"384 0 LINE",
"384 466 LINE",
"299 466 LINE"
);
},
{
closed = 1;
nodes = (
"-24 466 LINE",
"-24 396 LINE",
"474 396 LINE",
"474 466 LINE"
);
},
{
closed = 1;
nodes = (
"108 -18 LINE",
"347 140 LINE",
"347 210 LINE",
"53 42 LINE"
);
}
);
};
layerId = "CFA4B904-E3F1-48B6-A7F6-47DC1FF2A3E1";
name = Bold;
paths = (
{
closed = 1;
nodes = (
"354 212 OFFCURVE",
"300 165 OFFCURVE",
"216 165 CURVE SMOOTH",
"162 165 OFFCURVE",
"145 200 OFFCURVE",
"145 256 CURVE SMOOTH",
"145 313 LINE",
"145 367 OFFCURVE",
"112 402 OFFCURVE",
"95 456 CURVE",
"60 456 LINE",
"60 240 LINE SMOOTH",
"60 160 OFFCURVE",
"118 99 OFFCURVE",
"218 99 CURVE SMOOTH",
"291 99 OFFCURVE",
"354 139 OFFCURVE",
"354 139 CURVE",
"354 212 LINE"
);
},
{
closed = 1;
nodes = (
"309 0 LINE",
"394 0 LINE",
"394 466 LINE",
"309 466 LINE"
);
},
{
closed = 1;
nodes = (
"-24 466 LINE",
"-24 396 LINE",
"483 396 LINE",
"483 466 LINE"
);
},
{
closed = 1;
nodes = (
"146 336 OFFCURVE",
"217 250 OFFCURVE",
"288 165 CURVE",
"335 207 LINE",
"129 459 LINE",
"75 421 LINE"
);
},
{
closed = 1;
nodes = (
"108 -18 LINE",
"347 140 LINE",
"347 210 LINE",
"53 42 LINE"
);
}
);
width = 459;
}
);
leftMetricsKey = "ss-deva";
rightMetricsKey = "ra-deva";
},
{
color = 1;
glyphname = "s_ra-deva";
lastChange = "2014-09-16 11:19:05 +0530";
layers = (
{
anchors = (
{
name = bottom;
position = "{435, 5}";
},
{
name = top;
position = "{435, 447}";
}
);
layerId = "CFA4B904-E3F1-48B6-A7F6-47DC1FF2A3E1";
name = Bold;
paths = (
{
closed = 1;
nodes = (
"-24 466 LINE",
"-24 396 LINE",
"587 396 LINE",
"587 466 LINE"
);
},
{
closed = 1;
nodes = (
"413 0 LINE",
"498 0 LINE",
"498 466 LINE",
"413 466 LINE"
);
},
{
closed = 1;
nodes = (
"427 242 OFFCURVE",
"384 220 OFFCURVE",
"312 220 CURVE SMOOTH",
"245 220 OFFCURVE",
"234 233 OFFCURVE",
"198 248 CURVE",
"139 195 LINE",
"197 165 OFFCURVE",
"268 153 OFFCURVE",
"310 153 CURVE SMOOTH",
"376 153 OFFCURVE",
"427 179 OFFCURVE",
"427 179 CURVE",
"427 242 LINE"
);
},
{
closed = 1;
nodes = (
"102 423 OFFCURVE",
"176 403 OFFCURVE",
"176 306 CURVE SMOOTH",
"176 217 OFFCURVE",
"69 216 OFFCURVE",
"69 216 CURVE SMOOTH",
"69 216 OFFCURVE",
"99 147 OFFCURVE",
"99 147 CURVE",
"157 147 OFFCURVE",
"256 195 OFFCURVE",
"256 304 CURVE SMOOTH",
"256 410 OFFCURVE",
"183 448 OFFCURVE",
"183 448 CURVE",
"102 423 LINE"
);
},
{
closed = 1;
nodes = (
"195 -20 LINE",
"195 -20 OFFCURVE",
"260 25 OFFCURVE",
"260 25 CURVE",
"82 252 LINE",
"22 205 LINE"
);
},
{
closed = 1;
nodes = (
"269 71 LINE",
"328 23 LINE",
"446 160 LINE",
"401 191 LINE"
);
}
);
width = 563;
}
);
leftMetricsKey = "s-deva";
},
{
color = 4;
glyphname = ideva;
lastChange = "2014-09-11 12:39:35 +0530";
layers = (
{
background = {
paths = (
{
closed = 1;
nodes = (
"-28 456 LINE",
"-28 408 LINE",
"400 408 LINE",
"400 456 LINE"
);
},
{
closed = 1;
nodes = (
"81 53 LINE",
"190 -99 LINE",
"239 -69 LINE",
"140 59 LINE"
);
},
{
closed = 1;
nodes = (
"179 164 OFFCURVE",
"193 165 OFFCURVE",
"206 165 CURVE SMOOTH",
"255 165 OFFCURVE",
"273 144 OFFCURVE",
"273 116 CURVE SMOOTH",
"273 77 OFFCURVE",
"230 59 OFFCURVE",
"185 59 CURVE SMOOTH",
"165 59 OFFCURVE",
"152 60 OFFCURVE",
"139 64 CURVE",
"88 131 LINE",
"47 131 OFFCURVE",
"36 109 OFFCURVE",
"36 90 CURVE SMOOTH",
"36 31 OFFCURVE",
"125 9 OFFCURVE",
"189 9 CURVE SMOOTH",
"269 9 OFFCURVE",
"327 50 OFFCURVE",
"327 115 CURVE SMOOTH",
"327 184 OFFCURVE",
"275 215 OFFCURVE",
"213 215 CURVE SMOOTH",
"199 215 OFFCURVE",
"186 214 OFFCURVE",
"173 214 CURVE SMOOTH",
"121 214 OFFCURVE",
"97 224 OFFCURVE",
"97 256 CURVE SMOOTH",
"97 282 OFFCURVE",
"121 294 OFFCURVE",
"171 294 CURVE SMOOTH",
"233 294 OFFCURVE",
"250 289 OFFCURVE",
"285 285 CURVE",
"295 292 LINE",
"295 456 LINE",
"239 456 LINE",
"239 341 LINE",
"213 344 OFFCURVE",
"207 345 OFFCURVE",
"174 345 CURVE SMOOTH",
"98 345 OFFCURVE",
"45 319 OFFCURVE",
"45 255 CURVE SMOOTH",
"45 167 OFFCURVE",
"134 164 OFFCURVE",
"164 164 CURVE SMOOTH"
);
}
);
};
layerId = "CFA4B904-E3F1-48B6-A7F6-47DC1FF2A3E1";
name = Bold;
paths = (
{
closed = 1;
nodes = (
"252 152 OFFCURVE",
"264 133 OFFCURVE",
"264 116 CURVE SMOOTH",
"264 93 OFFCURVE",
"242 70 OFFCURVE",
"178 70 CURVE SMOOTH",
"158 70 OFFCURVE",
"150 72 OFFCURVE",
"138 76 CURVE",
"89 138 LINE",
"63 138 OFFCURVE",
"27 128 OFFCURVE",
"27 86 CURVE",
"27 39 OFFCURVE",
"101 -3 OFFCURVE",
"189 -3 CURVE SMOOTH",
"285 -3 OFFCURVE",
"345 46 OFFCURVE",
"345 120 CURVE SMOOTH",
"345 189 OFFCURVE",
"291 227 OFFCURVE",
"204 223 CURVE SMOOTH",
"153 221 OFFCURVE",
"117 226 OFFCURVE",
"117 254 CURVE SMOOTH",
"117 272 OFFCURVE",
"133 279 OFFCURVE",
"183 279 CURVE SMOOTH",
"248 279 OFFCURVE",
"270 272 OFFCURVE",
"305 268 CURVE",
"315 275 LINE",
"315 456 LINE",
"239 456 LINE",
"239 348 LINE",
"218 350 OFFCURVE",
"208 351 OFFCURVE",
"175 351 CURVE SMOOTH",
"98 351 OFFCURVE",
"37 322 OFFCURVE",
"37 250 CURVE SMOOTH",
"37 172 OFFCURVE",
"104 142 OFFCURVE",
"192 148 CURVE SMOOTH"
);
},
{
closed = 1;
nodes = (
"-24 466 LINE",
"-24 396 LINE",
"401 396 LINE",
"401 466 LINE"
);
},
{
closed = 1;
nodes = (
"81 47 LINE",
"188 -119 LINE",
"258 -74 LINE",
"140 59 LINE"
);
}
);
width = 376;
}
);
unicode = 0907;
},
{
color = 9;
glyphname = "g-deva";
lastChange = "2014-09-16 09:45:34 +0530";
layers = (
{
layerId = "CFA4B904-E3F1-48B6-A7F6-47DC1FF2A3E1";
name = Bold;
paths = (
{
closed = 1;
nodes = (
"-24 466 LINE",
"-24 396 LINE",
"261 396 LINE",
"261 466 LINE"
);
},
{
closed = 1;
nodes = (
"28 240 LINE",
"28 198 LINE",
"118 75 LINE",
"118 75 OFFCURVE",
"175 75 OFFCURVE",
"175 75 CURVE",
"175 240 LINE"
);
},
{
closed = 1;
nodes = (
"90 180 LINE",
"175 180 LINE",
"175 466 LINE",
"90 466 LINE"
);
}
);
width = 237;
}
);
},
{
color = 9;
glyphname = "gh-deva";
lastChange = "2014-09-16 12:11:34 +0530";
layers = (
{
background = {
paths = (
{
closed = 1;
nodes = (
"220 277 LINE",
"220 277 OFFCURVE",
"121 284 OFFCURVE",
"121 354 CURVE SMOOTH",
"121 426 OFFCURVE",
"200 456 OFFCURVE",
"200 456 CURVE SMOOTH",
"97 456 LINE SMOOTH",
"97 456 OFFCURVE",
"37 422 OFFCURVE",
"37 354 CURVE SMOOTH",
"37 279 OFFCURVE",
"100 249 OFFCURVE",
"116 237 CURVE"
);
},
{
closed = 1;
nodes = (
"114 294 OFFCURVE",
"61 255 OFFCURVE",
"61 191 CURVE SMOOTH",
"61 109 OFFCURVE",
"128 61 OFFCURVE",
"224 61 CURVE SMOOTH",
"309 61 OFFCURVE",
"364 107 OFFCURVE",
"364 108 CURVE",
"364 201 LINE",
"364 201 OFFCURVE",
"311 139 OFFCURVE",
"221 139 CURVE SMOOTH",
"183 139 OFFCURVE",
"146 154 OFFCURVE",
"146 184 CURVE SMOOTH",
"146 210 OFFCURVE",
"181 229 OFFCURVE",
"248 237 CURVE",
"228 310 LINE"
);
},
{
closed = 1;
nodes = (
"-24 466 LINE",
"-24 396 LINE",
"511 396 LINE",
"511 466 LINE"
);
}
);
};
layerId = "CFA4B904-E3F1-48B6-A7F6-47DC1FF2A3E1";
name = Bold;
paths = (
{
closed = 1;
nodes = (
"220 277 LINE",
"220 277 OFFCURVE",
"121 284 OFFCURVE",
"121 354 CURVE SMOOTH",
"121 426 OFFCURVE",
"200 456 OFFCURVE",
"200 456 CURVE SMOOTH",
"97 456 LINE SMOOTH",
"97 456 OFFCURVE",
"37 422 OFFCURVE",
"37 354 CURVE SMOOTH",
"37 279 OFFCURVE",
"100 249 OFFCURVE",
"116 237 CURVE"
);
},
{
closed = 1;
nodes = (
"114 294 OFFCURVE",
"61 255 OFFCURVE",
"61 191 CURVE SMOOTH",
"61 109 OFFCURVE",
"128 61 OFFCURVE",
"224 61 CURVE SMOOTH",
"329 61 OFFCURVE",
"403 130 OFFCURVE",
"403 131 CURVE",
"364 202 LINE",
"364 202 OFFCURVE",
"308 139 OFFCURVE",
"221 139 CURVE SMOOTH",
"183 139 OFFCURVE",
"146 154 OFFCURVE",
"146 184 CURVE SMOOTH",
"146 210 OFFCURVE",
"181 229 OFFCURVE",
"248 237 CURVE",
"228 310 LINE"
);
},
{
closed = 1;
nodes = (
"-24 466 LINE",
"-24 396 LINE",
"310 396 LINE",
"310 466 LINE"
);
}
);
width = 286;
}
);
},
{
color = 9;
glyphname = "t-deva";
lastChange = "2014-09-17 07:26:29 +0530";
layers = (
{
background = {
paths = (
{
closed = 1;
nodes = (
"328 305 OFFCURVE",
"275 305 OFFCURVE",
"191 305 CURVE SMOOTH",
"93 305 OFFCURVE",
"38 272 OFFCURVE",
"38 185 CURVE SMOOTH",
"38 118 OFFCURVE",
"81 43 OFFCURVE",
"117 -17 CURVE",
"187 24 LINE",
"159 73 OFFCURVE",
"125 132 OFFCURVE",
"125 177 CURVE SMOOTH",
"125 215 OFFCURVE",
"146 227 OFFCURVE",
"216 227 CURVE SMOOTH",
"328 227 LINE",
"328 305 LINE"
);
}
);
};
layerId = "CFA4B904-E3F1-48B6-A7F6-47DC1FF2A3E1";
name = Bold;
paths = (
{
closed = 1;
nodes = (
"-24 466 LINE",
"-24 396 LINE",
"256 396 LINE",
"256 466 LINE"
);
},
{
closed = 1;
nodes = (
"328 305 OFFCURVE",
"275 305 OFFCURVE",
"191 305 CURVE SMOOTH",
"93 305 OFFCURVE",
"38 272 OFFCURVE",
"38 185 CURVE SMOOTH",
"38 118 OFFCURVE",
"85 38 OFFCURVE",
"121 -22 CURVE",
"191 19 LINE",
"163 68 OFFCURVE",
"123 132 OFFCURVE",
"123 177 CURVE SMOOTH",
"123 215 OFFCURVE",
"146 227 OFFCURVE",
"216 227 CURVE SMOOTH",
"328 227 LINE",
"328 305 LINE"
);
}
);
width = 228;
}
);
},
{
color = 9;
glyphname = "n-deva";
lastChange = "2014-09-16 09:54:36 +0530";
layers = (
{
layerId = "CFA4B904-E3F1-48B6-A7F6-47DC1FF2A3E1";
name = Bold;
paths = (
{
closed = 1;
nodes = (
"-24 466 LINE",
"-24 396 LINE",
"269 396 LINE",
"269 466 LINE"
);
},
{
closed = 1;
nodes = (
"44 270 LINE",
"34 228 LINE",
"95 95 LINE",
"95 95 OFFCURVE",
"152 95 OFFCURVE",
"152 95 CURVE",
"152 270 LINE"
);
},
{
closed = 1;
nodes = (
"91 270 LINE",
"91 192 LINE",
"316 192 LINE",
"316 270 LINE"
);
}
);
width = 245;
}
);
},
{
color = 9;
glyphname = "bh-deva";
lastChange = "2014-09-16 10:06:19 +0530";
layers = (
{
background = {
paths = (
{
closed = 1;
nodes = (
"28 466 LINE",
"28 396 LINE",
"380 396 LINE",
"380 466 LINE"
);
},
{
closed = 1;
nodes = (
"91 216 LINE",
"91 174 LINE",
"190 51 LINE",
"190 51 OFFCURVE",
"247 51 OFFCURVE",
"247 51 CURVE",
"247 216 LINE"
);
},
{
closed = 1;
nodes = (
"186 216 LINE",
"186 138 LINE",
"439 138 LINE",
"439 216 LINE"
);
},
{
closed = 1;
nodes = (
"162 138 LINE",
"247 138 LINE",
"247 466 LINE",
"162 466 LINE"
);
}
);
};
layerId = "CFA4B904-E3F1-48B6-A7F6-47DC1FF2A3E1";
name = Bold;
paths = (
{
closed = 1;
nodes = (
"247 125 LINE",
"247 310 LINE SMOOTH",
"247 422 OFFCURVE",
"210 479 OFFCURVE",
"126 479 CURVE SMOOTH",
"57 479 OFFCURVE",
"12 434 OFFCURVE",
"12 369 CURVE SMOOTH",
"12 317 OFFCURVE",
"46 277 OFFCURVE",
"95 251 CURVE",
"133 311 LINE",
"109 325 OFFCURVE",
"86 341 OFFCURVE",
"86 369 CURVE SMOOTH",
"86 389 OFFCURVE",
"100 403 OFFCURVE",
"119 403 CURVE SMOOTH",
"165 403 OFFCURVE",
"160 329 OFFCURVE",
"160 310 CURVE SMOOTH",
"160 125 LINE"
);
},
{
closed = 1;
nodes = (
"213 206 LINE",
"213 131 LINE",
"439 131 LINE",
"439 206 LINE"
);
},
{
closed = 1;
nodes = (
"94 206 LINE",
"94 164 LINE",
"193 41 LINE",
"193 41 OFFCURVE",
"247 41 OFFCURVE",
"247 41 CURVE",
"247 206 LINE"
);
}
);
width = 339;
}
);
},
{
color = 9;
glyphname = "m-deva";
lastChange = "2014-09-17 05:31:24 +0530";
layers = (
{
layerId = "CFA4B904-E3F1-48B6-A7F6-47DC1FF2A3E1";
name = Bold;
paths = (
{
closed = 1;
nodes = (
"-24 466 LINE",
"-24 396 LINE",
"328 396 LINE",
"328 466 LINE"
);
},
{
closed = 1;
nodes = (
"39 216 LINE",
"39 174 LINE",
"138 51 LINE",
"138 51 OFFCURVE",
"195 51 OFFCURVE",
"195 51 CURVE",
"195 216 LINE"
);
},
{
closed = 1;
nodes = (
"134 216 LINE",
"134 138 LINE",
"387 138 LINE",
"387 216 LINE"
);
},
{
closed = 1;
nodes = (
"110 138 LINE",
"195 138 LINE",
"195 466 LINE",
"110 466 LINE"
);
}
);
width = 287;
}
);
},
{
color = 9;
glyphname = "ghh-deva";
lastChange = "2014-09-19 12:34:00 +0530";
layers = (
{
anchors = (
{
name = top;
position = "{352, 447}";
}
);
background = {
paths = (
{
closed = 1;
nodes = (
"-24 466 LINE",
"-24 396 LINE",
"261 396 LINE",
"261 466 LINE"
);
},
{
closed = 1;
nodes = (
"28 240 LINE",
"28 198 LINE",
"118 75 LINE",
"118 75 OFFCURVE",
"175 75 OFFCURVE",
"175 75 CURVE",
"175 240 LINE"
);
},
{
closed = 1;
nodes = (
"90 180 LINE",
"175 180 LINE",
"175 466 LINE",
"90 466 LINE"
);
}
);
};
components = (
{
name = "nukta-deva";
transform = "{1, 0, 0, 1, 227, 94}";
}
);
layerId = "CFA4B904-E3F1-48B6-A7F6-47DC1FF2A3E1";
name = Bold;
paths = (
{
closed = 1;
nodes = (
"-24 466 LINE",
"-24 396 LINE",
"261 396 LINE",
"261 466 LINE"
);
},
{
closed = 1;
nodes = (
"28 276 LINE",
"28 234 LINE",
"118 111 LINE",
"118 111 OFFCURVE",
"175 111 OFFCURVE",
"175 111 CURVE",
"175 276 LINE"
);
},
{
closed = 1;
nodes = (
"90 216 LINE",
"175 216 LINE",
"175 466 LINE",
"90 466 LINE"
);
}
);
width = 237;
}
);
},
{
glyphname = "aaMatra-deva";
lastChange = "2014-09-19 12:32:38 +0530";
layers = (
{
background = {
paths = (
{
closed = 1;
nodes = (
"80 0 LINE",
"135 0 LINE",
"135 456 LINE",
"80 456 LINE"
);
},
{
closed = 1;
nodes = (
"-24 456 LINE",
"-24 408 LINE",
"237 408 LINE",
"237 456 LINE"
);
}
);
};
layerId = "CFA4B904-E3F1-48B6-A7F6-47DC1FF2A3E1";
name = Bold;
paths = (
{
closed = 1;
nodes = (
"-24 466 LINE",
"-24 396 LINE",
"237 396 LINE",
"237 466 LINE"
);
},
{
closed = 1;
nodes = (
"65 0 LINE",
"150 0 LINE",
"150 466 LINE",
"65 466 LINE"
);
}
);
width = 213;
}
);
unicode = 093E;
},
{
glyphname = "iMatra-deva";
lastChange = "2014-09-19 12:32:44 +0530";
layers = (
{
background = {
paths = (
{
closed = 1;
nodes = (
"75 0 LINE",
"130 0 LINE",
"130 456 LINE",
"75 456 LINE"
);
},
{
closed = 1;
nodes = (
"-24 456 LINE",
"-24 408 LINE",
"231 408 LINE",
"231 456 LINE"
);
},
{
closed = 1;
nodes = (
"485 576 OFFCURVE",
"374 649 OFFCURVE",
"215 649 CURVE SMOOTH",
"104 649 OFFCURVE",
"51 589 OFFCURVE",
"53 517 CURVE SMOOTH",
"53 469 OFFCURVE",
"83 439 OFFCURVE",
"83 439 CURVE SMOOTH",
"83 439 OFFCURVE",
"151 439 OFFCURVE",
"151 439 CURVE",
"130 452 OFFCURVE",
"107 478 OFFCURVE",
"107 517 CURVE SMOOTH",
"107 564 OFFCURVE",
"144 599 OFFCURVE",
"216 599 CURVE SMOOTH",
"342 599 OFFCURVE",
"443 540 OFFCURVE",
"525 436 CURVE",
"593 436 LINE"
);
}
);
};
layerId = "CFA4B904-E3F1-48B6-A7F6-47DC1FF2A3E1";
name = Bold;
paths = (
{
closed = 1;
nodes = (
"-24 466 LINE",
"-24 396 LINE",
"231 396 LINE",
"231 466 LINE"
);
},
{
closed = 1;
nodes = (
"505 576 OFFCURVE",
"374 659 OFFCURVE",
"226 659 CURVE SMOOTH",
"104 659 OFFCURVE",
"45 599 OFFCURVE",
"47 524 CURVE SMOOTH",
"48 469 OFFCURVE",
"77 439 OFFCURVE",
"77 439 CURVE SMOOTH",
"77 439 OFFCURVE",
"170 439 OFFCURVE",
"170 439 CURVE",
"152 455 OFFCURVE",
"125 478 OFFCURVE",
"125 523 CURVE SMOOTH",
"125 561 OFFCURVE",
"154 589 OFFCURVE",
"225 589 CURVE SMOOTH",
"351 589 OFFCURVE",
"439 530 OFFCURVE",
"521 436 CURVE",
"613 436 LINE"
);
},
{
closed = 1;
nodes = (
"60 0 LINE",
"145 0 LINE",
"145 466 LINE",
"60 466 LINE"
);
}
);
width = 208;
}
);
unicode = 093F;
},
{
glyphname = "iiMatra-deva";
lastChange = "2014-09-19 12:32:52 +0530";
layers = (
{
background = {
paths = (
{
closed = 1;
nodes = (
"80 0 LINE",
"135 0 LINE",
"135 456 LINE",
"80 456 LINE"
);
},
{
closed = 1;
nodes = (
"-24 456 LINE",
"-24 408 LINE",
"232 408 LINE",
"232 456 LINE"
);
},
{
closed = 1;
nodes = (
"116 564 OFFCURVE",
"31 649 OFFCURVE",
"-53 649 CURVE SMOOTH",
"-139 649 OFFCURVE",
"-174 598 OFFCURVE",
"-172 538 CURVE SMOOTH",
"-172 475 OFFCURVE",
"-118 439 OFFCURVE",
"-118 439 CURVE SMOOTH",
"-118 439 OFFCURVE",
"-52 439 OFFCURVE",
"-52 439 CURVE",
"-73 452 OFFCURVE",
"-118 484 OFFCURVE",
"-118 534 CURVE SMOOTH",
"-118 573 OFFCURVE",
"-98 597 OFFCURVE",
"-56 597 CURVE SMOOTH",
"-10 597 OFFCURVE",
"53 560 OFFCURVE",
"82 436 CURVE",
"137 436 LINE"
);
}
);
};
layerId = "CFA4B904-E3F1-48B6-A7F6-47DC1FF2A3E1";
name = Bold;
paths = (
{
closed = 1;
nodes = (
"-24 466 LINE",
"-24 396 LINE",
"232 396 LINE",
"232 466 LINE"
);
},
{
closed = 1;
nodes = (
"117 564 OFFCURVE",
"60 659 OFFCURVE",
"-48 659 CURVE SMOOTH",
"-134 659 OFFCURVE",
"-181 604 OFFCURVE",
"-180 538 CURVE SMOOTH",
"-179 475 OFFCURVE",
"-136 439 OFFCURVE",
"-136 439 CURVE SMOOTH",
"-136 439 OFFCURVE",
"-36 439 OFFCURVE",
"-37 439 CURVE",
"-58 452 OFFCURVE",
"-101 484 OFFCURVE",
"-101 534 CURVE SMOOTH",
"-101 565 OFFCURVE",
"-82 582 OFFCURVE",
"-48 582 CURVE SMOOTH",
"-7 582 OFFCURVE",
"34 560 OFFCURVE",
"71 436 CURVE",
"154 436 LINE"
);
},
{
closed = 1;
nodes = (
"65 0 LINE",
"150 0 LINE",
"150 466 LINE",
"65 466 LINE"
);
}
);
width = 208;
}
);
unicode = 0940;
},
{
glyphname = comma;
lastChange = "2014-07-21 10:48:14 +0530";
layers = (
{
layerId = "CFA4B904-E3F1-48B6-A7F6-47DC1FF2A3E1";
name = Bold;
paths = (
{
closed = 1;
nodes = (
"27 -86 LINE",
"79 -86 LINE",
"138 66 LINE",
"75 66 LINE"
);
}
);
width = 220;
}
);
unicode = 002C;
},
{
glyphname = exclam;
lastChange = "2014-07-21 10:48:14 +0530";
layers = (
{
layerId = "CFA4B904-E3F1-48B6-A7F6-47DC1FF2A3E1";
name = Bold;
paths = (
{
closed = 1;
nodes = (
"140 90 LINE",
"195 90 LINE",
"195 473 LINE",
"140 473 LINE"
);
},
{
closed = 1;
nodes = (
"137 -32 LINE",
"198 -32 LINE",
"198 28 LINE",
"137 28 LINE"
);
}
);
width = 245;
}
);
unicode = 0021;
},
{
glyphname = emdash;
lastChange = "2014-07-21 10:48:14 +0530";
layers = (
{
layerId = "CFA4B904-E3F1-48B6-A7F6-47DC1FF2A3E1";
name = Bold;
paths = (
{
closed = 1;
nodes = (
"40 190 LINE",
"586 190 LINE",
"586 237 LINE",
"40 237 LINE"
);
}
);
width = 646;
}
);
unicode = 2014;
},
{
glyphname = hyphen;
lastChange = "2014-07-21 10:48:14 +0530";
layers = (
{
layerId = "CFA4B904-E3F1-48B6-A7F6-47DC1FF2A3E1";
name = Bold;
paths = (
{
closed = 1;
nodes = (
"40 190 LINE",
"286 190 LINE",
"286 237 LINE",
"40 237 LINE"
);
}
);
width = 346;
}
);
unicode = 002D;
},
{
glyphname = "danda-deva";
lastChange = "2014-07-21 10:48:14 +0530";
layers = (
{
layerId = "CFA4B904-E3F1-48B6-A7F6-47DC1FF2A3E1";
name = Bold;
paths = (
{
closed = 1;
nodes = (
"140 -30 LINE",
"195 -30 LINE",
"195 473 LINE",
"140 473 LINE"
);
}
);
width = 245;
}
);
unicode = 0964;
},
{
glyphname = "dbldanda-deva";
lastChange = "2014-07-21 10:48:14 +0530";
layers = (
{
layerId = "CFA4B904-E3F1-48B6-A7F6-47DC1FF2A3E1";
name = Bold;
paths = (
{
closed = 1;
nodes = (
"140 -30 LINE",
"195 -30 LINE",
"195 476 LINE",
"140 476 LINE"
);
},
{
closed = 1;
nodes = (
"285 -30 LINE",
"340 -30 LINE",
"340 476 LINE",
"285 476 LINE"
);
}
);
width = 390;
}
);
unicode = 0965;
},
{
glyphname = "uMatra-deva";
lastChange = "2014-09-19 12:57:58 +0530";
layers = (
{
anchors = (
{
name = _bottom;
position = "{-94, 13}";
}
);
background = {
paths = (
{
closed = 1;
nodes = (
"-161 -55 OFFCURVE",
"-131 -40 OFFCURVE",
"-108 -40 CURVE SMOOTH",
"-80 -40 OFFCURVE",
"-65 -57 OFFCURVE",
"-65 -84 CURVE SMOOTH",
"-65 -118 OFFCURVE",
"-98 -134 OFFCURVE",
"-131 -134 CURVE SMOOTH",
"-188 -134 OFFCURVE",
"-236 -88 OFFCURVE",
"-279 -47 CURVE",
"-313 -84 LINE",
"-277 -120 OFFCURVE",
"-214 -185 OFFCURVE",
"-128 -185 CURVE SMOOTH",
"-64 -185 OFFCURVE",
"-12 -147 OFFCURVE",
"-12 -83 CURVE SMOOTH",
"-12 -33 OFFCURVE",
"-47 13 OFFCURVE",
"-102 13 CURVE SMOOTH",
"-137 13 OFFCURVE",
"-168 0 OFFCURVE",
"-181 -7 CURVE",
"-161 -55 LINE"
);
}
);
};
layerId = "CFA4B904-E3F1-48B6-A7F6-47DC1FF2A3E1";
name = Bold;
paths = (
{
closed = 1;
nodes = (
"-157 -63 OFFCURVE",
"-135 -50 OFFCURVE",
"-112 -50 CURVE SMOOTH",
"-90 -50 OFFCURVE",
"-75 -63 OFFCURVE",
"-75 -87 CURVE SMOOTH",
"-75 -109 OFFCURVE",
"-98 -124 OFFCURVE",
"-131 -124 CURVE SMOOTH",
"-193 -124 OFFCURVE",
"-238 -74 OFFCURVE",
"-281 -33 CURVE",
"-328 -84 LINE",
"-292 -120 OFFCURVE",
"-224 -195 OFFCURVE",
"-133 -195 CURVE SMOOTH",
"-56 -195 OFFCURVE",
"-1 -157 OFFCURVE",
"-1 -87 CURVE SMOOTH",
"-1 -23 OFFCURVE",
"-42 23 OFFCURVE",
"-104 23 CURVE SMOOTH",
"-140 23 OFFCURVE",
"-172 9 OFFCURVE",
"-185 2 CURVE",
"-157 -63 LINE"
);
}
);
width = 0;
}
);
unicode = 0941;
},
{
glyphname = "uuMatra-deva";
lastChange = "2014-09-19 12:33:24 +0530";
layers = (
{
anchors = (
{
name = _bottom;
position = "{-102, 8}";
}
);
background = {
paths = (
{
closed = 1;
nodes = (
"-77 -128 OFFCURVE",
"-92 -134 OFFCURVE",
"-111 -134 CURVE SMOOTH",
"-134 -134 OFFCURVE",
"-153 -118 OFFCURVE",
"-153 -87 CURVE SMOOTH",
"-153 -56 OFFCURVE",
"-129 -41 OFFCURVE",
"-100 -41 CURVE SMOOTH",
"-53 -41 OFFCURVE",
"-4 -102 OFFCURVE",
"56 -177 CURVE",
"96 -145 LINE",
"65 -106 OFFCURVE",
"-18 11 OFFCURVE",
"-100 11 CURVE SMOOTH",
"-152 11 OFFCURVE",
"-205 -18 OFFCURVE",
"-205 -87 CURVE SMOOTH",
"-205 -137 OFFCURVE",
"-170 -185 OFFCURVE",
"-112 -185 CURVE SMOOTH",
"-78 -185 OFFCURVE",
"-56 -174 OFFCURVE",
"-43 -166 CURVE",
"-64 -120 LINE"
);
}
);
};
layerId = "CFA4B904-E3F1-48B6-A7F6-47DC1FF2A3E1";
name = Bold;
paths = (
{
closed = 1;
nodes = (
"-80 -119 OFFCURVE",
"-92 -124 OFFCURVE",
"-111 -124 CURVE SMOOTH",
"-134 -124 OFFCURVE",
"-149 -108 OFFCURVE",
"-149 -87 CURVE SMOOTH",
"-149 -62 OFFCURVE",
"-129 -51 OFFCURVE",
"-100 -51 CURVE SMOOTH",
"-54 -51 OFFCURVE",
"-4 -115 OFFCURVE",
"56 -190 CURVE",
"110 -147 LINE",
"81 -108 OFFCURVE",
"-9 21 OFFCURVE",
"-100 21 CURVE SMOOTH",
"-168 21 OFFCURVE",
"-221 -18 OFFCURVE",
"-221 -87 CURVE SMOOTH",
"-221 -147 OFFCURVE",
"-180 -195 OFFCURVE",
"-112 -195 CURVE SMOOTH",
"-78 -195 OFFCURVE",
"-52 -183 OFFCURVE",
"-39 -175 CURVE",
"-67 -113 LINE"
);
}
);
width = 0;
}
);
unicode = 0942;
},
{
glyphname = "candraBindu-deva";
lastChange = "2014-09-19 12:58:06 +0530";
layers = (
{
anchors = (
{
name = _top;
position = "{-101, 447}";
}
);
background = {
paths = (
{
closed = 1;
nodes = (
"-29 509 OFFCURVE",
"16 550 OFFCURVE",
"32 608 CURVE",
"-10 627 LINE",
"-28 582 OFFCURVE",
"-50 557 OFFCURVE",
"-101 557 CURVE SMOOTH",
"-151 557 OFFCURVE",
"-174 582 OFFCURVE",
"-191 627 CURVE",
"-235 608 LINE",
"-218 550 OFFCURVE",
"-172 509 OFFCURVE",
"-101 509 CURVE SMOOTH"
);
},
{
closed = 1;
nodes = (
"-130 617 LINE",
"-71 617 LINE",
"-71 674 LINE",
"-130 674 LINE"
);
}
);
};
layerId = "CFA4B904-E3F1-48B6-A7F6-47DC1FF2A3E1";
name = Bold;
paths = (
{
closed = 1;
nodes = (
"-76 626 OFFCURVE",
"-59 643 OFFCURVE",
"-59 668 CURVE SMOOTH",
"-59 694 OFFCURVE",
"-76 711 OFFCURVE",
"-102 711 CURVE SMOOTH",
"-127 711 OFFCURVE",
"-144 694 OFFCURVE",
"-144 668 CURVE SMOOTH",
"-144 643 OFFCURVE",
"-127 626 OFFCURVE",
"-102 626 CURVE SMOOTH"
);
},
{
closed = 1;
nodes = (
"-19 519 OFFCURVE",
"31 566 OFFCURVE",
"47 624 CURVE",
"-15 652 LINE",
"-33 607 OFFCURVE",
"-60 585 OFFCURVE",
"-101 585 CURVE SMOOTH",
"-142 585 OFFCURVE",
"-169 607 OFFCURVE",
"-187 652 CURVE",
"-249 624 LINE",
"-233 566 OFFCURVE",
"-183 519 OFFCURVE",
"-101 519 CURVE SMOOTH"
);
}
);
width = 0;
}
);
unicode = 0901;
},
{
glyphname = "eMatra-deva";
lastChange = "2014-09-19 12:33:48 +0530";
layers = (
{
anchors = (
{
name = _top;
position = "{-94, 447}";
}
);
background = {
paths = (
{
closed = 1;
nodes = (
"-177 588 LINE",
"-208 624 OFFCURVE",
"-226 637 OFFCURVE",
"-264 637 CURVE SMOOTH",
"-296 637 OFFCURVE",
"-326 622 OFFCURVE",
"-326 622 CURVE SMOOTH",
"-326 622 OFFCURVE",
"-305 575 OFFCURVE",
"-305 575 CURVE SMOOTH",
"-305 575 OFFCURVE",
"-286 586 OFFCURVE",
"-264 586 CURVE SMOOTH",
"-243 586 OFFCURVE",
"-234 578 OFFCURVE",
"-218 559 CURVE",
"-121 437 LINE",
"-59 437 LINE"
);
}
);
};
layerId = "CFA4B904-E3F1-48B6-A7F6-47DC1FF2A3E1";
name = Bold;
paths = (
{
closed = 1;
nodes = (
"-147 588 LINE",
"-190 638 OFFCURVE",
"-216 658 OFFCURVE",
"-264 658 CURVE SMOOTH",
"-296 658 OFFCURVE",
"-334 638 OFFCURVE",
"-334 638 CURVE SMOOTH",
"-334 638 OFFCURVE",
"-305 575 OFFCURVE",
"-305 575 CURVE SMOOTH",
"-305 575 OFFCURVE",
"-286 586 OFFCURVE",
"-264 586 CURVE SMOOTH",
"-243 586 OFFCURVE",
"-231 574 OFFCURVE",
"-209 548 CURVE",
"-121 437 LINE",
"-29 437 LINE"
);
}
);
width = 0;
}
);
unicode = 0947;
},
{
glyphname = "aiMatra-deva";
lastChange = "2014-09-19 12:33:54 +0530";
layers = (
{
anchors = (
{
name = _top;
position = "{-103, 447}";
}
);
background = {
paths = (
{
closed = 1;
nodes = (
"-119 601 LINE SMOOTH",
"-135 639 OFFCURVE",
"-155 679 OFFCURVE",
"-206 679 CURVE SMOOTH",
"-231 679 OFFCURVE",
"-260 671 OFFCURVE",
"-260 671 CURVE",
"-249 623 LINE",
"-249 623 OFFCURVE",
"-224 629 OFFCURVE",
"-209 629 CURVE SMOOTH",
"-180 629 OFFCURVE",
"-167 594 OFFCURVE",
"-153 566 CURVE SMOOTH",
"-105 467 LINE",
"-190 541 LINE",
"-231 574 OFFCURVE",
"-250 595 OFFCURVE",
"-287 595 CURVE SMOOTH",
"-309 595 OFFCURVE",
"-344 582 OFFCURVE",
"-344 582 CURVE",
"-330 536 LINE",
"-330 536 OFFCURVE",
"-305 545 OFFCURVE",
"-290 545 CURVE SMOOTH",
"-269 545 OFFCURVE",
"-246 524 OFFCURVE",
"-210 498 CURVE SMOOTH",
"-123 437 LINE",
"-52 437 LINE"
);
}
);
};
layerId = "CFA4B904-E3F1-48B6-A7F6-47DC1FF2A3E1";
name = Bold;
paths = (
{
closed = 1;
nodes = (
"-99 601 LINE SMOOTH",
"-125 672 OFFCURVE",
"-159 697 OFFCURVE",
"-210 697 CURVE SMOOTH",
"-235 697 OFFCURVE",
"-264 687 OFFCURVE",
"-264 687 CURVE",
"-249 623 LINE",
"-249 623 OFFCURVE",
"-224 629 OFFCURVE",
"-209 629 CURVE SMOOTH",
"-180 629 OFFCURVE",
"-167 595 OFFCURVE",
"-153 566 CURVE SMOOTH",
"-118 493 LINE",
"-180 546 LINE",
"-221 579 OFFCURVE",
"-252 612 OFFCURVE",
"-289 612 CURVE SMOOTH",
"-316 612 OFFCURVE",
"-349 599 OFFCURVE",
"-349 599 CURVE",
"-329 531 LINE",
"-329 531 OFFCURVE",
"-304 540 OFFCURVE",
"-289 540 CURVE SMOOTH",
"-269 540 OFFCURVE",
"-251 522 OFFCURVE",
"-212 494 CURVE SMOOTH",
"-134 437 LINE",
"-40 437 LINE"
);
}
);
width = 0;
}
);
unicode = 0948;
},
{
glyphname = "anusvara-deva";
lastChange = "2014-09-19 13:01:39 +0530";
layers = (
{
anchors = (
{
name = _top;
position = "{-83, 447}";
}
);
background = {
paths = (
{
closed = 1;
nodes = (
"-115 525 LINE",
"-51 525 LINE",
"-51 586 LINE",
"-115 586 LINE"
);
}
);
};
layerId = "CFA4B904-E3F1-48B6-A7F6-47DC1FF2A3E1";
name = Bold;
paths = (
{
closed = 1;
nodes = (
"-55 520 OFFCURVE",
"-36 539 OFFCURVE",
"-36 566 CURVE SMOOTH",
"-36 594 OFFCURVE",
"-55 613 OFFCURVE",
"-83 613 CURVE SMOOTH",
"-110 613 OFFCURVE",
"-129 594 OFFCURVE",
"-129 566 CURVE SMOOTH",
"-129 539 OFFCURVE",
"-110 520 OFFCURVE",
"-83 520 CURVE SMOOTH"
);
}
);
width = 0;
}
);
unicode = 0902;
},
{
glyphname = "halant-deva";
lastChange = "2014-09-19 12:29:43 +0530";
layers = (
{
background = {
paths = (
{
closed = 1;
nodes = (
"-139 -29 OFFCURVE",
"-95 -92 OFFCURVE",
"-55 -142 CURVE",
"-55 -142 OFFCURVE",
"-97 -177 OFFCURVE",
"-97 -177 CURVE",
"-156 -96 OFFCURVE",
"-201 -81 OFFCURVE",
"-280 -81 CURVE",
"-280 -29 LINE"
);
}
);
};
layerId = "CFA4B904-E3F1-48B6-A7F6-47DC1FF2A3E1";
name = Bold;
paths = (
{
closed = 1;
nodes = (
"-135 -29 OFFCURVE",
"-75 -102 OFFCURVE",
"-35 -152 CURVE",
"-35 -152 OFFCURVE",
"-87 -197 OFFCURVE",
"-87 -197 CURVE",
"-146 -116 OFFCURVE",
"-201 -101 OFFCURVE",
"-280 -101 CURVE",
"-280 -29 LINE"
);
}
);
width = 0;
}
);
unicode = 094D;
},
{
glyphname = "nukta-deva";
lastChange = "2014-09-19 12:34:00 +0530";
layers = (
{
background = {
paths = (
{
closed = 1;
nodes = (
"-12 -104 OFFCURVE",
"2 -90 OFFCURVE",
"2 -70 CURVE SMOOTH",
"2 -49 OFFCURVE",
"-12 -35 OFFCURVE",
"-33 -35 CURVE SMOOTH",
"-53 -35 OFFCURVE",
"-67 -49 OFFCURVE",
"-67 -70 CURVE SMOOTH",
"-67 -90 OFFCURVE",
"-53 -104 OFFCURVE",
"-33 -104 CURVE SMOOTH"
);
}
